<svg xmlns="http://www.w3.org/2000/svg" version="1.1" xlink="http://www.w3.org/1999/xlink" xmlns:svgjs="http://svgjs.com/svgjs" width="277px" height="102px" viewBox="1.059999942779541 -48.720001220703125 278.739990234375 53.84000015258789" class="image-parser-img svg-tag" style="top: 24px;"><g fill="#147efb"><path d="M29.98 -22.47L41.83 -22.47L41.83 5.12L50.06 5.12L50.06 -48.72L41.83 -48.72L41.83 -30.2L29.98 -30.2ZM1.06 -6.34L7.29 -1.45C9.62 -3.37 12 -6.02 14.43 -9.37C16.86 -12.73 18.52 -15.83 19.41 -18.69C20.34 -15.98 21.94 -13.02 24.22 -9.82C26.5 -6.61 28.64 -4.25 30.65 -2.73L36.54 -7.62C32.98 -10.36 29.89 -14.33 27.25 -19.52C24.62 -24.71 23.3 -30.44 23.3 -36.71L23.3 -45.55L15.41 -45.55L15.41 -36.37C15.41 -32.74 15 -29.32 14.18 -26.11C13.37 -22.91 12.25 -20.08 10.82 -17.63C9.39 -15.18 7.88 -13.05 6.28 -11.23C4.69 -9.42 2.95 -7.79 1.06 -6.34Z M72.55 4.51L112.09 4.51L112.09 -1.84L80.56 -1.84L80.56 -4.73L111.09 -4.73L111.09 -19.3L72.38 -19.3L72.38 -12.9L103.14 -12.9L103.14 -10.12L72.55 -10.12ZM65.6 -22.41L87.79 -22.41L87.79 -15.52L95.74 -15.52L95.74 -22.41L117.77 -22.41L117.77 -28.75L65.6 -28.75ZM70.99 -39.82C70.99 -37.82 71.99 -36.13 74 -34.76C76 -33.39 78.51 -32.42 81.53 -31.84C84.55 -31.27 87.97 -30.98 91.79 -30.98C95.54 -30.98 98.92 -31.27 101.94 -31.84C104.97 -32.42 107.49 -33.39 109.51 -34.76C111.53 -36.13 112.54 -37.82 112.54 -39.82C112.54 -41.83 111.53 -43.51 109.51 -44.88C107.49 -46.26 104.97 -47.23 101.94 -47.8C98.92 -48.38 95.54 -48.67 91.79 -48.67C89.01 -48.67 86.41 -48.5 83.98 -48.17C81.55 -47.83 79.35 -47.32 77.39 -46.64C75.42 -45.95 73.87 -45.02 72.72 -43.86C71.57 -42.69 70.99 -41.34 70.99 -39.82ZM79.89 -39.82C79.89 -41.83 83.86 -42.83 91.79 -42.83C99.69 -42.83 103.64 -41.83 103.64 -39.82C103.64 -37.86 99.69 -36.88 91.79 -36.88C83.86 -36.88 79.89 -37.86 79.89 -39.82Z M128.8 -37.77L147.82 -37.77C140.67 -25.38 135.87 -12.68 133.42 0.33L142.04 0.33C145.64 -15.42 150.79 -28.59 157.5 -39.16L157.5 -44.77L128.8 -44.77Z M168.26 1.33L220.48 1.33L220.48 -5.73L198.68 -5.73L198.68 -14.46L190.28 -14.46L190.28 -5.73L168.26 -5.73ZM181.77 -40.82L207.3 -40.82L207.3 -47.28L181.77 -47.28ZM172.37 -31.48L216.7 -31.48L216.7 -37.77L172.37 -37.77ZM175.32 -20.3C175.32 -18.3 176.19 -16.58 177.94 -15.16C179.68 -13.73 181.98 -12.68 184.83 -12.01C187.69 -11.35 190.93 -11.01 194.57 -11.01C200.13 -11.01 204.72 -11.82 208.33 -13.43C211.95 -15.04 213.75 -17.32 213.75 -20.25C213.75 -23.17 211.94 -25.45 208.3 -27.06C204.67 -28.67 200.09 -29.48 194.57 -29.48C190.97 -29.48 187.74 -29.15 184.89 -28.5C182.03 -27.86 179.72 -26.83 177.96 -25.42C176.2 -24.01 175.32 -22.3 175.32 -20.3ZM184.28 -20.3C184.28 -22.6 187.71 -23.75 194.57 -23.75C201.39 -23.75 204.8 -22.6 204.8 -20.3C204.8 -17.96 201.39 -16.8 194.57 -16.8C187.71 -16.8 184.28 -17.96 184.28 -20.3Z M241.42 4.45L279.8 4.45L279.8 -16.02L241.42 -16.02ZM249.43 -2.28L249.43 -9.29L271.84 -9.29L271.84 -2.28ZM262.05 -29.03L271.62 -29.03L271.62 -17.96L279.8 -17.96L279.8 -48.72L271.62 -48.72L271.62 -36.21L262.05 -36.21ZM231.96 -22.36L236.41 -17.07C238.79 -17.89 241.32 -19.29 244 -21.27C246.69 -23.26 248.72 -25.2 250.1 -27.09C251.36 -25.45 253.21 -23.74 255.66 -21.94C258.1 -20.14 260.42 -18.82 262.61 -17.96L266.84 -23.03C265.65 -23.55 264.43 -24.2 263.17 -25C261.9 -25.8 260.6 -26.76 259.24 -27.89C257.89 -29.02 256.76 -30.33 255.85 -31.81C254.94 -33.3 254.45 -34.8 254.38 -36.32L254.38 -39.66L264.61 -39.66L264.61 -46.27L235.19 -46.27L235.19 -39.66L245.7 -39.66L245.7 -36.21C245.63 -34.5 245.11 -32.86 244.14 -31.29C243.18 -29.71 241.96 -28.35 240.47 -27.2C238.99 -26.05 237.55 -25.08 236.16 -24.31C234.77 -23.53 233.37 -22.88 231.96 -22.36Z"></path></g></svg>