<svg xmlns="http://www.w3.org/2000/svg" version="1.1" xlink="http://www.w3.org/1999/xlink" xmlns:svgjs="http://svgjs.com/svgjs" width="197px" height="146px" preserveAspectRatio="xMidYMid meet" viewBox="0.00002680735633475706 0.000005321799562807428 197.7801055908203 146.9999542236328" overflow="visible" class="image-parser-img svg-tag" style="top: 2px;"><defs id="SvgjsDefs127207"></defs><g id="SvgjsG127208" transform="scale(0.44343437638235655)" opacity="1"><g id="SvgjsG127209" class="DJCqm5yUr" transform="translate(161.1607442380037, 26.369212167959965) scale(0.7543914062942094)" light-content="false" non-strokable="false" fill="#aaaaaa"><path d="M38.9 24.8h.5c.1-.3.3-.2.5-.3.7-.1.9-.7 1-1.3.1-.7-.2-1.2-.8-1.6-.6-.3-1.1-.3-1.6.1-.3.2-.5.6-.8.9v1.1c-.1 1 .3 1.3 1.2 1.1zm-9.5.7c.6-.1.6-.6 1-.9v-.4c-.5-.7-1.1-1.2-1.9-.6-.4.3-.6.7-.3 1.2.2.6.6.8 1.2.7zm6.8-10.6c.5-.1.5-.6.2-1.1h-.8c0 .6-.2 1.3.6 1.1zM57 24.5c.1 0 .2 0 .3.1.1-.2.2-.1.4-.1h.1c0 .2.1.3.5.3.6 0 .4-.2.5-.8.1-.3.1-.6.1-1h-.6l-.1-.1c-.3-.3-.6-.3-1-.2-.2.1-.4.3-.6.4 0 .2-.1.4-.1.7-.3.5-.1.7.5.7zm-5.8-.9c.3 0 .5-.3.7-.4V23c-.2-.5-.5-.8-1.1-.6-.3.1-.4.3-.4.7.2.3.5.5.8.5zm5.5-5.3c.3 0 .4-.3.3-.6-.2 0-.3-.1-.5-.1-.1.3-.3.7.2.7zm32.8 8.2c-.5-.5-1.1-.8-1.7-.5-.4.1-.8.4-1.2.6-.1.4-.3.8-.4 1.1-.5.9-.3 1.4.8 1.5.2.1.4.1.6.2.2-.3.4-.1.7-.1.8.1 1.2-.3 1.5-.9.3-.7.2-1.3-.3-1.9zm-12.6-.3c.6.1.9-.4 1.3-.5 0-.1.1-.3.1-.4-.2-.9-.7-1.6-1.7-1.3-.5.1-.9.5-.8 1.1.1.6.5 1 1.1 1.1zM88 18c.6.1.7-.5.6-1-.3-.1-.5-.2-.8-.3-.2.5-.7 1.1.2 1.3zm45.7 12.8c-.5-.1-1 0-1.5 0l-1 1c-1.1.7-1.1 1.3 0 2l.5.5c.3-.2.5.1.7.3.7.5 1.5.3 2.1-.2.7-.5 1-1.3.7-2.2-.2-.7-.7-1.3-1.5-1.4zm-10.8-7.9c-.6-.1-1.2.1-1.4.8-.3.7-.1 1.3.5 1.8s1.1.1 1.7.2l.4-.4c.2-1.1.1-2.1-1.2-2.4zm15.1-.4c.6.4 1-.1 1.2-.7l-.7-.7c-.5.4-1.3.8-.5 1.4zm18.8 10.7c.7-.2 1.2-.6 1.3-1.3.1-.4 0-.9 0-1.3l-.9-.9c-.6-.9-1.2-.9-1.7 0l-.4.4c.2.3-.1.4-.2.6-.5.6-.3 1.3.1 1.8.4.6 1 .9 1.8.7zm7.4-11.9c-.6-.2-1.1 0-1.5.5-.4.5-.1 1-.1 1.5l.3.3c.9.2 1.8.1 2-1 .1-.6-.1-1.1-.7-1.3zm1.7 15.4l.6-.6c-.3-.4-.7-1.1-1.3-.4-.3.4.2.8.7 1zm25.5-12.9c-.2-.1-.4-.2-.6-.2-.2.3-.4.1-.7 0-.8-.2-1.2.2-1.6.8-.4.6-.3 1.3.1 1.9.4.6 1 .8 1.7.6.4-.1.8-.3 1.2-.5.2-.4.3-.7.5-1.1.6-.8.4-1.4-.6-1.5zm10.8 4.7c0-.7-.4-1-1-1.2-.6-.2-.9.3-1.4.4-.1.1-.1.3-.2.4.2.9.6 1.7 1.7 1.4.5 0 .9-.4.9-1zm-12.5 6.3c-.6-.2-.8.4-.7 1 .3.1.5.2.8.3.3-.4.8-1-.1-1.3zm38.7-6.1c.2-.3.3-.6.4-.9-.1-.3-.2-.6-.3-.8-.1-.8-.5-1-1.1-.5-.1 0-.3.1-.4.1 0 .2-.2.3-.3.3-.5.3-.6.7-.5 1.2.1.5.5.9 1 1 .5.2.9.1 1.2-.4zm7.4-3.9c.2-.3.3-.7 0-1-.3-.3-.7-.4-1.1-.2-.4.2-.3.6-.5.9 0 .1.1.2.1.3.4.4 1 .7 1.5 0zm-3.2 9.3c-.1-.4-.1-1-.7-.7-.4.2-.2.6.1.9.2-.1.4-.1.6-.2zm32-5.1c.1-.7-.2-1.3-.9-1.7-.6-.3-1.3-.3-1.8.1-.3.3-.6.6-.9 1v1.2c-.2 1 .2 1.4 1.3 1.2h.6c.1-.3.4-.3.6-.3.8-.3 1.1-.9 1.1-1.5zm-13.7.5c-.4.3-.6.8-.3 1.3.3.6.8.8 1.4.7.6-.1.7-.7 1.1-1v-.4c-.7-.7-1.3-1.2-2.2-.6zm7.8-10.7c-.1.5-.3 1.3.6 1.1.6-.1.5-.7.2-1.2-.3 0-.6.1-.8.1zm31.7 6c-.9-.1-1.7.2-2.3 1-.3.5-.5 1.1-.7 1.6l.6 1.5c.2 1.4.9 1.7 2.1.9.3-.1.5-.2.8-.3-.1-.5.3-.5.6-.7.9-.5 1-1.4.8-2.3-.1-.9-.8-1.5-1.9-1.7zm-13.1 10.8c.7-.4.6-1.2.9-1.7-.1-.2-.1-.4-.2-.5-1-.7-2.1-1.1-3 .2-.4.5-.4 1.3.2 1.9.7.5 1.4.5 2.1.1zm4.2-18.1c.7-.4.4-1.1-.2-1.6-.4.1-.7.3-1.1.4.1.7.2 1.8 1.3 1.2zm33.9 14.6c.2.1.3.1.5.2.2-.3.4-.1.6-.1.7.1 1.1-.3 1.4-.8.3-.6.2-1.2-.3-1.7-.4-.5-1-.7-1.6-.5-.4.1-.7.4-1 .5-.1.3-.2.7-.3 1-.5.9-.3 1.3.7 1.4zm-7.8-3.3c-.2-.8-.6-1.5-1.6-1.2-.4.1-.8.5-.7 1 .1.6.4.9 1 1 .5.1.8-.3 1.2-.5 0-.1.1-.2.1-.3zm8.5-6.7c.5.1.7-.4.6-.9-.2-.1-.5-.2-.7-.2-.3.3-.7.9.1 1.1zm21.5 10.4l.3.3c.2-.1.3 0 .4.1.4.3.9.1 1.2-.1.4-.3.5-.8.4-1.3-.1-.5-.5-.8-.9-.8h-.9l-.6.6c-.5.5-.5.9.1 1.2zm-5-6.2c-.3-.1-.7.1-.8.5-.1.4 0 .7.3 1 .3.3.7 0 1 .1l.2-.2c.2-.7.1-1.2-.7-1.4zm8.9-.5c.3.2.6-.1.7-.5l-.4-.4c-.4.3-.8.5-.3.9zm13.2 8.4c.1.1.2.3.2.4.2-.1.3.1.4.3.4.4.9.4 1.3.2.5-.2.8-.7.8-1.2s-.3-.9-.8-1.1c-.3-.1-.6-.1-.9-.2-.3.2-.5.3-.8.5-.7.1-.8.5-.2 1.1zm-3.5-6.1c.1-.1.2-.1.3-.2.3-.6.4-1.3-.4-1.6-.3-.1-.7-.1-1 .3-.3.4-.2.8.1 1.2.3.4.7.2 1 .3zm10.2-.2c-.1-.2-.2-.4-.3-.5-.4.2-.9.3-.5.8.2.3.6 0 .8-.3zm-1 5.5v.5c.3.1.2.3.2.5.1.6.6.8 1.1.9.6.1 1.1-.2 1.4-.7.3-.5.3-1-.1-1.4-.2-.3-.5-.5-.8-.7h-1c-.6-.2-1 .1-.8.9zm.2-7.4h.3c.6-.4 1-.9.5-1.7-.2-.3-.6-.5-1.1-.3-.5.2-.6.6-.6 1.1.2.5.7.6.9.9zm9.4 5.3v-.7c-.4 0-1-.2-.9.5 0 .5.5.4.9.2zm-15.9-7.4c.1 0 .2-.1.3-.1.4-.6.6-1.3-.1-1.8-.3-.2-.8-.2-1.1.1-.4.4-.4.8-.1 1.2.3.5.7.4 1 .6zm10.8 1.6l-.3-.6c-.4.1-1 .2-.7.8.3.3.7.1 1-.2zM360 55c.6.2 1.2 0 1.6-.5.4-.5.5-1 .2-1.5-.2-.3-.4-.6-.7-.9-.3-.1-.7-.1-1-.2-.8-.3-1.2 0-1.2.9 0 .2-.1.3-.1.5.3.1.2.3.2.5 0 .7.4 1 1 1.2zm1.8-11.7c-.2-.4-.6-.6-1.1-.5-.5.2-.8.5-.8 1.1 0 .5.4.7.6 1.1.1 0 .2 0 .4.1.7-.4 1.3-.9.9-1.8zm7.7 9.1c0-.2.1-.5.1-.7-.4-.1-1-.4-1.1.3 0 .6.5.6 1 .4zm-16.1 37.5c1 .4 2 .2 2.7-.6.4-.5.7-1.1 1.1-1.6l-.3-1.8c.1-1.6-.7-2.1-2.1-1.5-.3.1-.6.1-.9.2 0 .5-.5.5-.8.6-1.1.4-1.4 1.3-1.4 2.3-.1 1.2.5 2 1.7 2.4zm16.9-9c-.9.2-.9 1.2-1.4 1.7 0 .2.1.4.1.6 1 1 2.1 1.7 3.3.5.5-.5.8-1.3.2-2.1-.5-.8-1.2-1-2.2-.7zm-8.7 19.2c-.9.3-.6 1.2-.1 1.8.4-.1.9-.2 1.3-.2 0-.8.2-2-1.2-1.6zm2.1 23.9c-.4.1-.7.2-1.1.3-1 .1-1.2.5-.7 1.4.1.2.1.4.2.5.3 0 .3.3.4.4.3.6.9.8 1.5.7.7-.1 1.1-.5 1.3-1.2.2-.6 0-1.2-.5-1.6-.4-.2-.8-.4-1.1-.5zm-3.5-8.8c-.3-.3-.8-.4-1.3 0s-.5.9-.3 1.4c.2.5.8.5 1.1.7.1 0 .3-.1.4-.1.6-.7.9-1.4.1-2zm11.4 4.4c-.5.1-1.2.1-.9.8.2.5.7.3 1.1-.1 0-.2-.1-.4-.2-.7zm-98.2 4.9c.1-.1.2-.3.3-.4-.2-.2 0-.3.1-.5.3-.6 0-1-.4-1.4-.4-.4-1-.5-1.5-.2-.5.2-.8.6-.8 1.2 0 .3.1.7.2 1 .3.2.5.4.8.5.5.7.9.6 1.3-.2zm-5.5 7.6c.5.1.8-.1 1.1-.6.2-.4-.1-.8-.1-1.1-.1-.1-.2-.1-.3-.2-.7 0-1.4.2-1.4 1.1 0 .4.2.7.7.8zm-2.9-10.8c.2-.4-.2-.7-.6-.7-.1.2-.3.4-.4.6.3.3.7.8 1 .1zm25-.9c-.1-.1-.2-.2-.3-.2-.2.1-.3 0-.4-.1-.4-.2-.7-.1-1 .2-.3.3-.4.7-.3 1.1.1.4.4.6.8.7.2 0 .5 0 .7-.1.2-.2.3-.4.5-.5.6-.5.5-.8 0-1.1zm4.5 5c.3 0 .6-.1.7-.4.1-.4 0-.6-.3-.8-.3-.2-.6 0-.8 0l-.2.2c-.1.4-.1.9.6 1zm-7.4.8c-.3-.2-.5.1-.6.4.1.1.3.2.4.3.2-.1.6-.4.2-.7zm29.7-9.3c-.1-.2-.1-.4-.2-.6-.3 0-.3-.3-.4-.5-.3-.7-1-.8-1.6-.7-.7.1-1.2.6-1.4 1.3-.2.7 0 1.3.6 1.7.3.2.7.4 1.1.6.4-.1.7-.2 1.1-.4 1.1 0 1.3-.5.8-1.4zm3.5 9.5c-.2-.5-.8-.5-1.2-.7-.1 0-.3.1-.4.1-.6.7-.9 1.5 0 2.1.4.3.9.4 1.3 0 .5-.5.5-1 .3-1.5zm-13.9-3.8c.1.3.2.5.3.8.5-.1 1.3-.1.9-.9-.3-.5-.8-.3-1.2.1zm29.1-5.4c.5 0 1-.1 1.5-.2l.9-1.2c1-.8.9-1.5-.3-2-.2-.1-.4-.3-.6-.4-.3.2-.5 0-.8-.2-.8-.4-1.5-.1-2.1.4-.7.6-.8 1.4-.5 2.3.5.8 1.1 1.3 1.9 1.3zm-4.4 9.9c.3.2.6.4.8.6.5-.5 1.2-1 .3-1.5-.6-.3-1 .3-1.1.9zM48 31.8c.3 0 .3-.3.5-.4v-.2c-.2-.3-.5-.6-.9-.3-.2.1-.3.4-.1.6 0 .3.2.3.5.3zm3.4-5.7H51c0 .2-.1.6.3.5.2 0 .2-.3.1-.5zm2.3 13.3c0-.3-.2-.6-.6-.7-.3-.1-.6 0-.8.2-.1.1-.2.3-.3.5 0 .2.1.4.1.5 0 .5.2.6.7.4.1 0 .2 0 .3-.1 0-.2.1-.1.2-.2.3 0 .4-.3.4-.6zM48 41.7c.3-.1.3-.4.4-.5V41c-.3-.3-.7-.5-1-.1-.2.2-.2.4 0 .6.1.2.4.2.6.2zm2.5-6c.3-.1.2-.4 0-.6-.1 0-.3.1-.4.1 0 .3 0 .7.4.5zm5.3 26.8c.2-.1.4-.1.6-.2 0-.3.3-.3.5-.5.7-.4.8-1 .6-1.6-.1-.7-.6-1.2-1.3-1.3-.7-.1-1.3.1-1.7.6-.2.3-.4.8-.5 1.1.1.4.3.7.4 1.1 0 1.1.5 1.3 1.4.8zm-9.5 3.7c.6-.2.5-.8.7-1.2 0-.1-.1-.3-.1-.4-.7-.5-1.5-.9-2.2 0-.3.4-.3.9.1 1.3.5.6.9.6 1.5.3zm3.6-12.9c.5-.3.3-.8-.1-1.2-.3.1-.5.2-.8.3.1.5.1 1.3.9.9zm1.6 39.6c-.3-.4-.7-.5-1.2-.3-.3.1-.5.3-.8.4-.1.3-.2.5-.3.8-.4.6-.2 1 .5 1 .1 0 .3.1.4.1.1-.2.3-.1.5-.1.5.1.8-.2 1.1-.6.3-.5.2-.9-.2-1.3zm-8.7 0c.4.1.6-.3.9-.4 0-.1.1-.2.1-.3-.2-.6-.5-1.1-1.2-.9-.3.1-.6.4-.5.8 0 .5.3.7.7.8zm8-6.6c-.2-.1-.4-.1-.6-.2-.2.3-.5.8.1.9.5.1.6-.3.5-.7zm-1.3 33.3h.6c.1-.3.4-.2.6-.2.7-.1 1.1-.6 1.2-1.2.2-.7-.1-1.3-.7-1.7-.6-.4-1.2-.4-1.7-.1-.3.2-.6.5-.9.8 0 .4-.1.8-.1 1.1-.4 1.1 0 1.5 1 1.3zm-10.8-2.2c-.4.2-.7.7-.5 1.2.2.6.6.8 1.3.8.6 0 .7-.6 1.1-.8v-.4c-.4-.8-.9-1.4-1.9-.8zm8.6-9.4c-.1.5-.4 1.2.5 1.1.6 0 .6-.6.3-1.1h-.8zm-4.5 36.7c.3-.6.3-1.3-.2-1.8-.3-.3-.7-.6-1-.8-.4 0-.8.1-1.2.1-1-.1-1.4.3-1.1 1.3 0 .2 0 .4.1.6.3.1.3.3.3.6.2.7.8 1 1.4 1 .8.1 1.4-.3 1.7-1zm-4.9-11.6c.1.6.7.7 1 1h.4c.7-.6 1.2-1.3.5-2.1-.3-.4-.8-.6-1.3-.3s-.7.8-.6 1.4zm13.2 7c0-.3-.1-.6-.1-.9-.5 0-1.3-.2-1.1.7.2.6.8.5 1.2.2zm107.4-13.6c-.5-.3-1.1-.3-1.6 0-.3.2-.5.5-.8.8v1c-.2.9.1 1.2 1 1h.5c.1-.3.3-.2.5-.2.7-.1.9-.6 1-1.2.2-.5 0-1.1-.6-1.4zm-11.1 1.5c-.4.2-.6.7-.3 1.1.2.5.6.7 1.2.6.5 0 .6-.5.9-.8v-.4c-.5-.5-1-1-1.8-.5zm7-9c-.1.5-.3 1.1.5 1 .5-.1.5-.6.2-1h-.7zm17.1 10.3c.1 0 .2.1.3.1.1-.2.2-.1.4-.1.4 0 .7-.2.8-.6.2-.4.1-.8-.2-1.1-.3-.3-.6-.4-1-.2-.2.1-.4.3-.6.4-.1.2-.1.4-.2.7-.3.5-.1.8.5.8zm-5-1.7c-.2-.5-.4-.9-1-.7-.3.1-.4.3-.4.7.1.4.3.5.6.6.3.1.5-.3.7-.4.1 0 .1-.1.1-.2zm5-4.5c.3 0 .4-.3.3-.6-.2 0-.3-.1-.5-.1-.1.2-.3.6.2.7zm16.1 4.7c-.2.2-.3.4-.5.6-.5.5-.5.8.2 1.1.1.1.2.2.3.2.2-.1.3 0 .4.1.5.2.8 0 1.2-.3.4-.4.4-.8.2-1.3-.2-.4-.5-.7-1-.7-.3.1-.5.2-.8.3zm-5-2.4c0-.6-.1-1.2-.9-1.2-.3 0-.6.2-.7.6-.1.4.1.7.5.9.4.2.6-.1.9-.1.1 0 .1-.1.2-.2zm8.1-3.3c-.2-.1-.3-.2-.5-.3-.2.3-.7.6-.1.9.4.1.6-.2.6-.6zm19.1 8.2c-.4-.1-.8-.1-1.1-.2l-.9.6c-.9.4-.9.9-.2 1.5.1.1.2.3.3.4.3-.1.4.1.5.3.5.5 1.1.4 1.6.1.6-.3.9-.9.8-1.5 0-.6-.4-1-1-1.2zm-8.3-6.6c-.3.5-.2.9.2 1.4.4.4.8.2 1.2.3.1-.1.2-.2.3-.2.3-.8.3-1.5-.6-1.9-.3-.2-.8-.1-1.1.4zm12.5.9c.4.4.8 0 1-.4-.2-.2-.3-.4-.5-.6-.4.2-1.1.4-.5 1zm23.4 3.2c-.3-.2-.6-.3-1-.5-.3.1-.6.2-1 .3-.9.1-1.1.5-.6 1.3.1.2.1.3.2.5.3 0 .3.2.4.4.3.6.8.7 1.4.6.6-.1 1-.5 1.2-1.1 0-.6-.1-1.1-.6-1.5zm-4.2-8.3c-.3-.3-.8-.3-1.1 0-.4.4-.4.8-.2 1.3s.7.4 1 .6c.1 0 .2-.1.3-.1.5-.6.8-1.2 0-1.8zm11.9-100.3c0 .4-.1.7.5.7s.4-.2.5-.8c.1-.3.1-.6.1-1-1-.1-1.3.2-1.1 1.1zm-186.5 0c0 .4-.1.7.5.7s.4-.2.5-.8c.1-.3.1-.6.1-1-.9-.1-1.2.2-1.1 1.1zm56.3-2.9c.6 0 .4-.2.5-.8.1-.3.1-.6.1-1-.9-.2-1.3.1-1.1 1 0 .4-.1.8.5.8zM58.4 5.5c.6 0 .4-.2.5-.8.1-.3.1-.6.1-1-.9-.2-1.3.1-1.1 1 0 .4-.1.8.5.8zm155 21.3c.6 0 .4-.2.5-.8.1-.3.1-.6.1-1-.9-.2-1.3.1-1.1 1 0 .4 0 .8.5.8zm-1.7-4.9c.6 0 .4-.2.5-.8.1-.3.1-.6.1-1-.9-.2-1.3.1-1.1 1 0 .4 0 .8.5.8zm-85.9-6c0 .4-.1.7.5.7s.4-.2.5-.8c.1-.3.1-.6.1-1-.9-.2-1.3.2-1.1 1.1zm130.4 1.4c.1-.3.1-.6.1-1-.9-.2-1.3.1-1.1 1 0 .4-.1.7.5.7.6.1.4-.1.5-.7zm-12.1 26.9c0 .4-.1.7.5.7s.4-.2.5-.8c.1-.3.1-.6.1-1-.9-.2-1.2.1-1.1 1.1zm60.4-3.2c.6 0 .4-.2.5-.8.1-.3.1-.6.1-1-.9-.2-1.3.1-1.1 1 0 .5-.1.8.5.8zm51.9-9.9c0 .4-.1.7.5.7.2 0 .3 0 .4-.1.3.5.8.5 1.3.4.6-.1.9-.6 1-1.2.1-.6-.1-1-.6-1.3-.3-.2-.6-.3-1-.4-.3.1-.6.2-.9.4-.6.1-.9.4-.8.8.1.2.1.4.1.7zm21.2 16.1c-.9-.2-1.3.1-1.1 1 0 .4-.1.7.5.7s.4-.2.5-.8c.1-.2.1-.6.1-.9zm-325-17.4c-.1 0-.1.1-.2.1l-.4.4v.5c-.1.5.1.6.6.5h.3c0-.1.2-.1.3-.1.3-.1.5-.3.5-.6 0-.2 0-.3-.1-.4v-.3c.1-.3.1-.6.1-1-.9-.2-1.2.1-1.1.9zm-4.9 64c.6 0 .4-.2.5-.8.1-.3.1-.6.1-1-.9-.2-1.3.1-1.1 1 0 .4-.1.8.5.8zm3.4 6.3c.6 0 .4-.2.5-.8.1-.3.1-.6.1-1-.9-.2-1.3.1-1.1 1 0 .4 0 .8.5.8zM160.3 142c-.3-.1-.6-.1-1-.1-.2.9.1 1.3 1 1.1.4 0 .7.1.7-.5s-.1-.4-.7-.5zm27.3-25.1c.4 0 .7.1.7-.5s-.2-.4-.8-.5c-.3-.1-.6-.1-1-.1-.2.9.1 1.3 1.1 1.1zm36.2 14.7c0-.6-.2-.4-.8-.5-.3-.1-.6-.1-1-.1-.2.9.1 1.3 1 1.1.4 0 .8.1.8-.5zm1.3 17.8c-.3-.1-.6-.1-1-.1-.2.9.1 1.3 1 1.1.4 0 .7.1.7-.5.2-.6-.1-.4-.7-.5zm79.4-39c-.3 0-.6 0-1 .1-.1.9.3 1.2 1.2.9.3 0 .7 0 .7-.6-.1-.6-.3-.4-.9-.4zm-14.7-1.1c-.3 0-.6 0-1 .1-.1.9.3 1.2 1.2.9.3 0 .7 0 .7-.6s-.3-.4-.9-.4zm31.7 61.3c-.3 0-.6 0-1 .1-.1.9.3 1.2 1.2.9.3 0 .7 0 .7-.6-.1-.6-.3-.4-.9-.4zm-44.7-17.5c-.3 0-.6 0-1 .1-.1.9.3 1.2 1.2.9.3 0 .7 0 .7-.6s-.2-.4-.9-.4zm-22.8-19c-.3 0-.6 0-1 .1-.1.9.3 1.2 1.2.9.3 0 .7 0 .7-.6-.1-.6-.3-.4-.9-.4zm66.2-22c.6 0 .4-.2.5-.8.1-.3.1-.6.1-1-.9-.2-1.3.1-1.1 1 0 .4-.1.8.5.8zM331.1 87c.6 0 .4-.2.5-.8.1-.3.1-.6.1-1-.9-.2-1.3.1-1.1 1 0 .4-.1.8.5.8zm-68.9-54.2c-.1-.6-.2-1.4-.4-1.6-.3-.2-1.3.3-1.5.5-.1.3.2 1 .4 1.6.1.8 2 .1 1.5-.5zm-111.8-31c.5.4 1.2-1.1.5-1.1-.3-.3-.9-.7-1.1-.6-.3 0-.6.9-.5 1.1.1.1.7.3 1.1.6zm-.2 2.7c-.2.1-.2 1 0 1.2.2.2.8.2 1.2.2.6.2.7-1.4.1-1.2-.4-.1-1.1-.3-1.3-.2zM78.8 7.6c-.1-.6-.2-1.4-.5-1.7-.3-.2-1.4.3-1.5.6s.3 1.1.5 1.7c.1.9 2.1.1 1.5-.6zM30.4 38.5c-.2-.6-.4-1.6-.7-1.8-.3-.2-1.5.5-1.6.8-.1.4.4 1.2.7 1.8.1.9 2.3-.2 1.6-.8zm9.4 60.1c-.1.9 2.2.7 1.8-.1.1-.6.2-1.6 0-1.9-.2-.3-1.5-.1-1.8.2-.2.2 0 1.1 0 1.8zM.6 118.9c-.3.2-.4.9-.6 1.5-.4.7 1.5 1.2 1.4.4.2-.5.6-1.2.6-1.5 0-.3-1.1-.6-1.4-.4zM31.7 147c-.2-.3-1.2-.1-1.3.1-.2.2-.1.9 0 1.4-.1.7 1.7.5 1.4-.1 0-.4.1-1.1-.1-1.4zM202 158.8c-.3.1-.6.2-.7.4s.3.6.4.6c.2 0 .5-.2.7-.3.4-.2-.1-1-.4-.7zm21.6-6.8c-.2.3-.4.6-.4.8 0 .2.6.4.8.3s.3-.5.4-.8c.2-.4-.8-.8-.8-.3zM328 121.9c.4.2.6-1 .2-.9-.3-.1-.7-.3-.9-.2s-.3.7-.1.9.4.1.8.2zm-56.1-13.3c.1 0 .4-.1.6-.2.3-.1 0-.7-.2-.5-.2.1-.5.1-.6.2-.1.1.1.5.2.5zm94.2-13.2c-.1-.2-.9-.1-1.1.1-.1.2-.1.7-.1 1.1-.1.5 1.3.5 1.1-.1.1-.3.2-.9.1-1.1zm-15.4-25.3c0-.5.1-1.3-.1-1.5-.2-.3-1.3 0-1.4.3-.2.2 0 1 .1 1.5-.1.6 1.8.3 1.4-.3zm-52.2-5.8c-.2-.6-.5-1.5-.8-1.7-.3-.2-1.4.5-1.5.9-.1.3.4 1.1.7 1.7.4.8 2.3-.4 1.6-.9zm-36.4-29.5c-.3-.2-1.4.3-1.5.6-.1.3.2 1 .5 1.6.2.8 2.1 0 1.5-.6-.1-.5-.3-1.3-.5-1.6zM155 42.5c.2-.2.3-.9.4-1.4.2-.7-1.5-.9-1.4-.2-.2.5-.4 1.2-.3 1.4s1.1.4 1.3.2zm-43.4 84.2c-.1-.9-.7-1.3-1.5-1.5-.9-.2-1.6.1-2.1.8-.5.7-.6 1.4-.2 2.1.3.4.7.8 1 1.2.5 0 .9.1 1.4.1 1.2.4 1.7 0 1.6-1.3 0-.2 0-.5.1-.7-.4-.1-.3-.4-.3-.7zm-1.4 12.4h-.5c-1 .5-1.7 1.2-1.1 2.4.3.5.8.8 1.5.6.7-.3 1-.8 1-1.5.1-.8-.6-1-.9-1.5zm-12.8-9.5c0 .3-.1.7-.1 1 .6.1 1.5.5 1.4-.6 0-.7-.7-.7-1.3-.4zM95 108.8c-.6-.4-1.2-.5-1.9-.1-.4.2-.7.6-1 .9 0 .4-.1.8-.1 1.2-.3 1 0 1.5 1.1 1.3.2 0 .4 0 .6.1.1-.3.4-.2.6-.2.8 0 1.2-.6 1.3-1.3.3-.8 0-1.5-.6-1.9zm-13.4.5c-.4.2-.7.7-.5 1.3.2.6.7.9 1.3.9.6 0 .8-.6 1.2-.8v-.4c-.4-.9-1-1.5-2-1zm10.3-9.7c-.3 0-.6-.1-.9-.1-.1.5-.4 1.3.5 1.2.6 0 .6-.6.4-1.1zM68 89.9c.7-.1 1.2-.6 1.4-1.3.2-.7 0-1.3-.6-1.7-.3-.3-.8-.4-1.1-.6-.4.1-.8.2-1.2.4-1.1.1-1.3.6-.8 1.5.1.2.1.4.2.6.3 0 .3.3.4.5.4.5 1 .7 1.7.6zm8.3-8.5c-.5.1-1.3.1-.9.9.3.6.8.3 1.2-.1-.1-.2-.2-.5-.3-.8zm32.1 71.3c.3-.2.6-.4.3-.9-.4-.4-.4-.2-1 .1-.3.1-.6.3-.8.5.4.9.9 1 1.5.3zm-7.7-9.7c-.3.1-.6.3-.8.5.4.8.9.9 1.5.2.3-.2.6-.4.3-.9-.4-.4-.5-.1-1 .2zm-27.1-9c0 .4 0 1.1.2 1.3.2.2 1-.1 1.2-.3.1-.2-.1-.8-.2-1.3 0-.7-1.6-.2-1.2.3zm2.8-3c.2.4.4 1 .7 1.1s.9-.5.9-.7c0-.2-.4-.7-.6-1.1-.3-.5-1.5.4-1 .7zm26.9-26.8c-.3-.1-.8.4-1.3.6-.7.2.3 1.8.7 1.2.5-.2 1.2-.4 1.3-.7.2-.2-.4-1-.7-1.1z"></path><path d="M38.3 136.4c4.8-.3 9.7-1.3 14.5-1.6s9.6-.4 14.4-.7 9.6-.5 14.4-.8l14.4-.9c4.8-.3 9.6-.9 14.4-1.2 4.8-.3 9.6-1 14.4-1.3 4.8-.3 9.6-1.1 14.4-1.4s9.6 0 14.4-.2 9.6-.6 14.4-.8 9.7.6 14.5.3c4.8-.3 9.5-2.3 14.3-2.6 4.8-.3 9.7 1.1 14.5.8s9.5-1.7 14.3-2l14.4-.9c4.8-.3 9.6-.2 14.4-.5 4.8-.3 9.6-.4 14.4-.7 4.8-.3 9.6-1.2 14.4-1.5 4.8-.3 9.6-.8 14.4-1.1 4.8-.3 9.7.4 14.5.1 4.8-.3 9.6-.9 14.4-1.2 4.8-.3 9.6.1 14.4-.2 4.8-.3 9.1-1.9 13.9-2.2-.1-5-.6-9.6-.7-14.6-.1-5 1.7-10.1 1.7-15.1s-2-10-2.1-15 1.6-10.1 1.6-15.1c-.1-5-1.9-10-1.9-15-.1-5 .9-10.2.8-15.2-4.8 0-9.7.7-14.5.7-4.8 0-9.6.2-14.4.2h-14.4c-4.8 0-9.6-1.2-14.4-1.2-4.8 0-9.6.4-14.4.4-4.8 0-9.6-.7-14.4-.7-4.8 0-9.6.5-14.4.5-4.8 0-9.6.1-14.4.1-4.8 0-9.6-.4-14.4-.4-4.8 0-9.6.9-14.4.9-4.8 0-9.6.2-14.4.2-4.8 0-9.6-.5-14.4-.5-4.8 0-9.6-.6-14.4-.6-4.8 0-9.6-.6-14.4-.6-4.8 0-9.6.8-14.4.8-4.8 0-9.6-.4-14.4-.4-4.8 0-9.6 1.1-14.4 1.1-4.8 0-9.6-1.3-14.4-1.3-4.8 0-9.6-.2-14.4-.3-4.8 0-9.6 1.4-14.4 1.4-4.8 0-9.6.1-14.4.1-3.6 0-7.9-1.5-10.9.5-4.4 3.4-4.8 10.7-4.8 16.4 0 5-.4 10.1-.5 15.1s.4 10.1.3 15.1.8 10.1.8 15.1-1.5 10.1-1.6 15.1c0 5 1.1 10.1 1 15.2 0 5-1.4 10.2-1.4 15.3.3 1.9 2.1 2.1 3.7 2.4z"></path><path d="M41.2 136.6h.6c12.6-.7 28.7-1 44.3-1.3 15.6-.3 31.7-.6 44.3-1.3v-.6c20.4-1.4 43.5-3.1 66.7-4.8 1.8.1 3.6.2 5.3.1 2.5-.2 5-.6 7.4-1h.3c.8-.1 1.5-.1 2.3-.2 14.7-1.1 29.3-2.1 43-3.1 1.7 0 3.5-.1 5.2-.2 1-.1 2-.2 3-.4 40.2-2.9 72-5 78.3-5h2.9c5.8 0 8.9.1 10.8-1.8 1.8-1.8 2.1-5.2 2.1-11.3 0-6.1-.1-17-.3-29.5-.2-15.4-.4-32.8-.4-44.8 0-1.6-.5-2.8-1.5-3.8-1.5-1.4-3.8-1.9-6.3-2-2.4-.4-5.6-.4-9.7-.4h-16.1c-2.5 0-5-.1-7.4-.2-2.3-.1-4.6-.1-6.9-.2-2.3 0-4.7.1-7.1.2-2.4.1-4.9.3-7.3.2-2.4 0-4.8-.2-7.1-.4s-4.8-.4-7.2-.5c-2.4 0-4.8.3-7.2.6-1 .1-2.1.3-3.1.4-2.9 0-5.7 0-8.6-.1-.9-.1-1.7-.1-2.5-.2-2.3-.2-4.8-.4-7.2-.5-2.4 0-4.8-.2-7.2-.4-2.3-.2-4.8-.3-7.2-.4-2.4-.1-4.9.2-7.2.4s-4.8.5-7.1.4c-2.4-.1-4.8-.1-7.2-.1-2.4 0-4.8 0-7.1-.1-2.4 0-4.8-.3-7.1-.5-2.4-.2-4.8-.5-7.2-.5-2.4 0-4.8-.2-7.1-.3-2.4-.1-4.8-.3-7.2-.3-2.4 0-4.9.1-7.3.2-2.3.1-4.7.2-7.1.2-2.4 0-4.8-.3-7.1-.5-2.4-.2-4.8-.4-7.2-.5-2.3 0-4.7-.1-6.9-.2-2.4-.1-4.9-.2-7.4-.2s-4.9.3-7.3.6c-2.3.3-4.7.6-7 .6-2.4 0-4.8-.3-7.1-.6-2.4-.3-4.8-.6-7.3-.6H94.1c-2.5 0-5 .4-7.4.7-2.3.3-4.7.7-7 .7-2.4 0-4.8-.4-7.1-.7-2.4-.4-4.8-.8-7.3-.7-2.5 0-5 .6-7.4 1-2.3.5-4.6 1-6.9 1-1.5 0-2.8 0-4 .1-1.6 0-2.9 0-4.1.1-4.5.2-7.6 1.2-9.4 3.1-1.7 1.9-1.7 4.1-1.6 5.9 1.6 17.8.3 39.7-.7 57.3-.4 5.9-.7 11.4-.9 16.2-.6 15 1 23.8 5 27.7 1.7 1.7 3.6 2.5 5.9 2.5zm-6.3-57.8v-5.3c.1-3.5.3-5.2.5-7 .2-1.6.4-3.3.5-6.5.1-3.5-.2-5.3-.5-7-.3-1.6-.6-3.3-.5-6.6v-3.8c0-3.3 0-4.6 1-9.7 1.2-6.1 2.5-7.4 7-7.8h1.7c6.7 0 66.1.4 134.9.8 26.9.2 55.2.3 82.5.5 1.5.1 2.9.2 4.4.2 1.3 0 2.6-.1 3.9-.2 25.2.1 49.3.3 70.2.4.9 0 2-.1 3.1-.1 1.8-.1 3.9-.2 5.9-.1 1.1.2 2 .5 2.8 1 2.3 1.5 3.3 5.7 3.3 13.6 0 1.9-.2 3.9-.3 6-.2 2.4-.4 4.8-.4 7.3 0 2.1-.1 4.2-.3 6.5-.1 2.2-.3 4.5-.3 6.8s.4 4.7.8 6.9.7 4.3.7 6.4c0 2.5-.2 5-.3 7.3-.1 2.1-.3 4.1-.3 6V99c0 3.1.1 3.7-.7 8.5-.9 5.9-1.7 7.2-6.7 7.2-.6 0-3.4.2-8.4.6l-6.3.5c-1.9.2-4 .3-6.2.4-2.5.1-5.4.3-8.4.5-2.2.2-4.4.7-6.7 1.3-2.5.6-5 1.3-7.7 1.5-2.2.2-4.5.2-6.9.2-2.5 0-5.1 0-7.7.2-2.3.2-4.6.2-7 .3-2.5 0-5 .1-7.6.3-2.3.2-4.7.7-7 1.2-1.4.3-2.8.6-4.2.8-2.8.2-5.7.4-8.7.6h-1.7c-2.4 0-4.9.1-7.4.2-2.4.2-4.9.3-7.2.4-2.4.1-4.9.2-7.3.4-2.3.2-4.7.4-7.1.7-2.4.3-5 .5-7.5.7-2.2.2-4.5.5-6.7.9-4.4.3-8.8.6-13.2 1-.6 0-1.2-.1-1.8-.1-2.4-.2-4.9-.4-7.4-.2-2.4.2-4.9.5-7.2.9-2.4.4-4.9.8-7.3.9-2.4.2-4.9.1-7.3 0-2.4-.1-4.9-.1-7.3 0-2.5.1-4.9.6-7.3 1.1-2.4.5-4.8.9-7.2 1.1-2.5.1-5 .1-7.4.1-2.4 0-4.8 0-7.2.1-2.4.1-4.9.4-7.3.7-2.4.3-4.9.6-7.3.7-2.5.1-5 0-7.5 0-2.3-.1-4.8-.2-7.1-.1-2.5.1-5 0-7.5-.1-2.3-.1-4.8-.2-7.1-.1-2.5.1-4.9.4-7.3.8-2.5.3-4.8.7-7.2.7-2.6.1-5.3 0-7.8 0-2.2 0-4.5-.1-6.8 0-2.5.1-5 .4-7.4.7-2.5.3-4.9.6-7.2.6-4.3-.3-4.9-.7-5.8-6.9-.4-2.6-.5-5.7-.5-8.9 0-1.5-.1-3.1-.1-4.8-.1-2-.4-4.1-.8-6.2-.4-2.5-.8-5-.8-7.5s.2-5 .4-7.5c.2-2.2.4-4.3.4-6.3.1-2.8.1-5.7.1-8.3zm321.4-31.9c.1 9.4.2 19.7.3 29.3v1.7c-.1-1.1-.3-2.2-.5-3.3-.4-2.2-.7-4.5-.7-6.8s.1-4.6.3-6.8c.1-2.2.3-4.4.3-6.5 0-2.5.2-4.9.4-7.3-.1-.1-.1-.2-.1-.3zm-74.2 74.6c-3.4.2-6.9.5-10.4.7 1.1-.2 2.2-.4 3.3-.4 2.5-.2 4.8-.3 7.1-.3zm-93 6.7c-1.2.1-2.5.2-3.7.3.8-.1 1.6-.2 2.3-.2.5-.1 1-.1 1.4-.1zm-25.9 1.9c-3 .2-6 .4-8.9.6 1.5-.3 2.9-.5 4.4-.6 1.4-.1 3-.1 4.5 0zM86 134.3c-2.5 0-5.1.1-7.6.1h.1c2.4-.3 4.8-.7 7.2-.8 2.3-.1 4.7 0 7 .1 2.5.1 5 .2 7.6.1 1.2-.1 2.5-.1 3.8 0-5.9.2-12 .3-18.1.5zm269-18c-1.6 1.6-4.6 1.5-10.1 1.5H342c-3.5 0-14.7.7-30.8 1.7.3-.1.7-.2 1-.3 2.3-.6 4.4-1.1 6.5-1.3 3-.2 5.7-.4 8.4-.5 2.2-.1 4.3-.2 6.2-.4l6.3-.5c4.6-.4 7.7-.6 8.3-.6 5.9 0 6.8-2.1 7.7-8.1.8-4.9.8-5.5.7-8.7v-4.6c0-1.8.1-3.8.3-5.9.1-1 .1-2 .2-3.1.1 8.5.2 15.6.2 20.2-.2 5.7-.5 9.1-2 10.6zm1.2-85v3.1c-.4-3.5-1.3-5.7-2.7-7 .6.2 1.1.6 1.5.9.8.8 1.2 1.8 1.2 3zm-112.5-6.1c-3.7 0-7.4 0-11-.1 1.6-.2 3.3-.3 4.9-.2 2 .1 4.1.2 6.1.3zM87 23.6c2.4-.4 4.8-.7 7.2-.7h14.4c2.4 0 4.8.3 7.1.6 2.4.3 4.8.6 7.2.6 2.4 0 4.8-.3 7.2-.6 2.4-.3 4.8-.6 7.2-.6 2.5 0 5 .1 7.4.2 2.3.1 4.6.2 7 .2 2.4 0 4.8.3 7.2.5 2.3.2 4.8.4 7.2.5 2.4 0 4.8-.1 7.1-.2 2.4-.1 4.8-.2 7.2-.2 2.4 0 4.8.2 7.2.3 2.3.1 4.7.3 7.1.3 1.9 0 3.9.2 5.8.4-7.1 0-14.1-.1-21-.1-37.9-.2-72.9-.4-97.8-.6 1.7-.1 3.5-.3 5.3-.6zm-28.7.3c2.4-.5 4.8-1 7.2-1 2.3 0 4.8.3 7.1.7 1.6.3 3.3.5 5 .6-8.1 0-14.9-.1-20.3-.1.4 0 .7-.1 1-.2zm-23.8 4c.7-.8 1.7-1.4 2.9-1.8-1.2 1.3-1.9 3.3-2.5 6.6-1 5.2-1 6.4-1 9.9v3c-.1-4.3-.3-8.5-.7-12.5-.2-1.6-.2-3.6 1.3-5.2zm-3 78.8c.2-4.8.5-10.3.9-16.2.7-12.4 1.6-26.9 1.5-40.6.1 1.3.3 2.3.4 3.2.3 1.7.6 3.4.5 6.8-.1 3.2-.3 4.9-.5 6.5-.2 1.8-.4 3.5-.5 7.1v13.8c0 2-.2 4.1-.4 6.3-.2 2.5-.4 5-.4 7.6 0 2.6.4 5.2.8 7.7.3 2.1.7 4.1.8 6.1.1 1.6.1 3.2.1 4.7.1 3.3.1 6.4.5 9.1.4 2.5.8 4.2 1.4 5.3-.1-.1-.3-.2-.4-.4-3.7-3.7-5.2-12.5-4.7-27zm322.1 122.7c-1.1-.2-2.1-.2-2.4 1.2-.1.6.1 1.2.8 1.5.7.3 1.3.1 1.8-.5s.1-1.2.2-1.7c-.2-.3-.3-.4-.4-.5zm4.3 9.9c0-.3 0-.5-.1-.8-.4-.1-.4-.4-.4-.7-.1-.3-.2-.6-.4-.8v-.5c-.3-.1-.6-.1-.8 0-.2-.1-.4-.1-.7-.1-1-.1-1.7.4-2.2 1.3-.4.8-.4 1.6.2 2.3.4.4.9.7 1.3 1.1.5 0 1-.1 1.6-.1 1.4.2 1.9-.4 1.5-1.7zm1.7 13.5c-.1-.8-.9-.9-1.3-1.3h-.6c-.9.8-1.6 1.6-.7 2.8.4.5 1.1.8 1.8.4.7-.5.9-1.1.8-1.9zm-15.6-9c-.2-.8-.9-.6-1.5-.2 0 .4.1.7.1 1.1.7 0 1.6.3 1.4-.9zm10.3 23.5c0-.2-.1-.4-.1-.6-.3 0-.3-.3-.4-.5-.2-.7-.8-.9-1.4-.9-.7 0-1.2.4-1.5 1.1-.2.6-.2 1.2.3 1.7.3.3.7.5 1 .7.4-.1.8-.1 1.1-.2 1 .1 1.4-.3 1-1.3zm.9 8.9c-.1 0-.3 0-.4.1-.6.6-1.1 1.3-.4 2.1.3.3.8.5 1.3.2s.6-.8.5-1.4c-.1-.7-.7-.7-1-1zm-12-4.9c0 .3.1.5.1.8.5 0 1.2.1 1-.7-.1-.6-.6-.4-1.1-.1zm5.5 18.4c-.2 0-.3-.2-.3-.3-.3-.5-.7-.5-1.2-.4-.5.1-.8.5-.9 1-.1.5.1.9.5 1.1.3.2.6.2.8.3.3-.1.5-.2.8-.3.7-.1.9-.5.4-1.1 0-.1 0-.2-.1-.3zm2.5 6.4c-.1 0-.2.1-.3.1-.3.5-.5 1.1.1 1.5.3.2.7.2.9-.1.3-.3.3-.7.1-1.1-.2-.3-.6-.2-.8-.4zm-9.3-1.3c.1.2.2.4.2.5.4-.1.9-.1.6-.7-.2-.3-.6-.1-.8.2zm2.4 21.4c-.1-.2-.3-.3-.4-.5-.3.1-.4-.1-.6-.3-.6-.5-1.2-.4-1.8 0-.7.4-.9 1-.8 1.8.1.7.5 1.2 1.2 1.4.4.1.9.1 1.3.1.3-.3.6-.5.9-.8 1-.4 1-1 .2-1.7zm5.6 7.6l-.3.3c-.3.9-.3 1.7.8 2.1.5.1 1 0 1.3-.5.3-.6.2-1.1-.3-1.5-.5-.6-1.1-.3-1.5-.4zm-12.4 1.4c-.4-.4-.9 0-1.1.5.2.2.4.4.5.7.5-.3 1.3-.6.6-1.2zm1.8 14.8c.3-.1.5-.4.7-.5 0-.3.1-.6.1-.8.3-.7 0-1-.7-.9-.1 0-.3 0-.4-.1-.1.2-.3.1-.4.1-.5 0-.8.4-.9.8-.2.5 0 .9.4 1.3.4.3.8.3 1.2.1zm8.2-1c-.1-.4-.4-.6-.9-.6-.4 0-.6.4-.8.5v.3c.3.6.7 1 1.4.7.2-.1.5-.5.3-.9zm-7.3 6.4c-.4 0-.4.4-.3.8.2 0 .4.1.6.1.1-.4.3-.9-.3-.9zm-.5 5c-.1 0-.2.1-.4.1 0 .2-.2.2-.3.3-.4.2-.5.7-.4 1.1.1.5.4.8.9.9.4.1.8 0 1.1-.4.2-.2.2-.5.3-.8-.1-.2-.2-.5-.3-.7 0-.7-.3-.9-.9-.5zm6.2-2.6c-.4.2-.3.5-.5.8 0 .1.1.2.1.3.5.3 1 .6 1.4 0 .2-.3.2-.6-.1-.9-.2-.3-.5-.3-.9-.2zm-1.6 9.1c-.1-.3-.1-.8-.6-.6-.3.2-.2.5.1.8.1 0 .3-.1.5-.2zm-5.1-3.2c-.1.1-.2.1-.4.2 0 .2-.2.2-.3.3-.4.3-.5.7-.4 1.1.1.5.5.8 1 .8.5.1.9-.1 1.1-.5.1-.2.2-.5.3-.8-.1-.2-.2-.5-.3-.7-.1-.6-.5-.8-1-.4zm6.2-3c-.4.2-.3.6-.4.9 0 .1.1.2.1.3.5.3 1.1.5 1.5-.1.2-.3.2-.6-.1-.9-.3-.4-.7-.4-1.1-.2zm-1.7 9c-.3.2-.2.6.1.8.2-.1.4-.2.5-.2 0-.4-.1-.9-.6-.6zM23.1 342.3l-1.2-.3c-1-.5-1.5-.2-1.5.9 0 .2-.1.4-.1.6.3.2.2.4.2.7-.1.8.5 1.3 1.1 1.5.7.3 1.4.1 2-.5.5-.5.7-1.2.4-1.9-.4-.2-.7-.6-.9-1zm.3-11.3c-.7.1-1 .6-1.1 1.2-.1.6.5.9.7 1.3.1 0 .3.1.4.1.9-.4 1.6-.9 1.2-2-.1-.4-.6-.7-1.2-.6zm8.7 11.9c-.1.6.6.7 1.1.6.1-.3.1-.6.2-.9-.6-.2-1.2-.6-1.3.3zm20.7 1.5c-.4 0-.7-.1-1.1-.1-.9-.3-1.3 0-1.2 1 0 .2 0 .4-.1.5.3.1.2.3.2.6 0 .7.5 1 1.1 1.2.7.2 1.2 0 1.7-.6.4-.5.5-1.1.1-1.6-.2-.4-.5-.7-.7-1zm-.9-9.8c-.6.2-.8.6-.8 1.2s.5.7.7 1.1h.4c.7-.4 1.3-.9.8-1.8-.1-.4-.5-.6-1.1-.5zm8.7 9.4c0 .5.6.6 1 .4 0-.3.1-.5.1-.8-.5-.2-1.2-.4-1.1.4zm19.5-.3c-.3-.1-.5-.1-.8-.2-.7-.3-1-.1-1 .6 0 .1-.1.3-.1.4.2.1.1.3.1.5-.1.5.3.8.7 1 .5.2.9.1 1.3-.3.3-.4.5-.8.3-1.2-.1-.3-.3-.6-.5-.8zm.4-7.6c-.5.1-.7.4-.7.8-.1.4.3.6.4.9.1 0 .2 0 .3.1.6-.2 1.1-.6.8-1.3-.1-.3-.4-.6-.8-.5zm5.6 8.1c-.1.4.4.5.7.4 0-.2.1-.4.1-.6-.2-.2-.7-.5-.8.2zm30.7-3.1c-.6-.3-1.2-.3-1.8.1-.3.2-.6.6-.9.9v1.2c-.2 1 .2 1.4 1.2 1.2h.6c.1-.3.4-.2.6-.3.7-.1 1-.7 1.1-1.3.2-.9-.1-1.5-.8-1.8zm-12.6 1.9c-.4.3-.6.8-.4 1.3.3.6.7.8 1.4.7.6-.1.7-.6 1.1-.9v-.4c-.6-.8-1.2-1.4-2.1-.7zm7.9-10.4c-.1.5-.3 1.3.6 1.1.6-.1.5-.7.3-1.1h-.9zM152 339c-.8-.1-1.5.2-2 .9-.3.4-.4 1-.6 1.4.2.4.4.9.6 1.3.2 1.2.8 1.5 1.9.8.2-.1.4-.2.7-.3 0-.4.3-.4.5-.6.8-.5.9-1.3.7-2-.3-.8-.9-1.4-1.8-1.5zm-13.6 7.9c-.3.4-.3.9-.1 1.3-.6 0-.8.3-.7 1.1 0 .4-.1.7.5.7s.4-.2.5-.8c.1-.2.1-.4.1-.6.5.4 1.1.4 1.7.1.7-.3.5-1 .8-1.5-.1-.2-.1-.3-.2-.5-.9-.6-1.8-1-2.6.2zm5.3-15.8c-.3.1-.6.3-1 .4.2.6.2 1.6 1.2 1 .7-.3.4-1-.2-1.4zm46.1 13c0-.3.3-.4.5-.5.7-.4.8-1 .6-1.7-.2-.7-.7-1.2-1.4-1.3-.7-.1-1.3.1-1.7.7-.2.4-.4.8-.5 1.2.1.4.3.8.4 1.1.2 1.1.7 1.3 1.6.7.1 0 .3-.1.5-.2zm-12 2.9c-.3.4-.3 1 .1 1.4.5.5 1 .5 1.6.2.6-.3.4-.9.7-1.3-.1-.1-.1-.3-.2-.4-.7-.5-1.5-.9-2.2.1zm4.8-13.2c-.3.1-.5.2-.8.3.1.5.2 1.3 1 .9.5-.3.2-.8-.2-1.2zm30 8.4c-.6-.2-1.1-.1-1.5.3l-.6.9c.1.3.1.7.2 1 0 .9.3 1.2 1.2.8.2 0 .3-.1.5-.1 0-.3.3-.3.4-.3.6-.2.8-.7.8-1.3-.1-.6-.4-1-1-1.3zm-10.4 3.2c-.3.3-.4.7-.1 1.1.3.5.7.6 1.2.4.5-.1.5-.6.8-.9 0-.1 0-.2-.1-.4-.5-.4-1.1-.8-1.8-.2zm5.3-9.7c0 .4-.1 1.1.6.9.5-.1.4-.6.1-1-.2 0-.4.1-.7.1zm34.7 9.2c-.3.1-.6.3-.8.5-.1.3-.2.6-.2.9-.4.7-.1 1.1.7 1.1.1 0 .3.1.4.1.1-.2.3-.1.5-.1.6.1.9-.3 1.1-.8.2-.5.1-1-.3-1.4-.4-.3-.9-.5-1.4-.3zm-8.4-.8c-.3.1-.6.4-.5.9.1.5.4.7.9.8.5.1.6-.3 1-.5 0-.1.1-.2.1-.3-.3-.7-.7-1.2-1.5-.9zm8.2-5.1c.5.1.5-.4.4-.8-.2-.1-.4-.1-.6-.2-.2.4-.5.9.2 1zm41.1 3.9c-.9-.4-1.8-.3-2.5.3-.4.4-.8.9-1.1 1.4.1.6.1 1.1.2 1.7-.2 1.5.4 2 1.8 1.5.3 0 .6-.1.8-.1.1-.5.5-.4.8-.5 1-.3 1.4-1.1 1.4-2 .1-1-.4-1.8-1.4-2.3zm-17.7 4.2c-.5.4-.8 1.2-.4 1.9.5.8 1.1 1 2 .8.8-.2.9-1 1.4-1.4 0-.2 0-.4-.1-.6-.7-1-1.7-1.7-2.9-.7zm10-15.6c0 .7-.3 1.8 1 1.5.8-.2.7-1 .2-1.6-.4 0-.8.1-1.2.1zm25.9 10c-.2-.3 0-.4.1-.7.3-.7 0-1.3-.5-1.7-.6-.5-1.3-.6-2-.2-.6.3-1 .9-.9 1.6 0 .4.2.9.3 1.3.3.2.7.4 1 .7.8.8 1.3.6 1.7-.4l.3-.6zm-6.1 8.1c-.9 0-1.8.3-1.7 1.4 0 .5.3 1 .9 1 .7.1 1.1-.2 1.4-.8.3-.6-.2-1-.2-1.4-.2-.1-.3-.1-.4-.2zm-5.9-12.1c-.2.2-.3.5-.5.7.4.4.9 1 1.3.1.4-.5-.2-.8-.8-.8zm28.2 2.3c-.2.1-.3-.1-.4-.3-.4-.5-.9-.4-1.3-.3-.5.2-.8.6-.8 1.2 0 .5.2 1 .7 1.2l.9.3c.3-.2.5-.3.8-.5.8-.2.9-.7.3-1.3 0-.1-.1-.2-.2-.3zm3.4 6.7c-.1.1-.2.1-.3.2-.3.6-.5 1.3.3 1.6.3.2.7.1 1-.2.3-.4.3-.8 0-1.2-.2-.4-.7-.2-1-.4zm-10.3-.3l.3.6c.4-.2 1-.3.6-.8-.3-.4-.7-.1-.9.2zm21.5-4.2c-.1-.1-.2-.1-.4-.2-.1.2-.3.1-.4 0-.5-.1-.8.2-1.1.5-.3.4-.2.9.1 1.3.3.4.7.5 1.1.4.3-.1.5-.2.8-.3.1-.2.2-.5.3-.7.5-.6.3-.9-.4-1zm6.7 3.9c.2 0 .4-.2.5-.4.3 0 .6-.1.8-.3.2-.2.3-.4.5-.7 0-.2-.1-.5-.1-.7 0-.7-.3-.9-.9-.6-.1 0-.2 0-.4.1 0 .2-.2.2-.3.2-.5.2-.6.5-.6.9-.2.1-.3.2-.5.2 0 .1-.1.2-.1.3.1.6.3 1.1 1.1 1zm-7.9 3.5c-.4-.1-.5.3-.5.6.2.1.4.1.5.2.3-.3.6-.7 0-.8zm15-7.6c-.4.1-.4.5-.6.7v.3c.4.4.8.7 1.4.2.2-.2.3-.5.1-.8-.2-.4-.5-.5-.9-.4zm-3.6 7.8c-.4.1-.3.5-.1.7.2 0 .4-.1.5-.1 0-.3.1-.8-.4-.6zm2.2-6.3c.1-.1.1-.3.1-.7.1-.3.1-.6.1-1-.9-.2-1.3.1-1.1 1v.3h-.1c-.1 0-.3.1-.4.1 0 .2-.2.2-.3.3-.5.2-.6.7-.5 1.1.1.5.4.9.9 1 .5.1.9 0 1.2-.4.2-.2.3-.5.4-.8-.1-.3-.2-.5-.2-.8-.1.1-.1 0-.1-.1zm5.9-2.6c-.4.2-.4.6-.6.8 0 .1.1.2.1.3.5.4 1 .7 1.5.1.2-.3.3-.6 0-1-.2-.3-.6-.4-1-.2zm-3.1 9.1c-.4.2-.2.6 0 .8.2-.1.4-.1.6-.2 0-.3 0-.8-.6-.6zM41.5 246.2c-.5.2-.3.7.1 1 .2-.1.5-.1.7-.2-.2-.5-.2-1.1-.8-.8zM38 275.9c.2.5.7.8 1.3.8.6 0 1-.3 1.2-.8.1-.3.1-.7.2-1-.2-.3-.4-.5-.5-.8v-.1c.5 0 .4-.2.5-.8.1-.3.1-.6.1-1-.9-.2-1.3.1-1.1 1v.2c-.2 0-.5.1-.8.4-.1.1-.3.2-.4.3.1.3-.1.3-.3.4-.5.4-.4 1-.2 1.4zm8.7-7.1c-.4-.3-.8-.2-1.2.1-.4.3-.2.7-.3 1.1.1.1.1.2.2.3.7.3 1.3.4 1.7-.5 0-.3 0-.8-.4-1zm-1 11.9c.2-.1.4-.3.6-.4-.2-.4-.4-1-.9-.5-.4.3-.1.7.3.9zm-6.3 24c.5.4 1.1.3 1.6 0s.7-.8.6-1.4c-.1-.4-.2-.7-.4-1-.3-.1-.6-.3-.9-.4-.7-.5-1.2-.4-1.3.5-.1.2-.1.3-.2.5.2.2.1.4 0 .6-.2.5.2.9.6 1.2zm4.1-11.2c-.6 0-.9.3-1.1.8-.2.5.2.8.3 1.2.1.1.2.1.3.2.8-.1 1.4-.4 1.3-1.3 0-.6-.3-.9-.8-.9zm5.5 11.4c.1-.2.2-.4.3-.7-.4-.2-.9-.7-1.1 0-.1.6.4.7.8.7zm-6.9 12.2l-1.2.3c-1.1 0-1.4.6-.9 1.5.1.2.1.4.2.6.3 0 .3.3.4.5.3.7 1 .9 1.6.8.8-.1 1.3-.5 1.5-1.3.2-.7 0-1.3-.5-1.8-.3-.3-.7-.4-1.1-.6zm-4-7.6c.1 0 .3-.1.4-.1.6-.7 1-1.5.2-2.3-.4-.3-.9-.4-1.4 0-.5.4-.6.9-.4 1.6.2.5.8.5 1.2.8zm13.3 3.9c-.1-.3-.2-.6-.2-.9-.5.1-1.3 0-1 .9.2.6.8.4 1.2 0zm-11.8 15c-.5.1-.9.3-1.4.4-1.3.1-1.6.7-1 1.8.1.2.1.5.2.7.4 0 .4.3.5.6.4.8 1.2 1 2 .9.9-.1 1.5-.7 1.7-1.6.2-.8 0-1.6-.7-2.1-.4-.2-.9-.4-1.3-.7zm-4.5-11.5c-.5-.4-1.1-.5-1.7 0-.6.5-.7 1.1-.4 1.8.3.7 1 .6 1.4.9.2 0 .3-.1.5-.1.8-.8 1.2-1.7.2-2.6zm13.8 7c.3.7 1 .4 1.4-.1-.1-.3-.2-.7-.3-1-.7.1-1.6.1-1.1 1.1zm-10.5 10.7c-.5 0-1 0-1.4.1-1.2-.2-1.7.3-1.4 1.5v.7c.4.1.3.4.4.7.2.9.9 1.2 1.7 1.3.9.1 1.6-.3 2-1.1.4-.7.4-1.5-.1-2.2-.4-.3-.9-.6-1.2-1zm-2.7-9.6h.5c.9-.6 1.5-1.4.8-2.5-.3-.5-.9-.7-1.6-.4-.7.3-.9.9-.8 1.7.1.7.8.8 1.1 1.2zm12.7 7.6c.1.7.8.6 1.4.3v-1c-.7-.1-1.6-.4-1.4.7zm-27.8-67c.1-.3.1-.6.1-1-.9-.2-1.3.1-1.1 1 0 .4-.1.7.5.7.5.1.4-.1.5-.7zm-4.7 58.2c0 .4-.1.7.5.7s.4-.2.5-.8c.1-.3.1-.6.1-1-.9-.1-1.3.2-1.1 1.1zm-2.6-23.7c0 .4-.1.7.5.7s.4-.2.5-.8c.1-.3.1-.6.1-1-.9-.2-1.2.2-1.1 1.1zm27.1 58.3c0 .4-.1.7.5.7s.4-.2.5-.8c.1-.3.1-.6.1-1-.9-.2-1.3.2-1.1 1.1zm35.9-17.5c0 .4-.1.7.5.7s.4-.2.5-.8c.1-.3.1-.6.1-1-.9-.2-1.3.2-1.1 1.1zm20.4-.8c0 .4-.1.7.5.7s.4-.2.5-.8c.1-.3.1-.6.1-1-.9-.2-1.2.1-1.1 1.1zm54-22.3c.6 0 .4-.2.5-.8.1-.3.1-.6.1-1-.9-.2-1.3.1-1.1 1-.1.4-.1.8.5.8zm46.8 12.5c0 .4-.1.7.5.7s.4-.2.5-.8c.1-.3.1-.6.1-1-.9-.2-1.2.2-1.1 1.1zm32.9 10.1c0 .4-.1.7.5.7s.4-.2.5-.8c.1-.3.1-.6.1-1-.9-.2-1.3.2-1.1 1.1zm25.6 14.5c0 .4-.1.7.5.7s.4-.2.5-.8c.1-.3.1-.6.1-1-.9-.2-1.3.2-1.1 1.1zm-93.8 13.4c0 .4-.1.7.5.7s.4-.2.5-.8c.1-.3.1-.6.1-1-.9-.1-1.3.2-1.1 1.1zm131.5-24.2c.1-.3.1-.6.1-1-.9-.2-1.3.1-1.1 1 0 .4-.1.7.5.7.6.1.4-.1.5-.7zm49.9 11c0 .4-.1.7.5.7s.4-.2.5-.8c.1-.3.1-.6.1-1-.9-.1-1.3.2-1.1 1.1zm-66.2-45.3c0 .4-.1.7.5.7s.4-.2.5-.8c.1-.3.1-.6.1-1-1-.1-1.3.2-1.1 1.1zm13.5-3.9c0 .4-.1.7.5.7s.4-.2.5-.8c.1-.3.1-.6.1-1-.9-.1-1.2.2-1.1 1.1zm52.7-18c.1-.3.1-.6.1-1-.9-.2-1.3.1-1.1 1 0 .4-.1.7.5.7s.4-.1.5-.7zm-298-40.6c0-.4-.1-1-.3-1.1-.2-.2-.9.1-1 .3-.1.2.1.7.2 1.1.2.6 1.5.2 1.1-.3zm-.4 52.6c-.3.2-.4 1-.6 1.6-.4.7 1.7 1.2 1.6.4.2-.5.6-1.3.6-1.6s-1.3-.6-1.6-.4zm24.3 48.4c-.2-.4-1.6-.4-1.8-.1s-.3 1.2-.4 1.9c-.3.9 2.1 1.1 1.9.2.1-.6.4-1.6.3-2zm103.2-35.2c0-.7.1-1.8-.1-2.1-.3-.4-1.7 0-1.9.3-.2.3 0 1.3.1 2.1-.1 1 2.4.6 1.9-.3zm1.3 30.6c-.2-.4-1.7-.3-2 0-.3.3-.2 1.3-.2 2.1-.2 1 2.4 1 2 0 .2-.6.4-1.7.2-2.1zm17 18.9c-.3-.3-1.8.4-1.9.8-.1.4.3 1.3.6 2.1.2 1.1 2.7.1 2-.8-.2-.7-.3-1.8-.7-2.1zM59.4 327.9c-.1-.4-1.5-.4-1.7-.1s-.3 1.1-.4 1.8c-.3.9 2 1.1 1.8.2.1-.7.4-1.6.3-1.9zM271 354.3c-.4-.3-1.9.4-2.1.8s.3 1.5.6 2.3c.2 1.1 2.9.1 2.1-.8-.1-.8-.2-1.9-.6-2.3zm31.3-4.1c-.2-.3-1.3.1-1.5.3-.2.3 0 1 .2 1.6 0 .8 2 .4 1.5-.3-.1-.5 0-1.3-.2-1.6zm57.4-6.7c-.1-.1-.6-.1-.7.1s0 .5 0 .8c-.1.4.9.3.7 0 0-.4.1-.8 0-.9zm-17.6-64.3c.3-.3.7-.7.7-1 0-.2-.7-.6-1-.5-.2.1-.5.6-.7.9-.3.4.9 1.1 1 .6zm30.2 52.9c-.1-.1-.6 0-.7.1-.1.1 0 .5.1.7 0 .4.9.2.7-.1 0-.2 0-.5-.1-.7zm-12.4-14.9c-.1-.1-.7.1-.7.2-.1.1 0 .5.1.8 0 .4 1 .2.8-.2-.1-.2-.1-.6-.2-.8zm10.6-65.4c-.2 0-.7.3-1 .5-.5.2.2 1.4.6.9.4-.1.9-.3 1-.5.1-.2-.4-.9-.6-.9zm-265.3-2.4c.5-.2.8-.6.8-1.2 0-.3-.1-.7-.2-1-.3-.2-.5-.4-.8-.5-.6-.6-1-.5-1.3.3-.1.1-.2.3-.3.4.2.2 0 .3-.1.5-.3.6 0 1 .4 1.4.4.3.9.4 1.5.1zm3.9-10.1c-.5-.1-.8.1-1.1.6-.2.4.1.8.1 1.1.1.1.2.1.3.2.7 0 1.4-.2 1.4-1.1 0-.4-.2-.7-.7-.8zm3.5 11.5c.1-.2.3-.4.4-.6-.3-.3-.7-.8-1-.1-.3.4.1.6.6.7zm-24.5-1.4c-.2 0-.5 0-.7.1-.2.2-.3.4-.5.5-.5.4-.5.7.1 1 .1.1.2.2.3.2.2-.1.3 0 .4.1.4.2.7.1 1-.2.3-.3.4-.7.3-1.1-.2-.3-.5-.6-.9-.6zm-5.6-3.4c-.3 0-.6.1-.7.4-.1.4 0 .6.3.8.3.2.6 0 .8 0l.2-.2c.1-.4.1-.9-.6-1zm7.4-.8c.3.2.5-.1.6-.4-.1-.1-.3-.2-.4-.3-.2.1-.6.4-.2.7zm-26.7 8c-.3-.2-.7-.4-1.1-.6-.4.1-.7.2-1.1.4-1 .1-1.3.6-.8 1.5.1.2.1.4.2.6.3 0 .3.3.4.5.3.7 1 .8 1.6.7.7-.1 1.2-.6 1.4-1.3.1-.8-.1-1.4-.6-1.8zm-4.9-9.7c-.4-.3-.9-.4-1.3 0-.5.4-.5.9-.3 1.5.2.5.8.5 1.2.7.1 0 .3-.1.4-.1.5-.7.8-1.4 0-2.1zm11.1 5.4c.2.5.8.3 1.1-.1-.1-.3-.2-.5-.3-.8-.4.1-1.1.1-.8.9zm-26.2 6.5c-.3-.8-.9-1.3-1.8-1.3-.5 0-1 .1-1.5.2l-.9 1.2c-1 .8-.9 1.5.3 2 .2.1.4.3.6.4.3-.2.5 0 .8.2.8.4 1.5.1 2.1-.4.6-.6.8-1.4.4-2.3zm1.6-10.2c.6.4 1-.2 1.1-.9-.3-.2-.6-.4-.8-.6-.5.4-1.3.9-.3 1.5zm282.7 6.5h-.6c-.1.3-.4.2-.6.2-.7.1-1.1.6-1.2 1.2-.2.7.1 1.3.7 1.7.6.4 1.2.4 1.7.1.3-.2.6-.5.9-.8 0-.4.1-.8.1-1.1.3-1 0-1.4-1-1.3zm10 .3c-.6 0-.7.6-1.1.8v.4c.4.8 1 1.3 1.9.8.4-.2.7-.7.5-1.2-.3-.6-.7-.8-1.3-.8zm-8.3 10.3c-.6 0-.6.6-.3 1.1.3 0 .5 0 .8.1.1-.6.4-1.3-.5-1.2zm7.4-33.1c1 .1 1.4-.3 1.1-1.3 0-.2 0-.4-.1-.6-.3-.1-.3-.3-.3-.6-.2-.7-.8-1-1.4-1-.8-.1-1.3.3-1.7 1-.3.6-.3 1.3.2 1.8.3.3.7.6 1 .8.4 0 .8-.1 1.2-.1zm2.4 9.1c-.1-.6-.7-.7-1-1h-.4c-.7.6-1.2 1.3-.5 2.1.3.4.8.6 1.3.3.6-.3.8-.8.6-1.4zm-12-6.8c-.1-.6-.7-.5-1.2-.2 0 .3.1.6.1.9.6 0 1.3.1 1.1-.7zM219.8 242h-.5c-.1.3-.3.2-.5.2-.7.1-.9.6-1 1.2-.1.6.2 1.2.7 1.5.5.3 1.1.3 1.6 0 .3-.2.5-.5.8-.8v-1c.1-1-.2-1.3-1.1-1.1zm9-.4c-.5 0-.6.5-.9.8v.4c.4.7 1 1.1 1.8.6.4-.2.6-.7.3-1.1-.3-.6-.7-.7-1.2-.7zm-6.8 9.8c-.5.1-.5.6-.2 1h.7c.1-.5.3-1.1-.5-1zm-16.5-9.3c-.1 0-.2-.1-.3-.1-.1.2-.2.1-.4.1-.4 0-.7.2-.8.6-.2.4-.1.8.2 1.1.3.3.6.4 1 .2.2-.1.4-.3.6-.4.1-.2.1-.4.2-.7.3-.5.1-.8-.5-.8zm6 2.3c.3-.1.4-.3.4-.7-.1-.4-.3-.5-.6-.6-.3-.1-.5.3-.7.4 0 .1 0 .2-.1.2.1.6.4 1 1 .7zm-6 3.9c-.3 0-.4.3-.3.6.2 0 .3.1.5.1.1-.3.3-.6-.2-.7zm-15.6-5.3c.5-.5.5-.8-.2-1.1-.1-.1-.2-.2-.3-.2-.2.1-.3 0-.4-.1-.5-.2-.8 0-1.2.3-.4.4-.4.8-.2 1.3.2.4.5.7 1 .7.3 0 .6-.1.8-.1.2-.4.3-.6.5-.8zm5.6 2.7c-.4-.2-.6.1-.9.1-.1.1-.1.2-.2.2 0 .6.1 1.2.9 1.2.3 0 .6-.2.7-.6 0-.4-.1-.7-.5-.9zm-8.6 3.1c-.4-.2-.6.2-.6.5.2.1.3.2.5.3.2-.3.6-.6.1-.8zm-17.5-9.7c-.1-.1-.2-.3-.3-.4-.3.1-.4-.1-.5-.3-.5-.5-1.1-.4-1.6-.1-.6.3-.9.9-.8 1.5.1.6.4 1.1 1 1.3.4.1.8.1 1.1.2l.9-.6c.8-.5.9-1 .2-1.6zm4.6 6.9c-.1.1-.2.2-.3.2-.3.8-.3 1.5.6 1.9.4.1.9 0 1.1-.4.3-.5.2-.9-.2-1.4-.3-.4-.8-.2-1.2-.3zm-11 .8c-.4-.4-.8 0-1 .4.2.2.3.4.5.6.4-.2 1-.4.5-1zm-21-4.8c-.3 0-.3-.2-.4-.4-.3-.6-.8-.7-1.4-.6-.6.1-1 .5-1.2 1.1-.1.6 0 1.1.5 1.4.3.2.6.3 1 .5.3-.1.6-.2 1-.3.9-.1 1.1-.5.6-1.3 0-.1-.1-.2-.1-.4zm2.1 8c-.1 0-.2.1-.3.1-.5.6-.8 1.2 0 1.8.3.3.8.3 1.1 0 .4-.4.4-.8.2-1.3s-.7-.4-1-.6zm181.7 21.3c-.6 0-.4.2-.5.8-.1.3-.1.6-.1 1 .9.2 1.3-.1 1.1-1 0-.4.1-.8-.5-.8zm-109.2-42.9c-.4 0-.7-.1-.7.5s.2.4.8.5c.3.1.6.1 1 .1.2-.9-.2-1.3-1.1-1.1zm-27.1 27.1c.3.1.6.1 1 .1.2-.9-.1-1.3-1-1.1-.4 0-.7-.1-.7.5-.1.5.1.4.7.5zm-35.6-16.2c-.4 0-.7-.1-.7.5s.2.4.8.5c.3.1.6.1 1 .1.2-.9-.2-1.3-1.1-1.1zm-2.9-17.8c0 .6.2.4.8.5.3.1.6.1 1 .1.2-.9-.1-1.3-1-1.1-.4 0-.8-.1-.8.5zM72.3 260c-.3 0-.7 0-.7.6.1.6.3.4.9.4.3 0 .6 0 1-.1 0-.9-.4-1.2-1.2-.9zm14.7 1.1c-.3 0-.7 0-.7.6s.3.4.9.4c.3 0 .6 0 1-.1.1-.9-.3-1.2-1.2-.9zm-31.7-61.3c-.3 0-.7 0-.7.6.1.6.3.4.9.4.3 0 .6 0 1-.1 0-.9-.3-1.2-1.2-.9zm44.6 17.5c-.3 0-.7 0-.7.6s.3.4.9.4c.3 0 .6 0 1-.1.1-.9-.3-1.2-1.2-.9zm22.9 19c-.3 0-.7 0-.7.6.1.6.3.4.9.4.3 0 .6 0 1-.1 0-.9-.4-1.2-1.2-.9zM57.3 260c0-.4.1-.7-.5-.7s-.4.2-.5.8c-.1.3-.1.6-.1 1 .9.2 1.3-.2 1.1-1.1zm279.9 12.8c.1-.9-2.2-.7-1.8.1-.1.6-.2 1.6 0 1.9.2.3 1.5.1 1.8-.2.2-.2 0-1.1 0-1.8zm8.1-48.4c.2.3 1.2.1 1.3-.1s.1-.9 0-1.4c.1-.7-1.7-.5-1.4.1 0 .4-.1 1.1.1 1.4zm-170-12.8c-.2 0-.5.2-.7.3-.4.1.2 1 .4.7.3-.1.6-.2.7-.4s-.3-.6-.4-.6zm-21.9 7.8c.2-.3.4-.6.4-.8 0-.2-.6-.4-.8-.3-.2.1-.3.5-.4.8-.2.4.8.8.8.3zM49 249.5c-.4-.2-.6 1-.2.9.3.1.7.3.9.2s.3-.7.1-.9c0-.1-.4-.1-.8-.2zm56.1 13.3c-.1 0-.4.1-.6.2-.3.1 0 .7.2.5.2-.1.5-.1.6-.2.1-.1-.1-.5-.2-.5zm164-19.6c-.3-.4-.7-.8-1-1.2-.5 0-.9-.1-1.4-.1-1.2-.4-1.7 0-1.6 1.3 0 .2 0 .5-.1.7.4.1.3.5.3.7.1.9.7 1.3 1.5 1.5.9.2 1.6-.1 2.1-.8.6-.6.6-1.4.2-2.1zm-2.3-10.9h.5c1-.5 1.7-1.2 1.1-2.4-.3-.5-.8-.8-1.5-.6-.7.3-1 .8-1 1.5-.1.8.6 1 .9 1.5zm12.9 8.5c-.6-.1-1.5-.5-1.4.6 0 .7.7.7 1.3.5 0-.4.1-.8.1-1.1zm4.2 18.5c-.2 0-.4 0-.6-.1-.1.3-.4.2-.6.2-.8 0-1.2.6-1.3 1.3-.2.7.1 1.4.7 1.9.6.4 1.2.5 1.9.1.4-.2.7-.6 1-.9 0-.4.1-.8.1-1.2.2-1-.1-1.4-1.2-1.3zm10.7.6c-.6 0-.8.6-1.2.8v.4c.5.8 1 1.5 2.1.9.4-.2.7-.7.5-1.3-.3-.6-.8-.8-1.4-.8zm-9.1 10.8c-.6 0-.6.6-.4 1.2.3 0 .6.1.9.1.1-.6.4-1.3-.5-1.3zm-16.9-52c-.3.2-.6.4-.3.9.4.4.4.2 1-.1.3-.1.6-.3.8-.5-.4-1-.9-1-1.5-.3zm7 9c-.3.2-.6.4-.3.9.4.4.4.2 1-.1.3-.1.6-.3.8-.5-.4-1-.9-1.1-1.5-.3zm27.6 8.4c-.2-.2-1 .1-1.2.3-.1.2.1.8.2 1.3 0 .6 1.6.2 1.2-.3 0-.4 0-1.1-.2-1.3zm-2.6 4.3c-.2-.4-.4-1-.7-1.1-.2-.1-.9.5-.9.7 0 .2.4.7.6 1.1.3.5 1.5-.4 1-.7zm-26.4 24.9c-.5.2-1.2.4-1.3.7s.5 1.1.7 1.2c.3.1.8-.4 1.3-.6.7-.3-.2-1.9-.7-1.3z"></path><path d="M354.8 237.4c-1.7-1.6-3.8-2.4-6.2-2.2-12.6.7-28.7 1-44.3 1.3-15.6.3-31.7.6-44.3 1.3v.6c-24.9 1.7-53.9 3.8-82 5.9-10.3.7-20.5 1.5-30.4 2.2-1.1 0-2.2 0-3.2.1-1.9.1-3.7.3-5.6.5-5.4.4-10.7.8-15.8 1.1h-.6c-2.5 0-4.8.1-7.2.2-1.4.1-2.7.3-4.1.6-32.6 2.3-57.2 3.9-62.7 3.9h-2.9c-5.8 0-8.9-.1-10.8 1.8-1.8 1.8-2.1 5.2-2.1 11.3 0 6.1.1 17 .3 29.5.2 15.4.4 32.8.4 44.8 0 1.6.5 2.8 1.5 3.8 2 1.9 5.8 2.2 9.4 2 1.9.1 4.2.1 6.9.1h1.5c2.3 0 4.7-.1 6.9-.2.6 0 1.1 0 1.7-.1 8.7 0 17.9.1 27.4.2 2.3.1 4.7.2 7 .3 1.7 0 3.5-.1 5.2-.2 11.6.1 23.7.1 35.9.2.6 0 1.3.1 1.9.1 2.4 0 4.8.2 7.1.4s4.8.4 7.2.4c2.4 0 4.8.2 7.1.4 2.4.2 4.8.4 7.2.4 2.4.1 4.9-.1 7.2-.3 2.3-.1 4.8-.3 7.1-.2 2.4 0 4.8.2 7.1.3 2.4.1 4.8.3 7.2.3 2.4 0 4.9-.2 7.3-.4 2.3-.2 4.7-.5 7.1-.4 2.4 0 4.8.4 7.1.7 2.4.3 4.8.7 7.2.7 2.3 0 4.7.1 7 .2 2.4.1 4.9.2 7.4.2s4.9-.3 7.3-.6c2.3-.3 4.7-.6 7-.6h14.3c2.3 0 4.7.5 7.1.9 2.4.4 4.8.9 7.3.9h.2c2.4 0 4.9-.1 7.2-.2s4.6-.2 6.9-.2c2.3 0 4.6.1 6.9.1 2.4.1 5 .2 7.4.1 2.5 0 5.1-.2 7.5-.3 2.2-.1 4.5-.3 6.8-.3 2.5 0 5-.3 7.4-.6 2.3-.3 4.6-.5 6.9-.6 1.4 0 2.8 0 4-.1 3.4 0 5.9-.1 7.8-.6 2.6-.5 4.6-1.4 5.8-2.8 1.7-1.9 1.7-4.1 1.6-5.9-1.6-17.8-.3-39.7.7-57.3.4-5.9.7-11.4.9-16.2.4-14.7-1.2-23.5-5.1-27.5zm.7 55.2c.1 2 .2 4 .2 5.7-.1 3 0 4.7.1 6.2.1 1.9.1 3.6-.1 7.4-.2 3.2-.5 4.8-.8 6.4-.4 1.8-.7 3.5-.8 7.1-.1 3 .3 4.8.7 6.4.4 1.9.8 3.6.1 7.3-.9 4.6-1.9 6.5-4.4 7.3-1.4.3-3 .4-4.9.4-6.7 0-66-.4-134.7-.8-24.4-.1-50.1-.3-75.1-.5-1.6-.1-3.2-.2-4.7-.3-2.4-.2-4.8-.3-7.2-.4h-14.4c-2.4 0-4.9.2-7.3.4-.5 0-1.1.1-1.6.1-4.3 0-8.6-.1-12.8-.1l-6.9-.3H66.6c-1.8 0-3.6.1-5.4.1-3.9 0-7.7 0-11.4-.1h-.1c-.9 0-1.9.1-3 .1-.9.1-2 .1-3 .1-2.4-.2-4.2-.5-5.4-1.4-2.4-1.6-3.3-5.4-3.3-13.3 0-1.8.3-3.8.5-5.9.3-2.4.6-4.8.6-7.4v-13.3c0-2.3 0-4.6-.1-6.8 0-2.3-.1-4.4-.1-6.5 0-2.6-.2-5-.4-7.4-.2-2.1-.4-4.1-.4-5.9 0-6.7 0-6.8.7-10.6.1-.7.3-1.5.4-2.5l.1-.5c.9-5.6 1.3-8.4 6.2-8.4.1 0 .5.1 1 .1 2 .3 6.8 1.1 13.7.5 1.9-.2 4-.7 6.2-1.4 2.6-.7 5.2-1.5 8.2-1.7 2.1-.2 4.3.1 6.7.3 2.6.3 5.3.6 8 .4 2.2-.2 4.4-.4 6.8-.7 2.5-.3 5.1-.6 7.7-.8 2.3-.2 4.6-.7 7-1.3 1.1-.3 2.2-.5 3.3-.7 3.9-.3 8-.6 12.1-.9 2.2 0 4.4-.1 6.6-.2 2.3-.2 4.7-.4 7-.7.5-.1 1-.1 1.5-.2 3.1-.2 6.3-.5 9.5-.7 1.2 0 2.4 0 3.7.1 2.4.1 5 .1 7.5 0 2.3-.2 4.6-.4 7-.6 2.5-.2 5-.5 7.6-.6 2.4-.2 4.8-.5 7.1-.8 2.4-.3 4.9-.6 7.4-.8 2.5-.2 5-.3 7.4-.4 2.3-.1 4.8-.2 7.2-.4 2.4-.2 4.9-.2 7.4-.3 2.4-.1 4.8-.1 7.2-.3l5.2-.3c3.1-.2 6.3-.4 9.4-.6 2.4-.1 4.9-.6 7.3-1 2.4-.4 4.8-.9 7.2-1 2.4-.1 4.9.2 7.3.4 2.4.3 4.9.6 7.3.4 2.5-.1 5-.7 7.3-1.3 2.3-.5 4.8-1.1 7.1-1.2 2.5-.1 5 .1 7.4.3 2.4.2 4.8.4 7.2.3 3.6-.2 7.2-.3 10.8-.4l3.8-.1c2.5-.1 5.1 0 7.6.1 2.3.1 4.7.1 7 .1 2.4-.1 4.8-.3 7.2-.5 2.5-.2 5-.4 7.4-.5 2.4-.1 4.7-.2 7-.3 2.6-.1 5.1-.3 7.5-.3l.9.1c3.8.3 4.5.3 5.3 5.8.5 3.5.9 8 1.1 13.7.1 3.6.1 7.4.1 11.1v2.7c0 2.8-.1 5.6-.2 8.4-.1 1.8-.1 3.7-.2 5.4-.1 3 .1 5.8.2 8.2zM79 252.3c7.5-.5 16.1-1.1 25.4-1.7-1.3.3-2.5.5-3.8.6-2.7.2-5.3.5-7.8.8-2.3.3-4.6.5-6.8.7-2.3.1-4.7-.1-7-.4zm150.6-10.7c1-.1 2-.1 3-.2-.3 0-.6.1-1 .1-.7 0-1.3 0-2 .1zm74.6-4.1c15.6-.3 31.7-.6 44.3-1.3 1.4-.1 2.6.1 3.7.7-.8-.3-1.8-.4-3.2-.5l-.9-.1c-2.5 0-5 .2-7.6.3-2.3.1-4.6.3-7 .3-2.5.1-5 .3-7.4.5-2.3.2-4.7.4-7.1.5-2.3.1-4.6 0-6.9-.1-2.5-.1-5.1-.2-7.7-.1l-3.8.1c-3.6.1-7.2.3-10.8.4-2.3.1-4.8-.1-7.1-.3-.2 0-.5 0-.7-.1 7.3 0 14.8-.1 22.2-.3zm-33 .8c-.6.1-1.2.2-1.8.4v-.3c.6 0 1.2 0 1.8-.1zm-2 .5c-.4.1-.9.2-1.3.3-2.3.5-4.8 1.1-7.2 1.2-2.4.1-4.8-.2-7.2-.4 5.5-.4 10.7-.8 15.7-1.1zM33.4 266.1c0-5.7.3-9.1 1.8-10.6 1.6-1.6 4.6-1.5 10.1-1.5h2.9c2.3 0 8-.3 16.3-.8-.5.1-1 .3-1.5.4-2.1.6-4.2 1.2-6 1.3-6.8.6-11.4-.2-13.5-.5-.6-.1-.9-.1-1.1-.1-5.7 0-6.3 3.7-7.2 9.2l-.1.5c-.2 1-.3 1.8-.4 2.5-.6 3.9-.7 4-.7 10.7 0 1.9.2 3.9.4 6 .2 2.4.4 4.8.4 7.3 0 2.1 0 4.3.1 6.5 0 2.2.1 4.5.1 6.8v13.3c0 2.5-.3 4.9-.6 7.2-.2 1.5-.4 2.9-.5 4.2-.1-10.3-.2-22.2-.3-33.1 0-12.4-.2-23.2-.2-29.3zm1.8 77.4c-.8-.7-1.2-1.7-1.2-3v-5.9c.3 5.6 1.5 8.7 3.7 10.1l.1.1c-1-.3-1.9-.7-2.6-1.3zm138.9 3.5c-2.3.1-4.8.3-7.1.2-2.4-.1-4.8-.2-7.1-.4-.9-.1-1.8-.1-2.8-.2 7.5 0 14.9.1 22.4.1l-5.4.3zm28.7 0c-2.3.2-4.8.5-7.1.4-2.4 0-4.8-.2-7.2-.3-2.2-.1-4.5-.3-6.8-.3 7.4 0 14.7.1 21.9.1-.3 0-.5.1-.8.1zm50.2.2c-2.4 0-4.8.3-7.2.6-2.4.3-4.8.7-7.2.6-2.4 0-4.9-.1-7.3-.2-2.3-.1-4.7-.2-7-.2-2.4 0-4.8-.4-7.1-.7-.7-.1-1.5-.2-2.3-.3 15.2.1 29.9.2 43.6.3-1.8-.1-3.6-.1-5.5-.1zm71.7 1c-2.3 0-4.6.2-6.8.3-2.4.1-5 .3-7.5.3s-5-.1-7.4-.1c-2.3-.1-4.6-.1-6.9-.1-2.3 0-4.7.1-7 .2-2.4.1-4.9.2-7.4.2-2.3 0-4.7-.5-7.1-.9-1.9-.4-3.8-.7-5.8-.8 26.7.2 48.9.3 62.6.4-2.2.2-4.5.5-6.7.5zm31.1-4.3c-.5.6-1.2 1.1-2 1.5 1-1.3 1.7-3.2 2.2-6.1.7-3.8.3-5.6-.1-7.7-.3-1.5-.7-3.2-.7-6.1.1-3.5.4-5.2.7-6.9.2-.8.3-1.6.4-2.5-.1 7.9.1 15.7.8 22.8.2 1.4.1 3.4-1.3 5zm2.9-78.8c-.2 4.8-.5 10.3-.9 16.2-.4 6.5-.8 13.6-1.1 20.8v-3.8c0-1.7-.1-3.7-.2-5.7-.1-2.6-.3-5.2-.2-8.1 0-1.8.1-3.6.2-5.4.1-2.7.2-5.6.2-8.4V268c0-3.7 0-7.6-.1-11.2-.2-5.8-.6-10.3-1.1-13.8-.4-2.6-.9-4.2-1.6-5.1.1.1.2.1.2.2 3.7 3.7 5.2 12.5 4.6 27z"></path><path d="M352.5 234.1c-4.8.3-9.7 1.5-14.5 1.8s-9.6.5-14.4.7c-4.8.3-9.7-.4-14.5-.1-4.8.3-9.6.4-14.4.7-4.8.3-9.6 1-14.4 1.3-4.8.3-9.6.3-14.4.6s-9.6.7-14.4 1c-4.8.3-9.5 2.2-14.3 2.5s-9.7-.5-14.5-.2c-4.8.3-9.5 1.6-14.3 1.9s-9.7-.6-14.5-.3c-4.8.3-9.6.7-14.4 1-4.8.3-9.5 1.6-14.3 1.9s-9.6.7-14.4 1c-4.8.3-9.7-.3-14.5 0s-9.6 1.2-14.4 1.5-9.6.1-14.4.4-9.7-.6-14.5-.3c-4.8.3-9.5 1.7-14.3 2s-9.6 0-14.4.3-9.5 1.8-14.3 2.1-9.2.3-14 .5c.1 5 .5 9.6.6 14.6s-1.1 10-1 15.1c.1 5 .8 10 .9 15s.6 10 .7 15c.1 5-.8 10-.8 15.1.1 5 .7 9.8.8 14.8 4.8 0 9.3.7 14.1.8 4.8 0 9.6.1 14.4.1 4.8 0 9.6-.3 14.4-.3 4.8 0 9.6-1.2 14.4-1.1 4.8 0 9.6 1.8 14.4 1.8 4.8 0 9.6-1.1 14.4-1.1 4.8 0 9.6 1 14.4 1 4.8 0 9.6-1.7 14.4-1.7 4.8 0 9.6 1.8 14.4 1.8 4.8 0 9.6-.6 14.4-.6 4.8 0 9.6-.1 14.4 0 4.8 0 9.6-.3 14.4-.3 4.8 0 9.6-.2 14.4-.2 4.8 0 9.6.9 14.4.9 4.8 0 9.6-1.3 14.4-1.3 4.8 0 9.6.8 14.4.8 4.8 0 9.6-.2 14.4-.2 4.8 0 9.6.3 14.4.4 4.8 0 9.6.2 14.4.2 4.8 0 9.6-.1 14.4-.1 4.8 0 9.6.4 14.4.4 3.6 0 7.9.4 10.9-1.7 4.7-3.2 5.7-10.6 5.8-16.3 0-5-.6-10.1-.5-15.1 0-5-.2-10.1-.1-15.1 0-5 .8-10.1.9-15.1 0-5-.9-10.1-.9-15.1s-.7-10.1-.7-15.1 1.6-10.2 1.6-15.2c-.9-2.1-2.2-2.2-3.8-2.5z"></path></g><g id="SvgjsG127210" class="glNBr83A9" transform="translate(107.73217280943227, 26.369212167959972) scale(0.7543914062942094)" light-content="false" non-strokable="false" fill="#aaaaaa"><path d="M38.9 24.8h.5c.1-.3.3-.2.5-.3.7-.1.9-.7 1-1.3.1-.7-.2-1.2-.8-1.6-.6-.3-1.1-.3-1.6.1-.3.2-.5.6-.8.9v1.1c-.1 1 .3 1.3 1.2 1.1zm-9.5.7c.6-.1.6-.6 1-.9v-.4c-.5-.7-1.1-1.2-1.9-.6-.4.3-.6.7-.3 1.2.2.6.6.8 1.2.7zm6.8-10.6c.5-.1.5-.6.2-1.1h-.8c0 .6-.2 1.3.6 1.1zM57 24.5c.1 0 .2 0 .3.1.1-.2.2-.1.4-.1h.1c0 .2.1.3.5.3.6 0 .4-.2.5-.8.1-.3.1-.6.1-1h-.6l-.1-.1c-.3-.3-.6-.3-1-.2-.2.1-.4.3-.6.4 0 .2-.1.4-.1.7-.3.5-.1.7.5.7zm-5.8-.9c.3 0 .5-.3.7-.4V23c-.2-.5-.5-.8-1.1-.6-.3.1-.4.3-.4.7.2.3.5.5.8.5zm5.5-5.3c.3 0 .4-.3.3-.6-.2 0-.3-.1-.5-.1-.1.3-.3.7.2.7zm32.8 8.2c-.5-.5-1.1-.8-1.7-.5-.4.1-.8.4-1.2.6-.1.4-.3.8-.4 1.1-.5.9-.3 1.4.8 1.5.2.1.4.1.6.2.2-.3.4-.1.7-.1.8.1 1.2-.3 1.5-.9.3-.7.2-1.3-.3-1.9zm-12.6-.3c.6.1.9-.4 1.3-.5 0-.1.1-.3.1-.4-.2-.9-.7-1.6-1.7-1.3-.5.1-.9.5-.8 1.1.1.6.5 1 1.1 1.1zM88 18c.6.1.7-.5.6-1-.3-.1-.5-.2-.8-.3-.2.5-.7 1.1.2 1.3zm45.7 12.8c-.5-.1-1 0-1.5 0l-1 1c-1.1.7-1.1 1.3 0 2l.5.5c.3-.2.5.1.7.3.7.5 1.5.3 2.1-.2.7-.5 1-1.3.7-2.2-.2-.7-.7-1.3-1.5-1.4zm-10.8-7.9c-.6-.1-1.2.1-1.4.8-.3.7-.1 1.3.5 1.8s1.1.1 1.7.2l.4-.4c.2-1.1.1-2.1-1.2-2.4zm15.1-.4c.6.4 1-.1 1.2-.7l-.7-.7c-.5.4-1.3.8-.5 1.4zm18.8 10.7c.7-.2 1.2-.6 1.3-1.3.1-.4 0-.9 0-1.3l-.9-.9c-.6-.9-1.2-.9-1.7 0l-.4.4c.2.3-.1.4-.2.6-.5.6-.3 1.3.1 1.8.4.6 1 .9 1.8.7zm7.4-11.9c-.6-.2-1.1 0-1.5.5-.4.5-.1 1-.1 1.5l.3.3c.9.2 1.8.1 2-1 .1-.6-.1-1.1-.7-1.3zm1.7 15.4l.6-.6c-.3-.4-.7-1.1-1.3-.4-.3.4.2.8.7 1zm25.5-12.9c-.2-.1-.4-.2-.6-.2-.2.3-.4.1-.7 0-.8-.2-1.2.2-1.6.8-.4.6-.3 1.3.1 1.9.4.6 1 .8 1.7.6.4-.1.8-.3 1.2-.5.2-.4.3-.7.5-1.1.6-.8.4-1.4-.6-1.5zm10.8 4.7c0-.7-.4-1-1-1.2-.6-.2-.9.3-1.4.4-.1.1-.1.3-.2.4.2.9.6 1.7 1.7 1.4.5 0 .9-.4.9-1zm-12.5 6.3c-.6-.2-.8.4-.7 1 .3.1.5.2.8.3.3-.4.8-1-.1-1.3zm38.7-6.1c.2-.3.3-.6.4-.9-.1-.3-.2-.6-.3-.8-.1-.8-.5-1-1.1-.5-.1 0-.3.1-.4.1 0 .2-.2.3-.3.3-.5.3-.6.7-.5 1.2.1.5.5.9 1 1 .5.2.9.1 1.2-.4zm7.4-3.9c.2-.3.3-.7 0-1-.3-.3-.7-.4-1.1-.2-.4.2-.3.6-.5.9 0 .1.1.2.1.3.4.4 1 .7 1.5 0zm-3.2 9.3c-.1-.4-.1-1-.7-.7-.4.2-.2.6.1.9.2-.1.4-.1.6-.2zm32-5.1c.1-.7-.2-1.3-.9-1.7-.6-.3-1.3-.3-1.8.1-.3.3-.6.6-.9 1v1.2c-.2 1 .2 1.4 1.3 1.2h.6c.1-.3.4-.3.6-.3.8-.3 1.1-.9 1.1-1.5zm-13.7.5c-.4.3-.6.8-.3 1.3.3.6.8.8 1.4.7.6-.1.7-.7 1.1-1v-.4c-.7-.7-1.3-1.2-2.2-.6zm7.8-10.7c-.1.5-.3 1.3.6 1.1.6-.1.5-.7.2-1.2-.3 0-.6.1-.8.1zm31.7 6c-.9-.1-1.7.2-2.3 1-.3.5-.5 1.1-.7 1.6l.6 1.5c.2 1.4.9 1.7 2.1.9.3-.1.5-.2.8-.3-.1-.5.3-.5.6-.7.9-.5 1-1.4.8-2.3-.1-.9-.8-1.5-1.9-1.7zm-13.1 10.8c.7-.4.6-1.2.9-1.7-.1-.2-.1-.4-.2-.5-1-.7-2.1-1.1-3 .2-.4.5-.4 1.3.2 1.9.7.5 1.4.5 2.1.1zm4.2-18.1c.7-.4.4-1.1-.2-1.6-.4.1-.7.3-1.1.4.1.7.2 1.8 1.3 1.2zm33.9 14.6c.2.1.3.1.5.2.2-.3.4-.1.6-.1.7.1 1.1-.3 1.4-.8.3-.6.2-1.2-.3-1.7-.4-.5-1-.7-1.6-.5-.4.1-.7.4-1 .5-.1.3-.2.7-.3 1-.5.9-.3 1.3.7 1.4zm-7.8-3.3c-.2-.8-.6-1.5-1.6-1.2-.4.1-.8.5-.7 1 .1.6.4.9 1 1 .5.1.8-.3 1.2-.5 0-.1.1-.2.1-.3zm8.5-6.7c.5.1.7-.4.6-.9-.2-.1-.5-.2-.7-.2-.3.3-.7.9.1 1.1zm21.5 10.4l.3.3c.2-.1.3 0 .4.1.4.3.9.1 1.2-.1.4-.3.5-.8.4-1.3-.1-.5-.5-.8-.9-.8h-.9l-.6.6c-.5.5-.5.9.1 1.2zm-5-6.2c-.3-.1-.7.1-.8.5-.1.4 0 .7.3 1 .3.3.7 0 1 .1l.2-.2c.2-.7.1-1.2-.7-1.4zm8.9-.5c.3.2.6-.1.7-.5l-.4-.4c-.4.3-.8.5-.3.9zm13.2 8.4c.1.1.2.3.2.4.2-.1.3.1.4.3.4.4.9.4 1.3.2.5-.2.8-.7.8-1.2s-.3-.9-.8-1.1c-.3-.1-.6-.1-.9-.2-.3.2-.5.3-.8.5-.7.1-.8.5-.2 1.1zm-3.5-6.1c.1-.1.2-.1.3-.2.3-.6.4-1.3-.4-1.6-.3-.1-.7-.1-1 .3-.3.4-.2.8.1 1.2.3.4.7.2 1 .3zm10.2-.2c-.1-.2-.2-.4-.3-.5-.4.2-.9.3-.5.8.2.3.6 0 .8-.3zm-1 5.5v.5c.3.1.2.3.2.5.1.6.6.8 1.1.9.6.1 1.1-.2 1.4-.7.3-.5.3-1-.1-1.4-.2-.3-.5-.5-.8-.7h-1c-.6-.2-1 .1-.8.9zm.2-7.4h.3c.6-.4 1-.9.5-1.7-.2-.3-.6-.5-1.1-.3-.5.2-.6.6-.6 1.1.2.5.7.6.9.9zm9.4 5.3v-.7c-.4 0-1-.2-.9.5 0 .5.5.4.9.2zm-15.9-7.4c.1 0 .2-.1.3-.1.4-.6.6-1.3-.1-1.8-.3-.2-.8-.2-1.1.1-.4.4-.4.8-.1 1.2.3.5.7.4 1 .6zm10.8 1.6l-.3-.6c-.4.1-1 .2-.7.8.3.3.7.1 1-.2zM360 55c.6.2 1.2 0 1.6-.5.4-.5.5-1 .2-1.5-.2-.3-.4-.6-.7-.9-.3-.1-.7-.1-1-.2-.8-.3-1.2 0-1.2.9 0 .2-.1.3-.1.5.3.1.2.3.2.5 0 .7.4 1 1 1.2zm1.8-11.7c-.2-.4-.6-.6-1.1-.5-.5.2-.8.5-.8 1.1 0 .5.4.7.6 1.1.1 0 .2 0 .4.1.7-.4 1.3-.9.9-1.8zm7.7 9.1c0-.2.1-.5.1-.7-.4-.1-1-.4-1.1.3 0 .6.5.6 1 .4zm-16.1 37.5c1 .4 2 .2 2.7-.6.4-.5.7-1.1 1.1-1.6l-.3-1.8c.1-1.6-.7-2.1-2.1-1.5-.3.1-.6.1-.9.2 0 .5-.5.5-.8.6-1.1.4-1.4 1.3-1.4 2.3-.1 1.2.5 2 1.7 2.4zm16.9-9c-.9.2-.9 1.2-1.4 1.7 0 .2.1.4.1.6 1 1 2.1 1.7 3.3.5.5-.5.8-1.3.2-2.1-.5-.8-1.2-1-2.2-.7zm-8.7 19.2c-.9.3-.6 1.2-.1 1.8.4-.1.9-.2 1.3-.2 0-.8.2-2-1.2-1.6zm2.1 23.9c-.4.1-.7.2-1.1.3-1 .1-1.2.5-.7 1.4.1.2.1.4.2.5.3 0 .3.3.4.4.3.6.9.8 1.5.7.7-.1 1.1-.5 1.3-1.2.2-.6 0-1.2-.5-1.6-.4-.2-.8-.4-1.1-.5zm-3.5-8.8c-.3-.3-.8-.4-1.3 0s-.5.9-.3 1.4c.2.5.8.5 1.1.7.1 0 .3-.1.4-.1.6-.7.9-1.4.1-2zm11.4 4.4c-.5.1-1.2.1-.9.8.2.5.7.3 1.1-.1 0-.2-.1-.4-.2-.7zm-98.2 4.9c.1-.1.2-.3.3-.4-.2-.2 0-.3.1-.5.3-.6 0-1-.4-1.4-.4-.4-1-.5-1.5-.2-.5.2-.8.6-.8 1.2 0 .3.1.7.2 1 .3.2.5.4.8.5.5.7.9.6 1.3-.2zm-5.5 7.6c.5.1.8-.1 1.1-.6.2-.4-.1-.8-.1-1.1-.1-.1-.2-.1-.3-.2-.7 0-1.4.2-1.4 1.1 0 .4.2.7.7.8zm-2.9-10.8c.2-.4-.2-.7-.6-.7-.1.2-.3.4-.4.6.3.3.7.8 1 .1zm25-.9c-.1-.1-.2-.2-.3-.2-.2.1-.3 0-.4-.1-.4-.2-.7-.1-1 .2-.3.3-.4.7-.3 1.1.1.4.4.6.8.7.2 0 .5 0 .7-.1.2-.2.3-.4.5-.5.6-.5.5-.8 0-1.1zm4.5 5c.3 0 .6-.1.7-.4.1-.4 0-.6-.3-.8-.3-.2-.6 0-.8 0l-.2.2c-.1.4-.1.9.6 1zm-7.4.8c-.3-.2-.5.1-.6.4.1.1.3.2.4.3.2-.1.6-.4.2-.7zm29.7-9.3c-.1-.2-.1-.4-.2-.6-.3 0-.3-.3-.4-.5-.3-.7-1-.8-1.6-.7-.7.1-1.2.6-1.4 1.3-.2.7 0 1.3.6 1.7.3.2.7.4 1.1.6.4-.1.7-.2 1.1-.4 1.1 0 1.3-.5.8-1.4zm3.5 9.5c-.2-.5-.8-.5-1.2-.7-.1 0-.3.1-.4.1-.6.7-.9 1.5 0 2.1.4.3.9.4 1.3 0 .5-.5.5-1 .3-1.5zm-13.9-3.8c.1.3.2.5.3.8.5-.1 1.3-.1.9-.9-.3-.5-.8-.3-1.2.1zm29.1-5.4c.5 0 1-.1 1.5-.2l.9-1.2c1-.8.9-1.5-.3-2-.2-.1-.4-.3-.6-.4-.3.2-.5 0-.8-.2-.8-.4-1.5-.1-2.1.4-.7.6-.8 1.4-.5 2.3.5.8 1.1 1.3 1.9 1.3zm-4.4 9.9c.3.2.6.4.8.6.5-.5 1.2-1 .3-1.5-.6-.3-1 .3-1.1.9zM48 31.8c.3 0 .3-.3.5-.4v-.2c-.2-.3-.5-.6-.9-.3-.2.1-.3.4-.1.6 0 .3.2.3.5.3zm3.4-5.7H51c0 .2-.1.6.3.5.2 0 .2-.3.1-.5zm2.3 13.3c0-.3-.2-.6-.6-.7-.3-.1-.6 0-.8.2-.1.1-.2.3-.3.5 0 .2.1.4.1.5 0 .5.2.6.7.4.1 0 .2 0 .3-.1 0-.2.1-.1.2-.2.3 0 .4-.3.4-.6zM48 41.7c.3-.1.3-.4.4-.5V41c-.3-.3-.7-.5-1-.1-.2.2-.2.4 0 .6.1.2.4.2.6.2zm2.5-6c.3-.1.2-.4 0-.6-.1 0-.3.1-.4.1 0 .3 0 .7.4.5zm5.3 26.8c.2-.1.4-.1.6-.2 0-.3.3-.3.5-.5.7-.4.8-1 .6-1.6-.1-.7-.6-1.2-1.3-1.3-.7-.1-1.3.1-1.7.6-.2.3-.4.8-.5 1.1.1.4.3.7.4 1.1 0 1.1.5 1.3 1.4.8zm-9.5 3.7c.6-.2.5-.8.7-1.2 0-.1-.1-.3-.1-.4-.7-.5-1.5-.9-2.2 0-.3.4-.3.9.1 1.3.5.6.9.6 1.5.3zm3.6-12.9c.5-.3.3-.8-.1-1.2-.3.1-.5.2-.8.3.1.5.1 1.3.9.9zm1.6 39.6c-.3-.4-.7-.5-1.2-.3-.3.1-.5.3-.8.4-.1.3-.2.5-.3.8-.4.6-.2 1 .5 1 .1 0 .3.1.4.1.1-.2.3-.1.5-.1.5.1.8-.2 1.1-.6.3-.5.2-.9-.2-1.3zm-8.7 0c.4.1.6-.3.9-.4 0-.1.1-.2.1-.3-.2-.6-.5-1.1-1.2-.9-.3.1-.6.4-.5.8 0 .5.3.7.7.8zm8-6.6c-.2-.1-.4-.1-.6-.2-.2.3-.5.8.1.9.5.1.6-.3.5-.7zm-1.3 33.3h.6c.1-.3.4-.2.6-.2.7-.1 1.1-.6 1.2-1.2.2-.7-.1-1.3-.7-1.7-.6-.4-1.2-.4-1.7-.1-.3.2-.6.5-.9.8 0 .4-.1.8-.1 1.1-.4 1.1 0 1.5 1 1.3zm-10.8-2.2c-.4.2-.7.7-.5 1.2.2.6.6.8 1.3.8.6 0 .7-.6 1.1-.8v-.4c-.4-.8-.9-1.4-1.9-.8zm8.6-9.4c-.1.5-.4 1.2.5 1.1.6 0 .6-.6.3-1.1h-.8zm-4.5 36.7c.3-.6.3-1.3-.2-1.8-.3-.3-.7-.6-1-.8-.4 0-.8.1-1.2.1-1-.1-1.4.3-1.1 1.3 0 .2 0 .4.1.6.3.1.3.3.3.6.2.7.8 1 1.4 1 .8.1 1.4-.3 1.7-1zm-4.9-11.6c.1.6.7.7 1 1h.4c.7-.6 1.2-1.3.5-2.1-.3-.4-.8-.6-1.3-.3s-.7.8-.6 1.4zm13.2 7c0-.3-.1-.6-.1-.9-.5 0-1.3-.2-1.1.7.2.6.8.5 1.2.2zm107.4-13.6c-.5-.3-1.1-.3-1.6 0-.3.2-.5.5-.8.8v1c-.2.9.1 1.2 1 1h.5c.1-.3.3-.2.5-.2.7-.1.9-.6 1-1.2.2-.5 0-1.1-.6-1.4zm-11.1 1.5c-.4.2-.6.7-.3 1.1.2.5.6.7 1.2.6.5 0 .6-.5.9-.8v-.4c-.5-.5-1-1-1.8-.5zm7-9c-.1.5-.3 1.1.5 1 .5-.1.5-.6.2-1h-.7zm17.1 10.3c.1 0 .2.1.3.1.1-.2.2-.1.4-.1.4 0 .7-.2.8-.6.2-.4.1-.8-.2-1.1-.3-.3-.6-.4-1-.2-.2.1-.4.3-.6.4-.1.2-.1.4-.2.7-.3.5-.1.8.5.8zm-5-1.7c-.2-.5-.4-.9-1-.7-.3.1-.4.3-.4.7.1.4.3.5.6.6.3.1.5-.3.7-.4.1 0 .1-.1.1-.2zm5-4.5c.3 0 .4-.3.3-.6-.2 0-.3-.1-.5-.1-.1.2-.3.6.2.7zm16.1 4.7c-.2.2-.3.4-.5.6-.5.5-.5.8.2 1.1.1.1.2.2.3.2.2-.1.3 0 .4.1.5.2.8 0 1.2-.3.4-.4.4-.8.2-1.3-.2-.4-.5-.7-1-.7-.3.1-.5.2-.8.3zm-5-2.4c0-.6-.1-1.2-.9-1.2-.3 0-.6.2-.7.6-.1.4.1.7.5.9.4.2.6-.1.9-.1.1 0 .1-.1.2-.2zm8.1-3.3c-.2-.1-.3-.2-.5-.3-.2.3-.7.6-.1.9.4.1.6-.2.6-.6zm19.1 8.2c-.4-.1-.8-.1-1.1-.2l-.9.6c-.9.4-.9.9-.2 1.5.1.1.2.3.3.4.3-.1.4.1.5.3.5.5 1.1.4 1.6.1.6-.3.9-.9.8-1.5 0-.6-.4-1-1-1.2zm-8.3-6.6c-.3.5-.2.9.2 1.4.4.4.8.2 1.2.3.1-.1.2-.2.3-.2.3-.8.3-1.5-.6-1.9-.3-.2-.8-.1-1.1.4zm12.5.9c.4.4.8 0 1-.4-.2-.2-.3-.4-.5-.6-.4.2-1.1.4-.5 1zm23.4 3.2c-.3-.2-.6-.3-1-.5-.3.1-.6.2-1 .3-.9.1-1.1.5-.6 1.3.1.2.1.3.2.5.3 0 .3.2.4.4.3.6.8.7 1.4.6.6-.1 1-.5 1.2-1.1 0-.6-.1-1.1-.6-1.5zm-4.2-8.3c-.3-.3-.8-.3-1.1 0-.4.4-.4.8-.2 1.3s.7.4 1 .6c.1 0 .2-.1.3-.1.5-.6.8-1.2 0-1.8zm11.9-100.3c0 .4-.1.7.5.7s.4-.2.5-.8c.1-.3.1-.6.1-1-1-.1-1.3.2-1.1 1.1zm-186.5 0c0 .4-.1.7.5.7s.4-.2.5-.8c.1-.3.1-.6.1-1-.9-.1-1.2.2-1.1 1.1zm56.3-2.9c.6 0 .4-.2.5-.8.1-.3.1-.6.1-1-.9-.2-1.3.1-1.1 1 0 .4-.1.8.5.8zM58.4 5.5c.6 0 .4-.2.5-.8.1-.3.1-.6.1-1-.9-.2-1.3.1-1.1 1 0 .4-.1.8.5.8zm155 21.3c.6 0 .4-.2.5-.8.1-.3.1-.6.1-1-.9-.2-1.3.1-1.1 1 0 .4 0 .8.5.8zm-1.7-4.9c.6 0 .4-.2.5-.8.1-.3.1-.6.1-1-.9-.2-1.3.1-1.1 1 0 .4 0 .8.5.8zm-85.9-6c0 .4-.1.7.5.7s.4-.2.5-.8c.1-.3.1-.6.1-1-.9-.2-1.3.2-1.1 1.1zm130.4 1.4c.1-.3.1-.6.1-1-.9-.2-1.3.1-1.1 1 0 .4-.1.7.5.7.6.1.4-.1.5-.7zm-12.1 26.9c0 .4-.1.7.5.7s.4-.2.5-.8c.1-.3.1-.6.1-1-.9-.2-1.2.1-1.1 1.1zm60.4-3.2c.6 0 .4-.2.5-.8.1-.3.1-.6.1-1-.9-.2-1.3.1-1.1 1 0 .5-.1.8.5.8zm51.9-9.9c0 .4-.1.7.5.7.2 0 .3 0 .4-.1.3.5.8.5 1.3.4.6-.1.9-.6 1-1.2.1-.6-.1-1-.6-1.3-.3-.2-.6-.3-1-.4-.3.1-.6.2-.9.4-.6.1-.9.4-.8.8.1.2.1.4.1.7zm21.2 16.1c-.9-.2-1.3.1-1.1 1 0 .4-.1.7.5.7s.4-.2.5-.8c.1-.2.1-.6.1-.9zm-325-17.4c-.1 0-.1.1-.2.1l-.4.4v.5c-.1.5.1.6.6.5h.3c0-.1.2-.1.3-.1.3-.1.5-.3.5-.6 0-.2 0-.3-.1-.4v-.3c.1-.3.1-.6.1-1-.9-.2-1.2.1-1.1.9zm-4.9 64c.6 0 .4-.2.5-.8.1-.3.1-.6.1-1-.9-.2-1.3.1-1.1 1 0 .4-.1.8.5.8zm3.4 6.3c.6 0 .4-.2.5-.8.1-.3.1-.6.1-1-.9-.2-1.3.1-1.1 1 0 .4 0 .8.5.8zM160.3 142c-.3-.1-.6-.1-1-.1-.2.9.1 1.3 1 1.1.4 0 .7.1.7-.5s-.1-.4-.7-.5zm27.3-25.1c.4 0 .7.1.7-.5s-.2-.4-.8-.5c-.3-.1-.6-.1-1-.1-.2.9.1 1.3 1.1 1.1zm36.2 14.7c0-.6-.2-.4-.8-.5-.3-.1-.6-.1-1-.1-.2.9.1 1.3 1 1.1.4 0 .8.1.8-.5zm1.3 17.8c-.3-.1-.6-.1-1-.1-.2.9.1 1.3 1 1.1.4 0 .7.1.7-.5.2-.6-.1-.4-.7-.5zm79.4-39c-.3 0-.6 0-1 .1-.1.9.3 1.2 1.2.9.3 0 .7 0 .7-.6-.1-.6-.3-.4-.9-.4zm-14.7-1.1c-.3 0-.6 0-1 .1-.1.9.3 1.2 1.2.9.3 0 .7 0 .7-.6s-.3-.4-.9-.4zm31.7 61.3c-.3 0-.6 0-1 .1-.1.9.3 1.2 1.2.9.3 0 .7 0 .7-.6-.1-.6-.3-.4-.9-.4zm-44.7-17.5c-.3 0-.6 0-1 .1-.1.9.3 1.2 1.2.9.3 0 .7 0 .7-.6s-.2-.4-.9-.4zm-22.8-19c-.3 0-.6 0-1 .1-.1.9.3 1.2 1.2.9.3 0 .7 0 .7-.6-.1-.6-.3-.4-.9-.4zm66.2-22c.6 0 .4-.2.5-.8.1-.3.1-.6.1-1-.9-.2-1.3.1-1.1 1 0 .4-.1.8.5.8zM331.1 87c.6 0 .4-.2.5-.8.1-.3.1-.6.1-1-.9-.2-1.3.1-1.1 1 0 .4-.1.8.5.8zm-68.9-54.2c-.1-.6-.2-1.4-.4-1.6-.3-.2-1.3.3-1.5.5-.1.3.2 1 .4 1.6.1.8 2 .1 1.5-.5zm-111.8-31c.5.4 1.2-1.1.5-1.1-.3-.3-.9-.7-1.1-.6-.3 0-.6.9-.5 1.1.1.1.7.3 1.1.6zm-.2 2.7c-.2.1-.2 1 0 1.2.2.2.8.2 1.2.2.6.2.7-1.4.1-1.2-.4-.1-1.1-.3-1.3-.2zM78.8 7.6c-.1-.6-.2-1.4-.5-1.7-.3-.2-1.4.3-1.5.6s.3 1.1.5 1.7c.1.9 2.1.1 1.5-.6zM30.4 38.5c-.2-.6-.4-1.6-.7-1.8-.3-.2-1.5.5-1.6.8-.1.4.4 1.2.7 1.8.1.9 2.3-.2 1.6-.8zm9.4 60.1c-.1.9 2.2.7 1.8-.1.1-.6.2-1.6 0-1.9-.2-.3-1.5-.1-1.8.2-.2.2 0 1.1 0 1.8zM.6 118.9c-.3.2-.4.9-.6 1.5-.4.7 1.5 1.2 1.4.4.2-.5.6-1.2.6-1.5 0-.3-1.1-.6-1.4-.4zM31.7 147c-.2-.3-1.2-.1-1.3.1-.2.2-.1.9 0 1.4-.1.7 1.7.5 1.4-.1 0-.4.1-1.1-.1-1.4zM202 158.8c-.3.1-.6.2-.7.4s.3.6.4.6c.2 0 .5-.2.7-.3.4-.2-.1-1-.4-.7zm21.6-6.8c-.2.3-.4.6-.4.8 0 .2.6.4.8.3s.3-.5.4-.8c.2-.4-.8-.8-.8-.3zM328 121.9c.4.2.6-1 .2-.9-.3-.1-.7-.3-.9-.2s-.3.7-.1.9.4.1.8.2zm-56.1-13.3c.1 0 .4-.1.6-.2.3-.1 0-.7-.2-.5-.2.1-.5.1-.6.2-.1.1.1.5.2.5zm94.2-13.2c-.1-.2-.9-.1-1.1.1-.1.2-.1.7-.1 1.1-.1.5 1.3.5 1.1-.1.1-.3.2-.9.1-1.1zm-15.4-25.3c0-.5.1-1.3-.1-1.5-.2-.3-1.3 0-1.4.3-.2.2 0 1 .1 1.5-.1.6 1.8.3 1.4-.3zm-52.2-5.8c-.2-.6-.5-1.5-.8-1.7-.3-.2-1.4.5-1.5.9-.1.3.4 1.1.7 1.7.4.8 2.3-.4 1.6-.9zm-36.4-29.5c-.3-.2-1.4.3-1.5.6-.1.3.2 1 .5 1.6.2.8 2.1 0 1.5-.6-.1-.5-.3-1.3-.5-1.6zM155 42.5c.2-.2.3-.9.4-1.4.2-.7-1.5-.9-1.4-.2-.2.5-.4 1.2-.3 1.4s1.1.4 1.3.2zm-43.4 84.2c-.1-.9-.7-1.3-1.5-1.5-.9-.2-1.6.1-2.1.8-.5.7-.6 1.4-.2 2.1.3.4.7.8 1 1.2.5 0 .9.1 1.4.1 1.2.4 1.7 0 1.6-1.3 0-.2 0-.5.1-.7-.4-.1-.3-.4-.3-.7zm-1.4 12.4h-.5c-1 .5-1.7 1.2-1.1 2.4.3.5.8.8 1.5.6.7-.3 1-.8 1-1.5.1-.8-.6-1-.9-1.5zm-12.8-9.5c0 .3-.1.7-.1 1 .6.1 1.5.5 1.4-.6 0-.7-.7-.7-1.3-.4zM95 108.8c-.6-.4-1.2-.5-1.9-.1-.4.2-.7.6-1 .9 0 .4-.1.8-.1 1.2-.3 1 0 1.5 1.1 1.3.2 0 .4 0 .6.1.1-.3.4-.2.6-.2.8 0 1.2-.6 1.3-1.3.3-.8 0-1.5-.6-1.9zm-13.4.5c-.4.2-.7.7-.5 1.3.2.6.7.9 1.3.9.6 0 .8-.6 1.2-.8v-.4c-.4-.9-1-1.5-2-1zm10.3-9.7c-.3 0-.6-.1-.9-.1-.1.5-.4 1.3.5 1.2.6 0 .6-.6.4-1.1zM68 89.9c.7-.1 1.2-.6 1.4-1.3.2-.7 0-1.3-.6-1.7-.3-.3-.8-.4-1.1-.6-.4.1-.8.2-1.2.4-1.1.1-1.3.6-.8 1.5.1.2.1.4.2.6.3 0 .3.3.4.5.4.5 1 .7 1.7.6zm8.3-8.5c-.5.1-1.3.1-.9.9.3.6.8.3 1.2-.1-.1-.2-.2-.5-.3-.8zm32.1 71.3c.3-.2.6-.4.3-.9-.4-.4-.4-.2-1 .1-.3.1-.6.3-.8.5.4.9.9 1 1.5.3zm-7.7-9.7c-.3.1-.6.3-.8.5.4.8.9.9 1.5.2.3-.2.6-.4.3-.9-.4-.4-.5-.1-1 .2zm-27.1-9c0 .4 0 1.1.2 1.3.2.2 1-.1 1.2-.3.1-.2-.1-.8-.2-1.3 0-.7-1.6-.2-1.2.3zm2.8-3c.2.4.4 1 .7 1.1s.9-.5.9-.7c0-.2-.4-.7-.6-1.1-.3-.5-1.5.4-1 .7zm26.9-26.8c-.3-.1-.8.4-1.3.6-.7.2.3 1.8.7 1.2.5-.2 1.2-.4 1.3-.7.2-.2-.4-1-.7-1.1z"></path><path d="M38.3 136.4c4.8-.3 9.7-1.3 14.5-1.6s9.6-.4 14.4-.7 9.6-.5 14.4-.8l14.4-.9c4.8-.3 9.6-.9 14.4-1.2 4.8-.3 9.6-1 14.4-1.3 4.8-.3 9.6-1.1 14.4-1.4s9.6 0 14.4-.2 9.6-.6 14.4-.8 9.7.6 14.5.3c4.8-.3 9.5-2.3 14.3-2.6 4.8-.3 9.7 1.1 14.5.8s9.5-1.7 14.3-2l14.4-.9c4.8-.3 9.6-.2 14.4-.5 4.8-.3 9.6-.4 14.4-.7 4.8-.3 9.6-1.2 14.4-1.5 4.8-.3 9.6-.8 14.4-1.1 4.8-.3 9.7.4 14.5.1 4.8-.3 9.6-.9 14.4-1.2 4.8-.3 9.6.1 14.4-.2 4.8-.3 9.1-1.9 13.9-2.2-.1-5-.6-9.6-.7-14.6-.1-5 1.7-10.1 1.7-15.1s-2-10-2.1-15 1.6-10.1 1.6-15.1c-.1-5-1.9-10-1.9-15-.1-5 .9-10.2.8-15.2-4.8 0-9.7.7-14.5.7-4.8 0-9.6.2-14.4.2h-14.4c-4.8 0-9.6-1.2-14.4-1.2-4.8 0-9.6.4-14.4.4-4.8 0-9.6-.7-14.4-.7-4.8 0-9.6.5-14.4.5-4.8 0-9.6.1-14.4.1-4.8 0-9.6-.4-14.4-.4-4.8 0-9.6.9-14.4.9-4.8 0-9.6.2-14.4.2-4.8 0-9.6-.5-14.4-.5-4.8 0-9.6-.6-14.4-.6-4.8 0-9.6-.6-14.4-.6-4.8 0-9.6.8-14.4.8-4.8 0-9.6-.4-14.4-.4-4.8 0-9.6 1.1-14.4 1.1-4.8 0-9.6-1.3-14.4-1.3-4.8 0-9.6-.2-14.4-.3-4.8 0-9.6 1.4-14.4 1.4-4.8 0-9.6.1-14.4.1-3.6 0-7.9-1.5-10.9.5-4.4 3.4-4.8 10.7-4.8 16.4 0 5-.4 10.1-.5 15.1s.4 10.1.3 15.1.8 10.1.8 15.1-1.5 10.1-1.6 15.1c0 5 1.1 10.1 1 15.2 0 5-1.4 10.2-1.4 15.3.3 1.9 2.1 2.1 3.7 2.4z"></path><path d="M41.2 136.6h.6c12.6-.7 28.7-1 44.3-1.3 15.6-.3 31.7-.6 44.3-1.3v-.6c20.4-1.4 43.5-3.1 66.7-4.8 1.8.1 3.6.2 5.3.1 2.5-.2 5-.6 7.4-1h.3c.8-.1 1.5-.1 2.3-.2 14.7-1.1 29.3-2.1 43-3.1 1.7 0 3.5-.1 5.2-.2 1-.1 2-.2 3-.4 40.2-2.9 72-5 78.3-5h2.9c5.8 0 8.9.1 10.8-1.8 1.8-1.8 2.1-5.2 2.1-11.3 0-6.1-.1-17-.3-29.5-.2-15.4-.4-32.8-.4-44.8 0-1.6-.5-2.8-1.5-3.8-1.5-1.4-3.8-1.9-6.3-2-2.4-.4-5.6-.4-9.7-.4h-16.1c-2.5 0-5-.1-7.4-.2-2.3-.1-4.6-.1-6.9-.2-2.3 0-4.7.1-7.1.2-2.4.1-4.9.3-7.3.2-2.4 0-4.8-.2-7.1-.4s-4.8-.4-7.2-.5c-2.4 0-4.8.3-7.2.6-1 .1-2.1.3-3.1.4-2.9 0-5.7 0-8.6-.1-.9-.1-1.7-.1-2.5-.2-2.3-.2-4.8-.4-7.2-.5-2.4 0-4.8-.2-7.2-.4-2.3-.2-4.8-.3-7.2-.4-2.4-.1-4.9.2-7.2.4s-4.8.5-7.1.4c-2.4-.1-4.8-.1-7.2-.1-2.4 0-4.8 0-7.1-.1-2.4 0-4.8-.3-7.1-.5-2.4-.2-4.8-.5-7.2-.5-2.4 0-4.8-.2-7.1-.3-2.4-.1-4.8-.3-7.2-.3-2.4 0-4.9.1-7.3.2-2.3.1-4.7.2-7.1.2-2.4 0-4.8-.3-7.1-.5-2.4-.2-4.8-.4-7.2-.5-2.3 0-4.7-.1-6.9-.2-2.4-.1-4.9-.2-7.4-.2s-4.9.3-7.3.6c-2.3.3-4.7.6-7 .6-2.4 0-4.8-.3-7.1-.6-2.4-.3-4.8-.6-7.3-.6H94.1c-2.5 0-5 .4-7.4.7-2.3.3-4.7.7-7 .7-2.4 0-4.8-.4-7.1-.7-2.4-.4-4.8-.8-7.3-.7-2.5 0-5 .6-7.4 1-2.3.5-4.6 1-6.9 1-1.5 0-2.8 0-4 .1-1.6 0-2.9 0-4.1.1-4.5.2-7.6 1.2-9.4 3.1-1.7 1.9-1.7 4.1-1.6 5.9 1.6 17.8.3 39.7-.7 57.3-.4 5.9-.7 11.4-.9 16.2-.6 15 1 23.8 5 27.7 1.7 1.7 3.6 2.5 5.9 2.5zm-6.3-57.8v-5.3c.1-3.5.3-5.2.5-7 .2-1.6.4-3.3.5-6.5.1-3.5-.2-5.3-.5-7-.3-1.6-.6-3.3-.5-6.6v-3.8c0-3.3 0-4.6 1-9.7 1.2-6.1 2.5-7.4 7-7.8h1.7c6.7 0 66.1.4 134.9.8 26.9.2 55.2.3 82.5.5 1.5.1 2.9.2 4.4.2 1.3 0 2.6-.1 3.9-.2 25.2.1 49.3.3 70.2.4.9 0 2-.1 3.1-.1 1.8-.1 3.9-.2 5.9-.1 1.1.2 2 .5 2.8 1 2.3 1.5 3.3 5.7 3.3 13.6 0 1.9-.2 3.9-.3 6-.2 2.4-.4 4.8-.4 7.3 0 2.1-.1 4.2-.3 6.5-.1 2.2-.3 4.5-.3 6.8s.4 4.7.8 6.9.7 4.3.7 6.4c0 2.5-.2 5-.3 7.3-.1 2.1-.3 4.1-.3 6V99c0 3.1.1 3.7-.7 8.5-.9 5.9-1.7 7.2-6.7 7.2-.6 0-3.4.2-8.4.6l-6.3.5c-1.9.2-4 .3-6.2.4-2.5.1-5.4.3-8.4.5-2.2.2-4.4.7-6.7 1.3-2.5.6-5 1.3-7.7 1.5-2.2.2-4.5.2-6.9.2-2.5 0-5.1 0-7.7.2-2.3.2-4.6.2-7 .3-2.5 0-5 .1-7.6.3-2.3.2-4.7.7-7 1.2-1.4.3-2.8.6-4.2.8-2.8.2-5.7.4-8.7.6h-1.7c-2.4 0-4.9.1-7.4.2-2.4.2-4.9.3-7.2.4-2.4.1-4.9.2-7.3.4-2.3.2-4.7.4-7.1.7-2.4.3-5 .5-7.5.7-2.2.2-4.5.5-6.7.9-4.4.3-8.8.6-13.2 1-.6 0-1.2-.1-1.8-.1-2.4-.2-4.9-.4-7.4-.2-2.4.2-4.9.5-7.2.9-2.4.4-4.9.8-7.3.9-2.4.2-4.9.1-7.3 0-2.4-.1-4.9-.1-7.3 0-2.5.1-4.9.6-7.3 1.1-2.4.5-4.8.9-7.2 1.1-2.5.1-5 .1-7.4.1-2.4 0-4.8 0-7.2.1-2.4.1-4.9.4-7.3.7-2.4.3-4.9.6-7.3.7-2.5.1-5 0-7.5 0-2.3-.1-4.8-.2-7.1-.1-2.5.1-5 0-7.5-.1-2.3-.1-4.8-.2-7.1-.1-2.5.1-4.9.4-7.3.8-2.5.3-4.8.7-7.2.7-2.6.1-5.3 0-7.8 0-2.2 0-4.5-.1-6.8 0-2.5.1-5 .4-7.4.7-2.5.3-4.9.6-7.2.6-4.3-.3-4.9-.7-5.8-6.9-.4-2.6-.5-5.7-.5-8.9 0-1.5-.1-3.1-.1-4.8-.1-2-.4-4.1-.8-6.2-.4-2.5-.8-5-.8-7.5s.2-5 .4-7.5c.2-2.2.4-4.3.4-6.3.1-2.8.1-5.7.1-8.3zm321.4-31.9c.1 9.4.2 19.7.3 29.3v1.7c-.1-1.1-.3-2.2-.5-3.3-.4-2.2-.7-4.5-.7-6.8s.1-4.6.3-6.8c.1-2.2.3-4.4.3-6.5 0-2.5.2-4.9.4-7.3-.1-.1-.1-.2-.1-.3zm-74.2 74.6c-3.4.2-6.9.5-10.4.7 1.1-.2 2.2-.4 3.3-.4 2.5-.2 4.8-.3 7.1-.3zm-93 6.7c-1.2.1-2.5.2-3.7.3.8-.1 1.6-.2 2.3-.2.5-.1 1-.1 1.4-.1zm-25.9 1.9c-3 .2-6 .4-8.9.6 1.5-.3 2.9-.5 4.4-.6 1.4-.1 3-.1 4.5 0zM86 134.3c-2.5 0-5.1.1-7.6.1h.1c2.4-.3 4.8-.7 7.2-.8 2.3-.1 4.7 0 7 .1 2.5.1 5 .2 7.6.1 1.2-.1 2.5-.1 3.8 0-5.9.2-12 .3-18.1.5zm269-18c-1.6 1.6-4.6 1.5-10.1 1.5H342c-3.5 0-14.7.7-30.8 1.7.3-.1.7-.2 1-.3 2.3-.6 4.4-1.1 6.5-1.3 3-.2 5.7-.4 8.4-.5 2.2-.1 4.3-.2 6.2-.4l6.3-.5c4.6-.4 7.7-.6 8.3-.6 5.9 0 6.8-2.1 7.7-8.1.8-4.9.8-5.5.7-8.7v-4.6c0-1.8.1-3.8.3-5.9.1-1 .1-2 .2-3.1.1 8.5.2 15.6.2 20.2-.2 5.7-.5 9.1-2 10.6zm1.2-85v3.1c-.4-3.5-1.3-5.7-2.7-7 .6.2 1.1.6 1.5.9.8.8 1.2 1.8 1.2 3zm-112.5-6.1c-3.7 0-7.4 0-11-.1 1.6-.2 3.3-.3 4.9-.2 2 .1 4.1.2 6.1.3zM87 23.6c2.4-.4 4.8-.7 7.2-.7h14.4c2.4 0 4.8.3 7.1.6 2.4.3 4.8.6 7.2.6 2.4 0 4.8-.3 7.2-.6 2.4-.3 4.8-.6 7.2-.6 2.5 0 5 .1 7.4.2 2.3.1 4.6.2 7 .2 2.4 0 4.8.3 7.2.5 2.3.2 4.8.4 7.2.5 2.4 0 4.8-.1 7.1-.2 2.4-.1 4.8-.2 7.2-.2 2.4 0 4.8.2 7.2.3 2.3.1 4.7.3 7.1.3 1.9 0 3.9.2 5.8.4-7.1 0-14.1-.1-21-.1-37.9-.2-72.9-.4-97.8-.6 1.7-.1 3.5-.3 5.3-.6zm-28.7.3c2.4-.5 4.8-1 7.2-1 2.3 0 4.8.3 7.1.7 1.6.3 3.3.5 5 .6-8.1 0-14.9-.1-20.3-.1.4 0 .7-.1 1-.2zm-23.8 4c.7-.8 1.7-1.4 2.9-1.8-1.2 1.3-1.9 3.3-2.5 6.6-1 5.2-1 6.4-1 9.9v3c-.1-4.3-.3-8.5-.7-12.5-.2-1.6-.2-3.6 1.3-5.2zm-3 78.8c.2-4.8.5-10.3.9-16.2.7-12.4 1.6-26.9 1.5-40.6.1 1.3.3 2.3.4 3.2.3 1.7.6 3.4.5 6.8-.1 3.2-.3 4.9-.5 6.5-.2 1.8-.4 3.5-.5 7.1v13.8c0 2-.2 4.1-.4 6.3-.2 2.5-.4 5-.4 7.6 0 2.6.4 5.2.8 7.7.3 2.1.7 4.1.8 6.1.1 1.6.1 3.2.1 4.7.1 3.3.1 6.4.5 9.1.4 2.5.8 4.2 1.4 5.3-.1-.1-.3-.2-.4-.4-3.7-3.7-5.2-12.5-4.7-27zm322.1 122.7c-1.1-.2-2.1-.2-2.4 1.2-.1.6.1 1.2.8 1.5.7.3 1.3.1 1.8-.5s.1-1.2.2-1.7c-.2-.3-.3-.4-.4-.5zm4.3 9.9c0-.3 0-.5-.1-.8-.4-.1-.4-.4-.4-.7-.1-.3-.2-.6-.4-.8v-.5c-.3-.1-.6-.1-.8 0-.2-.1-.4-.1-.7-.1-1-.1-1.7.4-2.2 1.3-.4.8-.4 1.6.2 2.3.4.4.9.7 1.3 1.1.5 0 1-.1 1.6-.1 1.4.2 1.9-.4 1.5-1.7zm1.7 13.5c-.1-.8-.9-.9-1.3-1.3h-.6c-.9.8-1.6 1.6-.7 2.8.4.5 1.1.8 1.8.4.7-.5.9-1.1.8-1.9zm-15.6-9c-.2-.8-.9-.6-1.5-.2 0 .4.1.7.1 1.1.7 0 1.6.3 1.4-.9zm10.3 23.5c0-.2-.1-.4-.1-.6-.3 0-.3-.3-.4-.5-.2-.7-.8-.9-1.4-.9-.7 0-1.2.4-1.5 1.1-.2.6-.2 1.2.3 1.7.3.3.7.5 1 .7.4-.1.8-.1 1.1-.2 1 .1 1.4-.3 1-1.3zm.9 8.9c-.1 0-.3 0-.4.1-.6.6-1.1 1.3-.4 2.1.3.3.8.5 1.3.2s.6-.8.5-1.4c-.1-.7-.7-.7-1-1zm-12-4.9c0 .3.1.5.1.8.5 0 1.2.1 1-.7-.1-.6-.6-.4-1.1-.1zm5.5 18.4c-.2 0-.3-.2-.3-.3-.3-.5-.7-.5-1.2-.4-.5.1-.8.5-.9 1-.1.5.1.9.5 1.1.3.2.6.2.8.3.3-.1.5-.2.8-.3.7-.1.9-.5.4-1.1 0-.1 0-.2-.1-.3zm2.5 6.4c-.1 0-.2.1-.3.1-.3.5-.5 1.1.1 1.5.3.2.7.2.9-.1.3-.3.3-.7.1-1.1-.2-.3-.6-.2-.8-.4zm-9.3-1.3c.1.2.2.4.2.5.4-.1.9-.1.6-.7-.2-.3-.6-.1-.8.2zm2.4 21.4c-.1-.2-.3-.3-.4-.5-.3.1-.4-.1-.6-.3-.6-.5-1.2-.4-1.8 0-.7.4-.9 1-.8 1.8.1.7.5 1.2 1.2 1.4.4.1.9.1 1.3.1.3-.3.6-.5.9-.8 1-.4 1-1 .2-1.7zm5.6 7.6l-.3.3c-.3.9-.3 1.7.8 2.1.5.1 1 0 1.3-.5.3-.6.2-1.1-.3-1.5-.5-.6-1.1-.3-1.5-.4zm-12.4 1.4c-.4-.4-.9 0-1.1.5.2.2.4.4.5.7.5-.3 1.3-.6.6-1.2zm1.8 14.8c.3-.1.5-.4.7-.5 0-.3.1-.6.1-.8.3-.7 0-1-.7-.9-.1 0-.3 0-.4-.1-.1.2-.3.1-.4.1-.5 0-.8.4-.9.8-.2.5 0 .9.4 1.3.4.3.8.3 1.2.1zm8.2-1c-.1-.4-.4-.6-.9-.6-.4 0-.6.4-.8.5v.3c.3.6.7 1 1.4.7.2-.1.5-.5.3-.9zm-7.3 6.4c-.4 0-.4.4-.3.8.2 0 .4.1.6.1.1-.4.3-.9-.3-.9zm-.5 5c-.1 0-.2.1-.4.1 0 .2-.2.2-.3.3-.4.2-.5.7-.4 1.1.1.5.4.8.9.9.4.1.8 0 1.1-.4.2-.2.2-.5.3-.8-.1-.2-.2-.5-.3-.7 0-.7-.3-.9-.9-.5zm6.2-2.6c-.4.2-.3.5-.5.8 0 .1.1.2.1.3.5.3 1 .6 1.4 0 .2-.3.2-.6-.1-.9-.2-.3-.5-.3-.9-.2zm-1.6 9.1c-.1-.3-.1-.8-.6-.6-.3.2-.2.5.1.8.1 0 .3-.1.5-.2zm-5.1-3.2c-.1.1-.2.1-.4.2 0 .2-.2.2-.3.3-.4.3-.5.7-.4 1.1.1.5.5.8 1 .8.5.1.9-.1 1.1-.5.1-.2.2-.5.3-.8-.1-.2-.2-.5-.3-.7-.1-.6-.5-.8-1-.4zm6.2-3c-.4.2-.3.6-.4.9 0 .1.1.2.1.3.5.3 1.1.5 1.5-.1.2-.3.2-.6-.1-.9-.3-.4-.7-.4-1.1-.2zm-1.7 9c-.3.2-.2.6.1.8.2-.1.4-.2.5-.2 0-.4-.1-.9-.6-.6zM23.1 342.3l-1.2-.3c-1-.5-1.5-.2-1.5.9 0 .2-.1.4-.1.6.3.2.2.4.2.7-.1.8.5 1.3 1.1 1.5.7.3 1.4.1 2-.5.5-.5.7-1.2.4-1.9-.4-.2-.7-.6-.9-1zm.3-11.3c-.7.1-1 .6-1.1 1.2-.1.6.5.9.7 1.3.1 0 .3.1.4.1.9-.4 1.6-.9 1.2-2-.1-.4-.6-.7-1.2-.6zm8.7 11.9c-.1.6.6.7 1.1.6.1-.3.1-.6.2-.9-.6-.2-1.2-.6-1.3.3zm20.7 1.5c-.4 0-.7-.1-1.1-.1-.9-.3-1.3 0-1.2 1 0 .2 0 .4-.1.5.3.1.2.3.2.6 0 .7.5 1 1.1 1.2.7.2 1.2 0 1.7-.6.4-.5.5-1.1.1-1.6-.2-.4-.5-.7-.7-1zm-.9-9.8c-.6.2-.8.6-.8 1.2s.5.7.7 1.1h.4c.7-.4 1.3-.9.8-1.8-.1-.4-.5-.6-1.1-.5zm8.7 9.4c0 .5.6.6 1 .4 0-.3.1-.5.1-.8-.5-.2-1.2-.4-1.1.4zm19.5-.3c-.3-.1-.5-.1-.8-.2-.7-.3-1-.1-1 .6 0 .1-.1.3-.1.4.2.1.1.3.1.5-.1.5.3.8.7 1 .5.2.9.1 1.3-.3.3-.4.5-.8.3-1.2-.1-.3-.3-.6-.5-.8zm.4-7.6c-.5.1-.7.4-.7.8-.1.4.3.6.4.9.1 0 .2 0 .3.1.6-.2 1.1-.6.8-1.3-.1-.3-.4-.6-.8-.5zm5.6 8.1c-.1.4.4.5.7.4 0-.2.1-.4.1-.6-.2-.2-.7-.5-.8.2zm30.7-3.1c-.6-.3-1.2-.3-1.8.1-.3.2-.6.6-.9.9v1.2c-.2 1 .2 1.4 1.2 1.2h.6c.1-.3.4-.2.6-.3.7-.1 1-.7 1.1-1.3.2-.9-.1-1.5-.8-1.8zm-12.6 1.9c-.4.3-.6.8-.4 1.3.3.6.7.8 1.4.7.6-.1.7-.6 1.1-.9v-.4c-.6-.8-1.2-1.4-2.1-.7zm7.9-10.4c-.1.5-.3 1.3.6 1.1.6-.1.5-.7.3-1.1h-.9zM152 339c-.8-.1-1.5.2-2 .9-.3.4-.4 1-.6 1.4.2.4.4.9.6 1.3.2 1.2.8 1.5 1.9.8.2-.1.4-.2.7-.3 0-.4.3-.4.5-.6.8-.5.9-1.3.7-2-.3-.8-.9-1.4-1.8-1.5zm-13.6 7.9c-.3.4-.3.9-.1 1.3-.6 0-.8.3-.7 1.1 0 .4-.1.7.5.7s.4-.2.5-.8c.1-.2.1-.4.1-.6.5.4 1.1.4 1.7.1.7-.3.5-1 .8-1.5-.1-.2-.1-.3-.2-.5-.9-.6-1.8-1-2.6.2zm5.3-15.8c-.3.1-.6.3-1 .4.2.6.2 1.6 1.2 1 .7-.3.4-1-.2-1.4zm46.1 13c0-.3.3-.4.5-.5.7-.4.8-1 .6-1.7-.2-.7-.7-1.2-1.4-1.3-.7-.1-1.3.1-1.7.7-.2.4-.4.8-.5 1.2.1.4.3.8.4 1.1.2 1.1.7 1.3 1.6.7.1 0 .3-.1.5-.2zm-12 2.9c-.3.4-.3 1 .1 1.4.5.5 1 .5 1.6.2.6-.3.4-.9.7-1.3-.1-.1-.1-.3-.2-.4-.7-.5-1.5-.9-2.2.1zm4.8-13.2c-.3.1-.5.2-.8.3.1.5.2 1.3 1 .9.5-.3.2-.8-.2-1.2zm30 8.4c-.6-.2-1.1-.1-1.5.3l-.6.9c.1.3.1.7.2 1 0 .9.3 1.2 1.2.8.2 0 .3-.1.5-.1 0-.3.3-.3.4-.3.6-.2.8-.7.8-1.3-.1-.6-.4-1-1-1.3zm-10.4 3.2c-.3.3-.4.7-.1 1.1.3.5.7.6 1.2.4.5-.1.5-.6.8-.9 0-.1 0-.2-.1-.4-.5-.4-1.1-.8-1.8-.2zm5.3-9.7c0 .4-.1 1.1.6.9.5-.1.4-.6.1-1-.2 0-.4.1-.7.1zm34.7 9.2c-.3.1-.6.3-.8.5-.1.3-.2.6-.2.9-.4.7-.1 1.1.7 1.1.1 0 .3.1.4.1.1-.2.3-.1.5-.1.6.1.9-.3 1.1-.8.2-.5.1-1-.3-1.4-.4-.3-.9-.5-1.4-.3zm-8.4-.8c-.3.1-.6.4-.5.9.1.5.4.7.9.8.5.1.6-.3 1-.5 0-.1.1-.2.1-.3-.3-.7-.7-1.2-1.5-.9zm8.2-5.1c.5.1.5-.4.4-.8-.2-.1-.4-.1-.6-.2-.2.4-.5.9.2 1zm41.1 3.9c-.9-.4-1.8-.3-2.5.3-.4.4-.8.9-1.1 1.4.1.6.1 1.1.2 1.7-.2 1.5.4 2 1.8 1.5.3 0 .6-.1.8-.1.1-.5.5-.4.8-.5 1-.3 1.4-1.1 1.4-2 .1-1-.4-1.8-1.4-2.3zm-17.7 4.2c-.5.4-.8 1.2-.4 1.9.5.8 1.1 1 2 .8.8-.2.9-1 1.4-1.4 0-.2 0-.4-.1-.6-.7-1-1.7-1.7-2.9-.7zm10-15.6c0 .7-.3 1.8 1 1.5.8-.2.7-1 .2-1.6-.4 0-.8.1-1.2.1zm25.9 10c-.2-.3 0-.4.1-.7.3-.7 0-1.3-.5-1.7-.6-.5-1.3-.6-2-.2-.6.3-1 .9-.9 1.6 0 .4.2.9.3 1.3.3.2.7.4 1 .7.8.8 1.3.6 1.7-.4l.3-.6zm-6.1 8.1c-.9 0-1.8.3-1.7 1.4 0 .5.3 1 .9 1 .7.1 1.1-.2 1.4-.8.3-.6-.2-1-.2-1.4-.2-.1-.3-.1-.4-.2zm-5.9-12.1c-.2.2-.3.5-.5.7.4.4.9 1 1.3.1.4-.5-.2-.8-.8-.8zm28.2 2.3c-.2.1-.3-.1-.4-.3-.4-.5-.9-.4-1.3-.3-.5.2-.8.6-.8 1.2 0 .5.2 1 .7 1.2l.9.3c.3-.2.5-.3.8-.5.8-.2.9-.7.3-1.3 0-.1-.1-.2-.2-.3zm3.4 6.7c-.1.1-.2.1-.3.2-.3.6-.5 1.3.3 1.6.3.2.7.1 1-.2.3-.4.3-.8 0-1.2-.2-.4-.7-.2-1-.4zm-10.3-.3l.3.6c.4-.2 1-.3.6-.8-.3-.4-.7-.1-.9.2zm21.5-4.2c-.1-.1-.2-.1-.4-.2-.1.2-.3.1-.4 0-.5-.1-.8.2-1.1.5-.3.4-.2.9.1 1.3.3.4.7.5 1.1.4.3-.1.5-.2.8-.3.1-.2.2-.5.3-.7.5-.6.3-.9-.4-1zm6.7 3.9c.2 0 .4-.2.5-.4.3 0 .6-.1.8-.3.2-.2.3-.4.5-.7 0-.2-.1-.5-.1-.7 0-.7-.3-.9-.9-.6-.1 0-.2 0-.4.1 0 .2-.2.2-.3.2-.5.2-.6.5-.6.9-.2.1-.3.2-.5.2 0 .1-.1.2-.1.3.1.6.3 1.1 1.1 1zm-7.9 3.5c-.4-.1-.5.3-.5.6.2.1.4.1.5.2.3-.3.6-.7 0-.8zm15-7.6c-.4.1-.4.5-.6.7v.3c.4.4.8.7 1.4.2.2-.2.3-.5.1-.8-.2-.4-.5-.5-.9-.4zm-3.6 7.8c-.4.1-.3.5-.1.7.2 0 .4-.1.5-.1 0-.3.1-.8-.4-.6zm2.2-6.3c.1-.1.1-.3.1-.7.1-.3.1-.6.1-1-.9-.2-1.3.1-1.1 1v.3h-.1c-.1 0-.3.1-.4.1 0 .2-.2.2-.3.3-.5.2-.6.7-.5 1.1.1.5.4.9.9 1 .5.1.9 0 1.2-.4.2-.2.3-.5.4-.8-.1-.3-.2-.5-.2-.8-.1.1-.1 0-.1-.1zm5.9-2.6c-.4.2-.4.6-.6.8 0 .1.1.2.1.3.5.4 1 .7 1.5.1.2-.3.3-.6 0-1-.2-.3-.6-.4-1-.2zm-3.1 9.1c-.4.2-.2.6 0 .8.2-.1.4-.1.6-.2 0-.3 0-.8-.6-.6zM41.5 246.2c-.5.2-.3.7.1 1 .2-.1.5-.1.7-.2-.2-.5-.2-1.1-.8-.8zM38 275.9c.2.5.7.8 1.3.8.6 0 1-.3 1.2-.8.1-.3.1-.7.2-1-.2-.3-.4-.5-.5-.8v-.1c.5 0 .4-.2.5-.8.1-.3.1-.6.1-1-.9-.2-1.3.1-1.1 1v.2c-.2 0-.5.1-.8.4-.1.1-.3.2-.4.3.1.3-.1.3-.3.4-.5.4-.4 1-.2 1.4zm8.7-7.1c-.4-.3-.8-.2-1.2.1-.4.3-.2.7-.3 1.1.1.1.1.2.2.3.7.3 1.3.4 1.7-.5 0-.3 0-.8-.4-1zm-1 11.9c.2-.1.4-.3.6-.4-.2-.4-.4-1-.9-.5-.4.3-.1.7.3.9zm-6.3 24c.5.4 1.1.3 1.6 0s.7-.8.6-1.4c-.1-.4-.2-.7-.4-1-.3-.1-.6-.3-.9-.4-.7-.5-1.2-.4-1.3.5-.1.2-.1.3-.2.5.2.2.1.4 0 .6-.2.5.2.9.6 1.2zm4.1-11.2c-.6 0-.9.3-1.1.8-.2.5.2.8.3 1.2.1.1.2.1.3.2.8-.1 1.4-.4 1.3-1.3 0-.6-.3-.9-.8-.9zm5.5 11.4c.1-.2.2-.4.3-.7-.4-.2-.9-.7-1.1 0-.1.6.4.7.8.7zm-6.9 12.2l-1.2.3c-1.1 0-1.4.6-.9 1.5.1.2.1.4.2.6.3 0 .3.3.4.5.3.7 1 .9 1.6.8.8-.1 1.3-.5 1.5-1.3.2-.7 0-1.3-.5-1.8-.3-.3-.7-.4-1.1-.6zm-4-7.6c.1 0 .3-.1.4-.1.6-.7 1-1.5.2-2.3-.4-.3-.9-.4-1.4 0-.5.4-.6.9-.4 1.6.2.5.8.5 1.2.8zm13.3 3.9c-.1-.3-.2-.6-.2-.9-.5.1-1.3 0-1 .9.2.6.8.4 1.2 0zm-11.8 15c-.5.1-.9.3-1.4.4-1.3.1-1.6.7-1 1.8.1.2.1.5.2.7.4 0 .4.3.5.6.4.8 1.2 1 2 .9.9-.1 1.5-.7 1.7-1.6.2-.8 0-1.6-.7-2.1-.4-.2-.9-.4-1.3-.7zm-4.5-11.5c-.5-.4-1.1-.5-1.7 0-.6.5-.7 1.1-.4 1.8.3.7 1 .6 1.4.9.2 0 .3-.1.5-.1.8-.8 1.2-1.7.2-2.6zm13.8 7c.3.7 1 .4 1.4-.1-.1-.3-.2-.7-.3-1-.7.1-1.6.1-1.1 1.1zm-10.5 10.7c-.5 0-1 0-1.4.1-1.2-.2-1.7.3-1.4 1.5v.7c.4.1.3.4.4.7.2.9.9 1.2 1.7 1.3.9.1 1.6-.3 2-1.1.4-.7.4-1.5-.1-2.2-.4-.3-.9-.6-1.2-1zm-2.7-9.6h.5c.9-.6 1.5-1.4.8-2.5-.3-.5-.9-.7-1.6-.4-.7.3-.9.9-.8 1.7.1.7.8.8 1.1 1.2zm12.7 7.6c.1.7.8.6 1.4.3v-1c-.7-.1-1.6-.4-1.4.7zm-27.8-67c.1-.3.1-.6.1-1-.9-.2-1.3.1-1.1 1 0 .4-.1.7.5.7.5.1.4-.1.5-.7zm-4.7 58.2c0 .4-.1.7.5.7s.4-.2.5-.8c.1-.3.1-.6.1-1-.9-.1-1.3.2-1.1 1.1zm-2.6-23.7c0 .4-.1.7.5.7s.4-.2.5-.8c.1-.3.1-.6.1-1-.9-.2-1.2.2-1.1 1.1zm27.1 58.3c0 .4-.1.7.5.7s.4-.2.5-.8c.1-.3.1-.6.1-1-.9-.2-1.3.2-1.1 1.1zm35.9-17.5c0 .4-.1.7.5.7s.4-.2.5-.8c.1-.3.1-.6.1-1-.9-.2-1.3.2-1.1 1.1zm20.4-.8c0 .4-.1.7.5.7s.4-.2.5-.8c.1-.3.1-.6.1-1-.9-.2-1.2.1-1.1 1.1zm54-22.3c.6 0 .4-.2.5-.8.1-.3.1-.6.1-1-.9-.2-1.3.1-1.1 1-.1.4-.1.8.5.8zm46.8 12.5c0 .4-.1.7.5.7s.4-.2.5-.8c.1-.3.1-.6.1-1-.9-.2-1.2.2-1.1 1.1zm32.9 10.1c0 .4-.1.7.5.7s.4-.2.5-.8c.1-.3.1-.6.1-1-.9-.2-1.3.2-1.1 1.1zm25.6 14.5c0 .4-.1.7.5.7s.4-.2.5-.8c.1-.3.1-.6.1-1-.9-.2-1.3.2-1.1 1.1zm-93.8 13.4c0 .4-.1.7.5.7s.4-.2.5-.8c.1-.3.1-.6.1-1-.9-.1-1.3.2-1.1 1.1zm131.5-24.2c.1-.3.1-.6.1-1-.9-.2-1.3.1-1.1 1 0 .4-.1.7.5.7.6.1.4-.1.5-.7zm49.9 11c0 .4-.1.7.5.7s.4-.2.5-.8c.1-.3.1-.6.1-1-.9-.1-1.3.2-1.1 1.1zm-66.2-45.3c0 .4-.1.7.5.7s.4-.2.5-.8c.1-.3.1-.6.1-1-1-.1-1.3.2-1.1 1.1zm13.5-3.9c0 .4-.1.7.5.7s.4-.2.5-.8c.1-.3.1-.6.1-1-.9-.1-1.2.2-1.1 1.1zm52.7-18c.1-.3.1-.6.1-1-.9-.2-1.3.1-1.1 1 0 .4-.1.7.5.7s.4-.1.5-.7zm-298-40.6c0-.4-.1-1-.3-1.1-.2-.2-.9.1-1 .3-.1.2.1.7.2 1.1.2.6 1.5.2 1.1-.3zm-.4 52.6c-.3.2-.4 1-.6 1.6-.4.7 1.7 1.2 1.6.4.2-.5.6-1.3.6-1.6s-1.3-.6-1.6-.4zm24.3 48.4c-.2-.4-1.6-.4-1.8-.1s-.3 1.2-.4 1.9c-.3.9 2.1 1.1 1.9.2.1-.6.4-1.6.3-2zm103.2-35.2c0-.7.1-1.8-.1-2.1-.3-.4-1.7 0-1.9.3-.2.3 0 1.3.1 2.1-.1 1 2.4.6 1.9-.3zm1.3 30.6c-.2-.4-1.7-.3-2 0-.3.3-.2 1.3-.2 2.1-.2 1 2.4 1 2 0 .2-.6.4-1.7.2-2.1zm17 18.9c-.3-.3-1.8.4-1.9.8-.1.4.3 1.3.6 2.1.2 1.1 2.7.1 2-.8-.2-.7-.3-1.8-.7-2.1zM59.4 327.9c-.1-.4-1.5-.4-1.7-.1s-.3 1.1-.4 1.8c-.3.9 2 1.1 1.8.2.1-.7.4-1.6.3-1.9zM271 354.3c-.4-.3-1.9.4-2.1.8s.3 1.5.6 2.3c.2 1.1 2.9.1 2.1-.8-.1-.8-.2-1.9-.6-2.3zm31.3-4.1c-.2-.3-1.3.1-1.5.3-.2.3 0 1 .2 1.6 0 .8 2 .4 1.5-.3-.1-.5 0-1.3-.2-1.6zm57.4-6.7c-.1-.1-.6-.1-.7.1s0 .5 0 .8c-.1.4.9.3.7 0 0-.4.1-.8 0-.9zm-17.6-64.3c.3-.3.7-.7.7-1 0-.2-.7-.6-1-.5-.2.1-.5.6-.7.9-.3.4.9 1.1 1 .6zm30.2 52.9c-.1-.1-.6 0-.7.1-.1.1 0 .5.1.7 0 .4.9.2.7-.1 0-.2 0-.5-.1-.7zm-12.4-14.9c-.1-.1-.7.1-.7.2-.1.1 0 .5.1.8 0 .4 1 .2.8-.2-.1-.2-.1-.6-.2-.8zm10.6-65.4c-.2 0-.7.3-1 .5-.5.2.2 1.4.6.9.4-.1.9-.3 1-.5.1-.2-.4-.9-.6-.9zm-265.3-2.4c.5-.2.8-.6.8-1.2 0-.3-.1-.7-.2-1-.3-.2-.5-.4-.8-.5-.6-.6-1-.5-1.3.3-.1.1-.2.3-.3.4.2.2 0 .3-.1.5-.3.6 0 1 .4 1.4.4.3.9.4 1.5.1zm3.9-10.1c-.5-.1-.8.1-1.1.6-.2.4.1.8.1 1.1.1.1.2.1.3.2.7 0 1.4-.2 1.4-1.1 0-.4-.2-.7-.7-.8zm3.5 11.5c.1-.2.3-.4.4-.6-.3-.3-.7-.8-1-.1-.3.4.1.6.6.7zm-24.5-1.4c-.2 0-.5 0-.7.1-.2.2-.3.4-.5.5-.5.4-.5.7.1 1 .1.1.2.2.3.2.2-.1.3 0 .4.1.4.2.7.1 1-.2.3-.3.4-.7.3-1.1-.2-.3-.5-.6-.9-.6zm-5.6-3.4c-.3 0-.6.1-.7.4-.1.4 0 .6.3.8.3.2.6 0 .8 0l.2-.2c.1-.4.1-.9-.6-1zm7.4-.8c.3.2.5-.1.6-.4-.1-.1-.3-.2-.4-.3-.2.1-.6.4-.2.7zm-26.7 8c-.3-.2-.7-.4-1.1-.6-.4.1-.7.2-1.1.4-1 .1-1.3.6-.8 1.5.1.2.1.4.2.6.3 0 .3.3.4.5.3.7 1 .8 1.6.7.7-.1 1.2-.6 1.4-1.3.1-.8-.1-1.4-.6-1.8zm-4.9-9.7c-.4-.3-.9-.4-1.3 0-.5.4-.5.9-.3 1.5.2.5.8.5 1.2.7.1 0 .3-.1.4-.1.5-.7.8-1.4 0-2.1zm11.1 5.4c.2.5.8.3 1.1-.1-.1-.3-.2-.5-.3-.8-.4.1-1.1.1-.8.9zm-26.2 6.5c-.3-.8-.9-1.3-1.8-1.3-.5 0-1 .1-1.5.2l-.9 1.2c-1 .8-.9 1.5.3 2 .2.1.4.3.6.4.3-.2.5 0 .8.2.8.4 1.5.1 2.1-.4.6-.6.8-1.4.4-2.3zm1.6-10.2c.6.4 1-.2 1.1-.9-.3-.2-.6-.4-.8-.6-.5.4-1.3.9-.3 1.5zm282.7 6.5h-.6c-.1.3-.4.2-.6.2-.7.1-1.1.6-1.2 1.2-.2.7.1 1.3.7 1.7.6.4 1.2.4 1.7.1.3-.2.6-.5.9-.8 0-.4.1-.8.1-1.1.3-1 0-1.4-1-1.3zm10 .3c-.6 0-.7.6-1.1.8v.4c.4.8 1 1.3 1.9.8.4-.2.7-.7.5-1.2-.3-.6-.7-.8-1.3-.8zm-8.3 10.3c-.6 0-.6.6-.3 1.1.3 0 .5 0 .8.1.1-.6.4-1.3-.5-1.2zm7.4-33.1c1 .1 1.4-.3 1.1-1.3 0-.2 0-.4-.1-.6-.3-.1-.3-.3-.3-.6-.2-.7-.8-1-1.4-1-.8-.1-1.3.3-1.7 1-.3.6-.3 1.3.2 1.8.3.3.7.6 1 .8.4 0 .8-.1 1.2-.1zm2.4 9.1c-.1-.6-.7-.7-1-1h-.4c-.7.6-1.2 1.3-.5 2.1.3.4.8.6 1.3.3.6-.3.8-.8.6-1.4zm-12-6.8c-.1-.6-.7-.5-1.2-.2 0 .3.1.6.1.9.6 0 1.3.1 1.1-.7zM219.8 242h-.5c-.1.3-.3.2-.5.2-.7.1-.9.6-1 1.2-.1.6.2 1.2.7 1.5.5.3 1.1.3 1.6 0 .3-.2.5-.5.8-.8v-1c.1-1-.2-1.3-1.1-1.1zm9-.4c-.5 0-.6.5-.9.8v.4c.4.7 1 1.1 1.8.6.4-.2.6-.7.3-1.1-.3-.6-.7-.7-1.2-.7zm-6.8 9.8c-.5.1-.5.6-.2 1h.7c.1-.5.3-1.1-.5-1zm-16.5-9.3c-.1 0-.2-.1-.3-.1-.1.2-.2.1-.4.1-.4 0-.7.2-.8.6-.2.4-.1.8.2 1.1.3.3.6.4 1 .2.2-.1.4-.3.6-.4.1-.2.1-.4.2-.7.3-.5.1-.8-.5-.8zm6 2.3c.3-.1.4-.3.4-.7-.1-.4-.3-.5-.6-.6-.3-.1-.5.3-.7.4 0 .1 0 .2-.1.2.1.6.4 1 1 .7zm-6 3.9c-.3 0-.4.3-.3.6.2 0 .3.1.5.1.1-.3.3-.6-.2-.7zm-15.6-5.3c.5-.5.5-.8-.2-1.1-.1-.1-.2-.2-.3-.2-.2.1-.3 0-.4-.1-.5-.2-.8 0-1.2.3-.4.4-.4.8-.2 1.3.2.4.5.7 1 .7.3 0 .6-.1.8-.1.2-.4.3-.6.5-.8zm5.6 2.7c-.4-.2-.6.1-.9.1-.1.1-.1.2-.2.2 0 .6.1 1.2.9 1.2.3 0 .6-.2.7-.6 0-.4-.1-.7-.5-.9zm-8.6 3.1c-.4-.2-.6.2-.6.5.2.1.3.2.5.3.2-.3.6-.6.1-.8zm-17.5-9.7c-.1-.1-.2-.3-.3-.4-.3.1-.4-.1-.5-.3-.5-.5-1.1-.4-1.6-.1-.6.3-.9.9-.8 1.5.1.6.4 1.1 1 1.3.4.1.8.1 1.1.2l.9-.6c.8-.5.9-1 .2-1.6zm4.6 6.9c-.1.1-.2.2-.3.2-.3.8-.3 1.5.6 1.9.4.1.9 0 1.1-.4.3-.5.2-.9-.2-1.4-.3-.4-.8-.2-1.2-.3zm-11 .8c-.4-.4-.8 0-1 .4.2.2.3.4.5.6.4-.2 1-.4.5-1zm-21-4.8c-.3 0-.3-.2-.4-.4-.3-.6-.8-.7-1.4-.6-.6.1-1 .5-1.2 1.1-.1.6 0 1.1.5 1.4.3.2.6.3 1 .5.3-.1.6-.2 1-.3.9-.1 1.1-.5.6-1.3 0-.1-.1-.2-.1-.4zm2.1 8c-.1 0-.2.1-.3.1-.5.6-.8 1.2 0 1.8.3.3.8.3 1.1 0 .4-.4.4-.8.2-1.3s-.7-.4-1-.6zm181.7 21.3c-.6 0-.4.2-.5.8-.1.3-.1.6-.1 1 .9.2 1.3-.1 1.1-1 0-.4.1-.8-.5-.8zm-109.2-42.9c-.4 0-.7-.1-.7.5s.2.4.8.5c.3.1.6.1 1 .1.2-.9-.2-1.3-1.1-1.1zm-27.1 27.1c.3.1.6.1 1 .1.2-.9-.1-1.3-1-1.1-.4 0-.7-.1-.7.5-.1.5.1.4.7.5zm-35.6-16.2c-.4 0-.7-.1-.7.5s.2.4.8.5c.3.1.6.1 1 .1.2-.9-.2-1.3-1.1-1.1zm-2.9-17.8c0 .6.2.4.8.5.3.1.6.1 1 .1.2-.9-.1-1.3-1-1.1-.4 0-.8-.1-.8.5zM72.3 260c-.3 0-.7 0-.7.6.1.6.3.4.9.4.3 0 .6 0 1-.1 0-.9-.4-1.2-1.2-.9zm14.7 1.1c-.3 0-.7 0-.7.6s.3.4.9.4c.3 0 .6 0 1-.1.1-.9-.3-1.2-1.2-.9zm-31.7-61.3c-.3 0-.7 0-.7.6.1.6.3.4.9.4.3 0 .6 0 1-.1 0-.9-.3-1.2-1.2-.9zm44.6 17.5c-.3 0-.7 0-.7.6s.3.4.9.4c.3 0 .6 0 1-.1.1-.9-.3-1.2-1.2-.9zm22.9 19c-.3 0-.7 0-.7.6.1.6.3.4.9.4.3 0 .6 0 1-.1 0-.9-.4-1.2-1.2-.9zM57.3 260c0-.4.1-.7-.5-.7s-.4.2-.5.8c-.1.3-.1.6-.1 1 .9.2 1.3-.2 1.1-1.1zm279.9 12.8c.1-.9-2.2-.7-1.8.1-.1.6-.2 1.6 0 1.9.2.3 1.5.1 1.8-.2.2-.2 0-1.1 0-1.8zm8.1-48.4c.2.3 1.2.1 1.3-.1s.1-.9 0-1.4c.1-.7-1.7-.5-1.4.1 0 .4-.1 1.1.1 1.4zm-170-12.8c-.2 0-.5.2-.7.3-.4.1.2 1 .4.7.3-.1.6-.2.7-.4s-.3-.6-.4-.6zm-21.9 7.8c.2-.3.4-.6.4-.8 0-.2-.6-.4-.8-.3-.2.1-.3.5-.4.8-.2.4.8.8.8.3zM49 249.5c-.4-.2-.6 1-.2.9.3.1.7.3.9.2s.3-.7.1-.9c0-.1-.4-.1-.8-.2zm56.1 13.3c-.1 0-.4.1-.6.2-.3.1 0 .7.2.5.2-.1.5-.1.6-.2.1-.1-.1-.5-.2-.5zm164-19.6c-.3-.4-.7-.8-1-1.2-.5 0-.9-.1-1.4-.1-1.2-.4-1.7 0-1.6 1.3 0 .2 0 .5-.1.7.4.1.3.5.3.7.1.9.7 1.3 1.5 1.5.9.2 1.6-.1 2.1-.8.6-.6.6-1.4.2-2.1zm-2.3-10.9h.5c1-.5 1.7-1.2 1.1-2.4-.3-.5-.8-.8-1.5-.6-.7.3-1 .8-1 1.5-.1.8.6 1 .9 1.5zm12.9 8.5c-.6-.1-1.5-.5-1.4.6 0 .7.7.7 1.3.5 0-.4.1-.8.1-1.1zm4.2 18.5c-.2 0-.4 0-.6-.1-.1.3-.4.2-.6.2-.8 0-1.2.6-1.3 1.3-.2.7.1 1.4.7 1.9.6.4 1.2.5 1.9.1.4-.2.7-.6 1-.9 0-.4.1-.8.1-1.2.2-1-.1-1.4-1.2-1.3zm10.7.6c-.6 0-.8.6-1.2.8v.4c.5.8 1 1.5 2.1.9.4-.2.7-.7.5-1.3-.3-.6-.8-.8-1.4-.8zm-9.1 10.8c-.6 0-.6.6-.4 1.2.3 0 .6.1.9.1.1-.6.4-1.3-.5-1.3zm-16.9-52c-.3.2-.6.4-.3.9.4.4.4.2 1-.1.3-.1.6-.3.8-.5-.4-1-.9-1-1.5-.3zm7 9c-.3.2-.6.4-.3.9.4.4.4.2 1-.1.3-.1.6-.3.8-.5-.4-1-.9-1.1-1.5-.3zm27.6 8.4c-.2-.2-1 .1-1.2.3-.1.2.1.8.2 1.3 0 .6 1.6.2 1.2-.3 0-.4 0-1.1-.2-1.3zm-2.6 4.3c-.2-.4-.4-1-.7-1.1-.2-.1-.9.5-.9.7 0 .2.4.7.6 1.1.3.5 1.5-.4 1-.7zm-26.4 24.9c-.5.2-1.2.4-1.3.7s.5 1.1.7 1.2c.3.1.8-.4 1.3-.6.7-.3-.2-1.9-.7-1.3z"></path><path d="M354.8 237.4c-1.7-1.6-3.8-2.4-6.2-2.2-12.6.7-28.7 1-44.3 1.3-15.6.3-31.7.6-44.3 1.3v.6c-24.9 1.7-53.9 3.8-82 5.9-10.3.7-20.5 1.5-30.4 2.2-1.1 0-2.2 0-3.2.1-1.9.1-3.7.3-5.6.5-5.4.4-10.7.8-15.8 1.1h-.6c-2.5 0-4.8.1-7.2.2-1.4.1-2.7.3-4.1.6-32.6 2.3-57.2 3.9-62.7 3.9h-2.9c-5.8 0-8.9-.1-10.8 1.8-1.8 1.8-2.1 5.2-2.1 11.3 0 6.1.1 17 .3 29.5.2 15.4.4 32.8.4 44.8 0 1.6.5 2.8 1.5 3.8 2 1.9 5.8 2.2 9.4 2 1.9.1 4.2.1 6.9.1h1.5c2.3 0 4.7-.1 6.9-.2.6 0 1.1 0 1.7-.1 8.7 0 17.9.1 27.4.2 2.3.1 4.7.2 7 .3 1.7 0 3.5-.1 5.2-.2 11.6.1 23.7.1 35.9.2.6 0 1.3.1 1.9.1 2.4 0 4.8.2 7.1.4s4.8.4 7.2.4c2.4 0 4.8.2 7.1.4 2.4.2 4.8.4 7.2.4 2.4.1 4.9-.1 7.2-.3 2.3-.1 4.8-.3 7.1-.2 2.4 0 4.8.2 7.1.3 2.4.1 4.8.3 7.2.3 2.4 0 4.9-.2 7.3-.4 2.3-.2 4.7-.5 7.1-.4 2.4 0 4.8.4 7.1.7 2.4.3 4.8.7 7.2.7 2.3 0 4.7.1 7 .2 2.4.1 4.9.2 7.4.2s4.9-.3 7.3-.6c2.3-.3 4.7-.6 7-.6h14.3c2.3 0 4.7.5 7.1.9 2.4.4 4.8.9 7.3.9h.2c2.4 0 4.9-.1 7.2-.2s4.6-.2 6.9-.2c2.3 0 4.6.1 6.9.1 2.4.1 5 .2 7.4.1 2.5 0 5.1-.2 7.5-.3 2.2-.1 4.5-.3 6.8-.3 2.5 0 5-.3 7.4-.6 2.3-.3 4.6-.5 6.9-.6 1.4 0 2.8 0 4-.1 3.4 0 5.9-.1 7.8-.6 2.6-.5 4.6-1.4 5.8-2.8 1.7-1.9 1.7-4.1 1.6-5.9-1.6-17.8-.3-39.7.7-57.3.4-5.9.7-11.4.9-16.2.4-14.7-1.2-23.5-5.1-27.5zm.7 55.2c.1 2 .2 4 .2 5.7-.1 3 0 4.7.1 6.2.1 1.9.1 3.6-.1 7.4-.2 3.2-.5 4.8-.8 6.4-.4 1.8-.7 3.5-.8 7.1-.1 3 .3 4.8.7 6.4.4 1.9.8 3.6.1 7.3-.9 4.6-1.9 6.5-4.4 7.3-1.4.3-3 .4-4.9.4-6.7 0-66-.4-134.7-.8-24.4-.1-50.1-.3-75.1-.5-1.6-.1-3.2-.2-4.7-.3-2.4-.2-4.8-.3-7.2-.4h-14.4c-2.4 0-4.9.2-7.3.4-.5 0-1.1.1-1.6.1-4.3 0-8.6-.1-12.8-.1l-6.9-.3H66.6c-1.8 0-3.6.1-5.4.1-3.9 0-7.7 0-11.4-.1h-.1c-.9 0-1.9.1-3 .1-.9.1-2 .1-3 .1-2.4-.2-4.2-.5-5.4-1.4-2.4-1.6-3.3-5.4-3.3-13.3 0-1.8.3-3.8.5-5.9.3-2.4.6-4.8.6-7.4v-13.3c0-2.3 0-4.6-.1-6.8 0-2.3-.1-4.4-.1-6.5 0-2.6-.2-5-.4-7.4-.2-2.1-.4-4.1-.4-5.9 0-6.7 0-6.8.7-10.6.1-.7.3-1.5.4-2.5l.1-.5c.9-5.6 1.3-8.4 6.2-8.4.1 0 .5.1 1 .1 2 .3 6.8 1.1 13.7.5 1.9-.2 4-.7 6.2-1.4 2.6-.7 5.2-1.5 8.2-1.7 2.1-.2 4.3.1 6.7.3 2.6.3 5.3.6 8 .4 2.2-.2 4.4-.4 6.8-.7 2.5-.3 5.1-.6 7.7-.8 2.3-.2 4.6-.7 7-1.3 1.1-.3 2.2-.5 3.3-.7 3.9-.3 8-.6 12.1-.9 2.2 0 4.4-.1 6.6-.2 2.3-.2 4.7-.4 7-.7.5-.1 1-.1 1.5-.2 3.1-.2 6.3-.5 9.5-.7 1.2 0 2.4 0 3.7.1 2.4.1 5 .1 7.5 0 2.3-.2 4.6-.4 7-.6 2.5-.2 5-.5 7.6-.6 2.4-.2 4.8-.5 7.1-.8 2.4-.3 4.9-.6 7.4-.8 2.5-.2 5-.3 7.4-.4 2.3-.1 4.8-.2 7.2-.4 2.4-.2 4.9-.2 7.4-.3 2.4-.1 4.8-.1 7.2-.3l5.2-.3c3.1-.2 6.3-.4 9.4-.6 2.4-.1 4.9-.6 7.3-1 2.4-.4 4.8-.9 7.2-1 2.4-.1 4.9.2 7.3.4 2.4.3 4.9.6 7.3.4 2.5-.1 5-.7 7.3-1.3 2.3-.5 4.8-1.1 7.1-1.2 2.5-.1 5 .1 7.4.3 2.4.2 4.8.4 7.2.3 3.6-.2 7.2-.3 10.8-.4l3.8-.1c2.5-.1 5.1 0 7.6.1 2.3.1 4.7.1 7 .1 2.4-.1 4.8-.3 7.2-.5 2.5-.2 5-.4 7.4-.5 2.4-.1 4.7-.2 7-.3 2.6-.1 5.1-.3 7.5-.3l.9.1c3.8.3 4.5.3 5.3 5.8.5 3.5.9 8 1.1 13.7.1 3.6.1 7.4.1 11.1v2.7c0 2.8-.1 5.6-.2 8.4-.1 1.8-.1 3.7-.2 5.4-.1 3 .1 5.8.2 8.2zM79 252.3c7.5-.5 16.1-1.1 25.4-1.7-1.3.3-2.5.5-3.8.6-2.7.2-5.3.5-7.8.8-2.3.3-4.6.5-6.8.7-2.3.1-4.7-.1-7-.4zm150.6-10.7c1-.1 2-.1 3-.2-.3 0-.6.1-1 .1-.7 0-1.3 0-2 .1zm74.6-4.1c15.6-.3 31.7-.6 44.3-1.3 1.4-.1 2.6.1 3.7.7-.8-.3-1.8-.4-3.2-.5l-.9-.1c-2.5 0-5 .2-7.6.3-2.3.1-4.6.3-7 .3-2.5.1-5 .3-7.4.5-2.3.2-4.7.4-7.1.5-2.3.1-4.6 0-6.9-.1-2.5-.1-5.1-.2-7.7-.1l-3.8.1c-3.6.1-7.2.3-10.8.4-2.3.1-4.8-.1-7.1-.3-.2 0-.5 0-.7-.1 7.3 0 14.8-.1 22.2-.3zm-33 .8c-.6.1-1.2.2-1.8.4v-.3c.6 0 1.2 0 1.8-.1zm-2 .5c-.4.1-.9.2-1.3.3-2.3.5-4.8 1.1-7.2 1.2-2.4.1-4.8-.2-7.2-.4 5.5-.4 10.7-.8 15.7-1.1zM33.4 266.1c0-5.7.3-9.1 1.8-10.6 1.6-1.6 4.6-1.5 10.1-1.5h2.9c2.3 0 8-.3 16.3-.8-.5.1-1 .3-1.5.4-2.1.6-4.2 1.2-6 1.3-6.8.6-11.4-.2-13.5-.5-.6-.1-.9-.1-1.1-.1-5.7 0-6.3 3.7-7.2 9.2l-.1.5c-.2 1-.3 1.8-.4 2.5-.6 3.9-.7 4-.7 10.7 0 1.9.2 3.9.4 6 .2 2.4.4 4.8.4 7.3 0 2.1 0 4.3.1 6.5 0 2.2.1 4.5.1 6.8v13.3c0 2.5-.3 4.9-.6 7.2-.2 1.5-.4 2.9-.5 4.2-.1-10.3-.2-22.2-.3-33.1 0-12.4-.2-23.2-.2-29.3zm1.8 77.4c-.8-.7-1.2-1.7-1.2-3v-5.9c.3 5.6 1.5 8.7 3.7 10.1l.1.1c-1-.3-1.9-.7-2.6-1.3zm138.9 3.5c-2.3.1-4.8.3-7.1.2-2.4-.1-4.8-.2-7.1-.4-.9-.1-1.8-.1-2.8-.2 7.5 0 14.9.1 22.4.1l-5.4.3zm28.7 0c-2.3.2-4.8.5-7.1.4-2.4 0-4.8-.2-7.2-.3-2.2-.1-4.5-.3-6.8-.3 7.4 0 14.7.1 21.9.1-.3 0-.5.1-.8.1zm50.2.2c-2.4 0-4.8.3-7.2.6-2.4.3-4.8.7-7.2.6-2.4 0-4.9-.1-7.3-.2-2.3-.1-4.7-.2-7-.2-2.4 0-4.8-.4-7.1-.7-.7-.1-1.5-.2-2.3-.3 15.2.1 29.9.2 43.6.3-1.8-.1-3.6-.1-5.5-.1zm71.7 1c-2.3 0-4.6.2-6.8.3-2.4.1-5 .3-7.5.3s-5-.1-7.4-.1c-2.3-.1-4.6-.1-6.9-.1-2.3 0-4.7.1-7 .2-2.4.1-4.9.2-7.4.2-2.3 0-4.7-.5-7.1-.9-1.9-.4-3.8-.7-5.8-.8 26.7.2 48.9.3 62.6.4-2.2.2-4.5.5-6.7.5zm31.1-4.3c-.5.6-1.2 1.1-2 1.5 1-1.3 1.7-3.2 2.2-6.1.7-3.8.3-5.6-.1-7.7-.3-1.5-.7-3.2-.7-6.1.1-3.5.4-5.2.7-6.9.2-.8.3-1.6.4-2.5-.1 7.9.1 15.7.8 22.8.2 1.4.1 3.4-1.3 5zm2.9-78.8c-.2 4.8-.5 10.3-.9 16.2-.4 6.5-.8 13.6-1.1 20.8v-3.8c0-1.7-.1-3.7-.2-5.7-.1-2.6-.3-5.2-.2-8.1 0-1.8.1-3.6.2-5.4.1-2.7.2-5.6.2-8.4V268c0-3.7 0-7.6-.1-11.2-.2-5.8-.6-10.3-1.1-13.8-.4-2.6-.9-4.2-1.6-5.1.1.1.2.1.2.2 3.7 3.7 5.2 12.5 4.6 27z"></path><path d="M352.5 234.1c-4.8.3-9.7 1.5-14.5 1.8s-9.6.5-14.4.7c-4.8.3-9.7-.4-14.5-.1-4.8.3-9.6.4-14.4.7-4.8.3-9.6 1-14.4 1.3-4.8.3-9.6.3-14.4.6s-9.6.7-14.4 1c-4.8.3-9.5 2.2-14.3 2.5s-9.7-.5-14.5-.2c-4.8.3-9.5 1.6-14.3 1.9s-9.7-.6-14.5-.3c-4.8.3-9.6.7-14.4 1-4.8.3-9.5 1.6-14.3 1.9s-9.6.7-14.4 1c-4.8.3-9.7-.3-14.5 0s-9.6 1.2-14.4 1.5-9.6.1-14.4.4-9.7-.6-14.5-.3c-4.8.3-9.5 1.7-14.3 2s-9.6 0-14.4.3-9.5 1.8-14.3 2.1-9.2.3-14 .5c.1 5 .5 9.6.6 14.6s-1.1 10-1 15.1c.1 5 .8 10 .9 15s.6 10 .7 15c.1 5-.8 10-.8 15.1.1 5 .7 9.8.8 14.8 4.8 0 9.3.7 14.1.8 4.8 0 9.6.1 14.4.1 4.8 0 9.6-.3 14.4-.3 4.8 0 9.6-1.2 14.4-1.1 4.8 0 9.6 1.8 14.4 1.8 4.8 0 9.6-1.1 14.4-1.1 4.8 0 9.6 1 14.4 1 4.8 0 9.6-1.7 14.4-1.7 4.8 0 9.6 1.8 14.4 1.8 4.8 0 9.6-.6 14.4-.6 4.8 0 9.6-.1 14.4 0 4.8 0 9.6-.3 14.4-.3 4.8 0 9.6-.2 14.4-.2 4.8 0 9.6.9 14.4.9 4.8 0 9.6-1.3 14.4-1.3 4.8 0 9.6.8 14.4.8 4.8 0 9.6-.2 14.4-.2 4.8 0 9.6.3 14.4.4 4.8 0 9.6.2 14.4.2 4.8 0 9.6-.1 14.4-.1 4.8 0 9.6.4 14.4.4 3.6 0 7.9.4 10.9-1.7 4.7-3.2 5.7-10.6 5.8-16.3 0-5-.6-10.1-.5-15.1 0-5-.2-10.1-.1-15.1 0-5 .8-10.1.9-15.1 0-5-.9-10.1-.9-15.1s-.7-10.1-.7-15.1 1.6-10.2 1.6-15.2c-.9-2.1-2.2-2.2-3.8-2.5z"></path></g><g id="SvgjsG127211" class="Q4PJJpEgG" transform="translate(107.55714106362214, 26.48337992362477) scale(0.9231079522746942) rotate(12, 154.24829560947592, 150.86893775075276)" light-content="false" non-strokable="false" fill="#aaaaaa"><path d="M216.6 20.3c1.3.8 3.2 1.6 5.3 2.4-.2-.9-.9-1.7-2.1-2.5-1.3-.7-3.1-1.4-5.6-2.1.2.7 1.1 1.4 2.4 2.2zM68.5 266c-3.6-2.6-7-5.4-10.3-8.3-1.4-1.2-2.7-2.3-4.1-3.5-.3-.4-.6-.9-.8-1.3.3-.8-.4-1.7-1.5-2.7-1.1-1-2.7-2-4.3-3-2.7-2.8-3.7-3.3-5.1-2.5 1.2 1.4 2.4 2.8 3.5 4 1 1.5 1.9 2.8 3 4.2-2.3-2.6-4.3-5.4-6.5-8.2-1.5-1.7-2.9-2-3.5-1.4l2.1 3.3c.8 1.1 1.6 2.1 2.3 3.2.2 1.6-1 1.2-1.3 1.4.6.7 1.1 1.3 1.7 2 .6.7 1.2 1.3 1.9 2 1.3 1.3 2.6 2.7 4 4 1.4 1.3 2.8 2.6 4.3 4 1.5 1.3 3 2.6 4.6 3.9.6.5 1.2 1 1.9 1.4.7.4 1.3.9 2 1.3 1.3-.4 2.6-.9 3.9-1.4-.3-.2-.4-.3-.7-.6 1.2-.7 2-1.2 2.9-1.8zm-17.4-9.4c-.9-1.1-1.8-2.3-2.7-3.4 1.2 1.3 2.3 2.9 3.7 4.2.4.4.8.8 1.2 1.1-.8-.4-1.6-1-2.2-1.9zM68.4 270c.3.9 1.2 1.8 2.6 2.9.7.5 1.6 1 2.6 1.6 1 .6 2.3 1.1 3.7 1.7.5-.3-.9-1.5-1.3-2.3-1.8-1.2-3.7-2.7-7.6-3.9zm-11.8-54.2c.6 1.3 1.3 2.6 1.8 3.8.3.5.6.9.8 1.2.8 1.1 1.7 2.3 2.6 3.5 6 2.9-2.6-5.1-2.9-7.8-.5.4-1.9-1.6-2.3-.7zM206.9 14c-2-1.5-3.9-2.8-5.7-3.5-1.8-.7-3.4-1-4.5-.6.5 1.6 4.3 2.7 10.2 4.1z"></path><path d="M308.3 158.7c-.1-.9-.3-1.9-.4-3.2-.1-1.3-.1-2.8-.1-4.7-.1-.1-.2-.1-.3-.2-.5-.2-1-.5-1.5-.7-.2-1.8-.4-3.3-.6-4.9-1.1.3-2.2.8-3.3 1.2-.7-.1-1.5-.1-2.3 0-.6-.3-.9-.4-1.5 2.9-.6.8-1.2 1.8-1.8 2.7-.7 0-1.5-.1-2.3-.1-1.2-1.1-2.6-2.2-3.9-3.4-.4-1.4-.8-1.7-1-2.8-.7-.3-1.5-.6-2.2-.8-.9-.2-1.9-.2-2.9-.2-.5 0-1.5-1.2-1.6.2-.8.7-1.7 1.3-2.5 2.2-.2-.5-.5-.8-.7-1 .1 12.2-1.5 24.5-5.1 36.2.2 1.3-2.1 4.1-.6 4-1 6.6-3.7 12.2-6.3 18.1 1.7.7.9 2.4-.5 4.2-1.3 1.8-3 3.8-2.8 5.5-1.6.5-2.4 2.2-3.4 4-1 1.8-2 3.9-3.9 4.8-4.2 6.7-10.4 13.5-16.2 18.3-1.6 1.7-3.2 3.3-5 4.7-.9.7-1.8 1.4-2.8 2.1-.9.7-1.9 1.4-2.9 2-2 1.3-4 2.6-6.2 3.7l-3.3 1.8c-1.1.6-2.3 1.2-3.5 1.8.1.8-1.6 1.3-1.8 2.3-1.8.9-3.7 1.7-5.6 2.6-1.9.8-3.9 1.6-5.8 2.4-1.6.6-3.3 1.2-5.1 1.9-1.8.6-3.8 1.1-5.7 1.7-3.9 1-7.9 1.9-11.4 2.4-.6.8-3.3.3-3.2 2.1-1-.3-2.1-.5-3.4-.4-.6 0-1.3.2-2 .4s-1.4.4-2.2.8c-1.6-.5-5.3.6-5.2-.7-1 .1-3.1-.2-3.1.4-.6.3-1.3.4-2.2.4-.8 0-1.7-.1-2.5-.1-1.4.3-2.6.5-4.1.8 1-1.3-3.3-1.3-3.6-.9-.6.3-1.6.2-2.7.2s-2.2 0-3.1.7c-.3 0-.5-.1-.8-.1-1-.7-2-1.2-2.9-1.4-.9-.2-1.7-.2-2.3.4-.8-.2-1.4-.6-2.3-.8-.9-.2-2.1-.1-4.1.5-.8-.1-1.7-.2-2.4-.2 1.3-.8-1.2-1-.7-1.8-1.3.1-2.9-.2-4.5-.6-1.6-.4-3.3-.9-5-1.5-1.7-.6-3.3-1.2-4.9-1.7-1.6-.6-3-1-4.4-1.1-1.9-.8-3.6-1.6-5.5-2.5-1.3-.5-2.8-1.4-4.3-2.1-1.5-.7-3-1.3-4.5-1.5-.4-.2-.8-.5-1.4-.8-3.8-2.3-8.2-6.2-14.2-8.9-1.8-1.5-3.5-3.1-5.1-4.7-.8-.8-1.6-1.6-2.4-2.3-.8-.7-1.6-1.5-2.4-2.2-1.1-1.2-1.5-2.1-1.7-3 0-.1 0-.2-.1-.3-8.4-6.5-15-14.4-20.8-23.2-.9-.4-1.8-.6-2.6-.9-.9-.7-1.9-1.6-2.7-2.4-.2-.4-.4-.9-.7-1.4-3.7-7.7-7.2-17.2-9.6-25.4-.2-.1-.5-.4-.8-.6-.3-.8-.5-1.7-.7-2.8-.2-1.1-.5-2.6-.7-4.6.3-.1.6-.1 1-.2-3.9-15.5-5-31-2.9-46.9l.5.5c.4-4.2 1.1-8.3 1.9-12.3v-.1c.1-.2.1-.5.2-.7 5.5-25 19.1-47.9 37.9-65.4-1 1-1.5 2-2.5 3 16.5-17 37-28 60.5-33.5 6-1 12-2.5 18-2 8.5 0 17.5 0 26 .5l-.5.5c11.5 1 22.5 5 33.5 9-1.5-.5-3.5-1-5-1.5 15.5 6 30 14 42 26 2.7 3.1 5.4 5.9 8.1 8.8h.4c1.4-.5 1.6-2.2 1.8-3.3-1-1.5-2.2-2.8-3.4-4.3-.7-1.1-1.3-2.1-2.2-3.2-2-1.9-4.2-3.9-6.3-5.6-.7-.9-1.5-1.7-2.3-2.6-.8-.8-1.7-1.6-2.5-2.4-1.7-1.7-3.6-3.1-5.5-4.6l-1.4-1.1-1.5-1c-1-.7-1.9-1.4-2.9-2.1-1.9-1.4-3.9-2.6-5.6-4-.8-.9-2.7-1.8-4.5-2.8-.5-.2-.9-.5-1.4-.7-.4-.2-.9-.4-1.3-.6-.8-.4-1.4-.8-1.8-1.2-.8-.4-1.7-.8-2.5-1.2-.8-.4-1.7-.7-2.5-1-.9-.4-2-.8-2.9-1.2.6-1.7-3.6-2.7-5.1-2.5l-1.9-.7-1.9-.6-3.8-1.1c-1.3-.4-2.6-.6-3.9-1-1.3-.3-2.6-.7-3.9-.9-1.3-.3-2.6-.7-3.9-1-.2-.7-1.4-1.3-2.9-1.5-1.5-.2-3.2-.2-4.2.1-.8-.1-1.7-.2-2.5-.3-1.9-.6-4.1-1.2-6.2-1.8 1.2-1-1.5-1.2-.6-1.9.8-.6 1.4-1.2 2-1.8 1.2-.1 2.5-.1 4.1-.2 1.6-.2 3.6-.3 6.2-.6l3 .6c1 .2 1.9.5 2.9.7 1 .2 1.9.5 2.9.7.5.1 1 .2 1.4.4.5.1 1 .3 1.4.4.1.7 1.2 1.4 2.9 1.8 1.7.4 4 .8 6.7.8-1.7-1-3.4-2-5.2-2.8.1-.4.3-.8.4-1.3 0-.1.1-.2.1-.3-.8-.3-1.7-.7-2.5-1-1.4-.3-2.8-.7-4.2-1-2-.2-1.4 1.1-3 1.4-.9-.4-1.4-1.1-2.1-1.7-.7-.6-1.7-1.2-3.4-1.2-1.6-.2-3.4-.3-5.2-.4-1.6-.1-3.4-.1-5.1-.2 0 .1 0 .3-.1.3-1.3.3-2.4.6-3.7 1-1.2-.1-2.4-.1-3.7-.1-1.2 0-2.5-.1-3.7 0-2.5.1-4.9 0-7-.2-8.2.2-16.4 1.2-24.4 2.9-.9-.5-2.3-.5-3.8-.1s-2.9 1.1-3.9 1.7c-10.2 2.7-20.2 6.6-29.6 11.6-1.5.2-2.6-.4-4.3 1-.9 1.1-2.9 2-3.2 3.4-1.2.6-2.4 1.1-3.6 1.7-1.1.6-2.3 1.2-3.4 1.8-1.6 1-3.3 2-4.8 3.1-1.6 1.1-3.2 2.1-4.7 3.3-1.4.9-2.9 1.9-4.4 2.9-1 1.1-1.8 2.2-2.9 3.4-.9.9-1.9 1.7-2.8 2.6-.9.9-1.8 1.9-2.8 2.9-.8.6-1.7 1.3-2.4 2.1-.8.8-1.4 1.6-1.7 2.3-1.3 1.2-2.7 2.4-3.9 3.6.7-1.8-1.4-1.1-.8-3.1-1.2.4-2.4 2.6-3.5 3.8-.5 1.3-.9 2.5-1.3 3.8-.1.1-.3.4-.4.6-.4-1.1-1.5-.1-2.3.5-.6.8-1.1 1.5-1.6 2.4-.5 1-1.1 2.2-1.7 4-1.3 1.4-2.1 1.9-2.8 2.6-1 2.1-3.5 4.7-3.1 6.5-.8 1.7-1.5 3.2-2.3 5-1.1 1.7-2 3.6-3 5.4-.6.5-1.1 1.5-1.6 2.5-.4 1.1-.8 2.2-1.3 3.2-.1 1.6-.2 3.2-.2 4.9-.6 1.9-1.2 3.7-1.8 5.6-.6 1.9-1 3.7-1.5 5.5-.4 1.3-.7 2.3-1 3.6-1 .4-2.2 3-3.3 4.4-.5 1.8-.7 3.7-.7 6.5-.1.6-.2 1.1-.3 1.8-2 1.6-1.2 6.1-1.5 8 .4 1 .9 1.9 1.3 2.9-1 1.2-.8 3.5-1 5.3-2.8 4.3-2.3 13-1.7 20.6.6 1.3 1.2 2.5 1.9 3.8.2 1.8.3 3.6.5 5.3.2 1.8.5 3.5.7 5.3-.9.4-1.1 2.6-.4 4.6.9.8 1.3 3 1.9 5.3.7 2.3 1.6 4.8 3.4 5.8.2.7.4 1.6.7 2.5.4 1.1.8 2.3 1.1 3.4.7 1.4-.1-2.7.6-1.3.7 1 1.3 2.5 2.1 3.8.8 1.3 1.5 2.3 2.2 2.3.2-1.3 0-2-.6-3.1-.5-1.1-1.4-2.7-2.8-5.7 1.1-2.5-2.4-9.6-2.2-13.9-.8-1.6-1.5-3.3-2.2-5.1-.4-2.4-.6-3.6-.8-5.1-.7-2.2-1.4-4.2-2-6.2 1 .7 1.1-3.3 2-3.5-.1-1.2-.1-2.4-.2-3.6-.1-1.2 0-2.4-.1-3.5 0-2.3-.1-4.7 0-7 .2-1.1.3-2.3.5-3.4.1-1.5.3-2.9.4-4.3.2-1.4.4-2.9.6-4.3.2-.3.5-.6.7-.8.2.6.5 1.2.8 2 1.6-4.4 1.8 1.4 2.7 2.1.5.4 1 .7 1.5 1.1-.2 2.4-.6 5.5.2 7.5-.2.5-.3 1-.4 1.7-.7.5-1 2.5-.9 4.7 0 1.1.1 2.3.3 3.4.2 1.1.5 2 .9 2.7h.9c1.1.5 2.2 1.1 3.3 1.7.3.8.6 1.6 1 2.4.4.8.7 1.6 1.1 2.4.2 1.8.3 2.8.5 4 .3 0 .7 0 1.6-.1.3 1.5.5 3 .7 4.3.2 1.3.6 2.5 1.3 3.4.4 1.8.8 3.5 1.2 5.3l1.5 5.4c.5 2.1 1.3 4.3 1.9 6.4.7 2.1 1.5 4.2 2.1 6.3.6 1.9 1.3 3.7 1.9 5.5.6 1.9 1.5 3.6 2.2 5.5.6 1.6 1.4 3.2 2.1 4.7.7 1.6 1.4 3.1 2.2 4.7.2 1.3.6 2.9 1.3 4.5.8 1.6 1.8 3.2 3.1 4.6.8.3 1.6.5 2.5.9.4.5.9 1.2 1.3 1.9-1.8-.4-.3 1.6-.3 2.4 1.1 1.3 2.4 2.5 3.6 3.7.1 1.2 0 2.2.1 3.3 1.7 2 3.2 3.8 4.9 5.7 1 1.7 3 2 3.7 2.6.9.8 1.8 1.6 2.8 2.4l3 2.4c3.1 2.7 3.1 4 4.7 6.3-1 0-1.9 0-3-.1-.3.2-.6.4-.8.5.9.8 1.7 1.5 2.5 2.2 4.2 3 3.9.1 7.5 1.8 1.5.9 2.8 1.8 4.3 2.8 1.1.8 2.2.5 5 2.9 1.8-.3 2.7.4 3.7 1.4 1 1 2.1 2.4 4.2 3.2-.5.4-1 .9-1.5 1.4-1.2-.7-2.5-1.4-3.7-2-1.3-.7-2.5-1.3-3.7-2.1-.1.1-.2.2-.3.2.2.9.5 1.8.7 2.7 2.1 1.1 4 2.1 6.1 3.2 2.2 1.1 4.6 2.4 6.8 3.5 1.8.8 3.9 1.6 5.8 2.3 2.3.9 4 1.6 5.5 2.2 1.4 1 2.9 1.8 4.2 2.6 1.2 0 2.5.2 3.8.4 1.3.2 2.7.4 4.2.8 3 .7 6.5 1.3 10.7 2 1.9.5 4 1 5.8 1.4l-1.8 3.3c-1.8-.3-3.6-.6-5.3-1-1.6-.4-3.1-.9-4.6-1.3-.8-.2-1.5-.4-2.3-.6-.8-.2-1.5-.5-2.3-.7-.2.3-.5.7-.8 1.1-1-.1-1.9-.3-2.7-.4-1.9-1.2-3.8-2.5-5.6-3.8-.7.1-1.5.2-2.2.2-4.7-1.2-6.3-1.4-6.8.1-1.5-.4-3-.8-4.5-1.3-3.1-1.6-6.7-3.7-12.8-5.3.3.6.9 1.2 1.6 1.7.8.5 1.7 1 2.8 1.5s2.3 1 3.6 1.5c1.3.5 2.7.9 4.1 1.3 1 .5 2 1 3 1.4l3.1 1.3c2.1.9 4.1 1.8 6.2 2.5.6.1 1.3.1 1.8.3.3-.3.6-.7.8-1.1 1.2.4 2.3.8 3.6 1.2 1.3 1.2 3.3 1.9 5.6 2.4 2.3.4 5 .6 7.5 1l4.8.9c1.6.3 3.2.6 4.8.8 1.9.1 3.9.2 5.6.4l7.5.3c1.1.2 2.4.3 3.5.5.9 0 1.7 0 2.6.1.9.2 1.7.4 2.6.7-.2.5-.3.9-.5 1.3 0 .1-.1.2-.1.3 2.6 1.4 3.8 1.3 6.2.2 1 0 1.9-.1 2.8-.1.9-.1 1.8-.1 2.8-.2 1.1-.5 2.2-1 3.1-1.5.7.1 1.3.1 1.8.2 1.4.5 1.2 1.1 2.3 1.3 3.1-.5 6.4-1 9.3-1.7 2.5-.5 5.4-1 5.4-.1 1.2-.3 2.5-.5 4.1-.9.8-.2 1.7-.4 2.8-.8 1-.4 2.1-.8 3.3-1.4 1.5-.9 3.1-1.8 4.6-2.7.7-.2 3.7 0 5.4-2.5-.5-.4-1.1-.8-1.8-1.1.9-.7 1.8-1.5 2.7-2.3 2.9-1.1 5.7-2.2 8.5-3.5.7.3 1.6.3 2.6.2.8-.4 1.7-.8 2.6-1.2.9-.4 1.8-.8 2.6-1.3 1.7-.9 3.2-1.9 3.8-3.4 1.1-.5 2-1.1 3.1-2 1.1-.9 2.5-2.1 4.6-4 .8-.5 1.5-.9 2.3-1.4 1.6-.9 3.2.2 5.7-2.4 1.6-1.1 2.9-2.1 3.4-4 .6-1.1 1.1-1.9 1.7-3 1.9-1.6 3.7-3.4 5.5-5.2 1.8-1.7 3.5-3.6 5.2-5.4.5-.3.9-.6 1.5-1 1.7-.7 3-1.5 4.8-3.6.7-1.8 4.4-4.4 4-7.4 1-1.2 1.8-2.5 2.7-3.8.9-1 1.7-2 2.6-3.1.8-1 1.7-2.1 2.5-3.3.9-.4 1.8-1.4 2.7-2.8.8-1.4 1.7-3.1 2.5-4.9 1.2-1.7 2-3.2 2.6-4.7.6-1.5.9-2.9 1-4.5.5-1.1 1.6-2.5 1-4 1.2-2.4 2.9-5.3 3.1-10.3.6-1.6 1.3-3.3 2-5.1 2.2-1.7 2.4.4 4.4-.7.4-2.2.8-4.5 1.2-6.7.7-3.2.7-5.2 1.6-7.6.1-1.3 0-2.9 0-4.2.4-1.7.8-3.5 1.2-4.9.3-1.5.4-2.7.2-3.3.4-2.4.3-4 0-5.8zM191 17.8c.5.2 1 .3 1.5.4.5.1 1 .3 1.6.4-1.6-.5-3.4.1-4.7-1.1 0-.1-.2-.2-.3-.4.6.3 1.2.5 1.9.7zM18.2 135.2c.1-.9.2-1.7.2-2.6 0 .8-.1 1.7-.2 2.6zM24.4 71c.5-.9 1.1-1.7 1.7-2.4-.3.8-.7 1.6-1.7 2.4zm165.4 215.5c-.1 0-.2 0-.4.1l.9-.3c-.2 0-.3.1-.5.2zm85.4-55.6c.5-.9 1-1.8 1.5-2.9.3-.7.7-1.4 1.1-2.2-.5 1.3-1.1 3-2.6 5.1zm9.1-14.5c-.6 1-1.2 2.2-1.7 3.2.6-1.5 1.3-2.9 2-4.3 0 .4-.2.7-.3 1.1zm2.9-4.3l-.2.2c.1-.1.2-.1.2-.2.1-.2.2-.4.4-.6-.1.2-.2.4-.4.6z"></path></g><g id="SvgjsG127212" class="uR_Jr8t_fS" transform="translate(-7.9734489154550845, 132.96414204866235) scale(0.8947449445982926)" light-content="false" non-strokable="false" fill="#ffffff"><path d="M90.83 52.403c-.038-.056-3.838-5.639-8.306-11.146-8.434-10.397-11.898-11.599-13.77-11.599h-6.1c-.05 0-.098.01-.146.015l-10.197-6.325v-3.296c3.369-.794 5.887-3.818 5.887-7.426 0-4.211-3.426-7.637-7.637-7.637s-7.637 3.426-7.637 7.637a1.75 1.75 0 0 0 3.5 0 4.142 4.142 0 0 1 4.137-4.137c2.281 0 4.137 1.856 4.137 4.137s-1.855 4.137-4.137 4.137a1.75 1.75 0 0 0-1.75 1.75v4.838L38.64 29.659h-7.22c-5.827 0-18.493 17.395-22.236 22.726a1.5 1.5 0 0 0 .28 2.025l14.08 11.478a1.497 1.497 0 0 0 2.111-.214l1.434-1.759v27.91a1.5 1.5 0 0 0 1.5 1.5h43.167a1.5 1.5 0 0 0 1.5-1.5V64.332l1.094 1.341a1.498 1.498 0 0 0 2.11.214l14.079-11.479a1.5 1.5 0 0 0 .291-2.005zM50.562 26.382l10.498 6.511c-.54 3.474-3.567 6.145-7.223 6.145h-5.834c-3.787 0-6.906-2.891-7.251-6.571l9.81-6.085z"></path></g><g id="SvgjsG127213" class="text" transform="translate(289.4687633315031, 186.88175035371765) scale(1)" light-content="false" fill="#147efb"><path d="M-113.17 -22.47L-101.33 -22.47L-101.33 5.12L-93.09 5.12L-93.09 -48.72L-101.33 -48.72L-101.33 -30.2L-113.17 -30.2ZM-142.09 -6.34L-135.87 -1.45C-133.53 -3.37 -131.15 -6.02 -128.72 -9.37C-126.29 -12.73 -124.63 -15.83 -123.74 -18.69C-122.81 -15.98 -121.21 -13.02 -118.93 -9.82C-116.65 -6.61 -114.51 -4.25 -112.51 -2.73L-106.61 -7.62C-110.17 -10.36 -113.27 -14.33 -115.9 -19.52C-118.53 -24.71 -119.85 -30.44 -119.85 -36.71L-119.85 -45.55L-127.75 -45.55L-127.75 -36.37C-127.75 -32.74 -128.15 -29.32 -128.97 -26.11C-129.78 -22.91 -130.91 -20.08 -132.33 -17.63C-133.76 -15.18 -135.27 -13.05 -136.87 -11.23C-138.46 -9.42 -140.2 -7.79 -142.09 -6.34Z M-70.6 4.51L-31.06 4.51L-31.06 -1.84L-62.59 -1.84L-62.59 -4.73L-32.06 -4.73L-32.06 -19.3L-70.77 -19.3L-70.77 -12.9L-40.01 -12.9L-40.01 -10.12L-70.6 -10.12ZM-77.55 -22.41L-55.36 -22.41L-55.36 -15.52L-47.41 -15.52L-47.41 -22.41L-25.38 -22.41L-25.38 -28.75L-77.55 -28.75ZM-72.16 -39.82C-72.16 -37.82 -71.16 -36.13 -69.16 -34.76C-67.15 -33.39 -64.64 -32.42 -61.62 -31.84C-58.6 -31.27 -55.18 -30.98 -51.36 -30.98C-47.61 -30.98 -44.23 -31.27 -41.21 -31.84C-38.19 -32.42 -35.66 -33.39 -33.64 -34.76C-31.62 -36.13 -30.61 -37.82 -30.61 -39.82C-30.61 -41.83 -31.62 -43.51 -33.64 -44.88C-35.66 -46.26 -38.19 -47.23 -41.21 -47.8C-44.23 -48.38 -47.61 -48.67 -51.36 -48.67C-54.14 -48.67 -56.74 -48.5 -59.17 -48.17C-61.6 -47.83 -63.8 -47.32 -65.76 -46.64C-67.73 -45.95 -69.29 -45.02 -70.44 -43.86C-71.58 -42.69 -72.16 -41.34 -72.16 -39.82ZM-63.26 -39.82C-63.26 -41.83 -59.29 -42.83 -51.36 -42.83C-43.46 -42.83 -39.51 -41.83 -39.51 -39.82C-39.51 -37.86 -43.46 -36.88 -51.36 -36.88C-59.29 -36.88 -63.26 -37.86 -63.26 -39.82Z M-14.35 -37.77L4.67 -37.77C-2.48 -25.38 -7.29 -12.68 -9.73 0.33L-1.11 0.33C2.48 -15.42 7.64 -28.59 14.35 -39.16L14.35 -44.77L-14.35 -44.77Z M25.11 1.33L77.33 1.33L77.33 -5.73L55.53 -5.73L55.53 -14.46L47.13 -14.46L47.13 -5.73L25.11 -5.73ZM38.62 -40.82L64.15 -40.82L64.15 -47.28L38.62 -47.28ZM29.22 -31.48L73.55 -31.48L73.55 -37.77L29.22 -37.77ZM32.17 -20.3C32.17 -18.3 33.04 -16.58 34.78 -15.16C36.53 -13.73 38.83 -12.68 41.68 -12.01C44.54 -11.35 47.78 -11.01 51.41 -11.01C56.98 -11.01 61.56 -11.82 65.18 -13.43C68.79 -15.04 70.6 -17.32 70.6 -20.25C70.6 -23.17 68.79 -25.45 65.15 -27.06C61.52 -28.67 56.94 -29.48 51.41 -29.48C47.82 -29.48 44.59 -29.15 41.74 -28.5C38.88 -27.86 36.57 -26.83 34.81 -25.42C33.05 -24.01 32.17 -22.3 32.17 -20.3ZM41.12 -20.3C41.12 -22.6 44.55 -23.75 51.41 -23.75C58.24 -23.75 61.65 -22.6 61.65 -20.3C61.65 -17.96 58.24 -16.8 51.41 -16.8C44.55 -16.8 41.12 -17.96 41.12 -20.3Z M98.27 4.45L136.64 4.45L136.64 -16.02L98.27 -16.02ZM106.28 -2.28L106.28 -9.29L128.69 -9.29L128.69 -2.28ZM118.9 -29.03L128.47 -29.03L128.47 -17.96L136.64 -17.96L136.64 -48.72L128.47 -48.72L128.47 -36.21L118.9 -36.21ZM88.81 -22.36L93.26 -17.07C95.63 -17.89 98.17 -19.29 100.85 -21.27C103.54 -23.26 105.57 -25.2 106.94 -27.09C108.2 -25.45 110.06 -23.74 112.51 -21.94C114.95 -20.14 117.27 -18.82 119.46 -17.96L123.68 -23.03C122.5 -23.55 121.27 -24.2 120.01 -25C118.75 -25.8 117.45 -26.76 116.09 -27.89C114.74 -29.02 113.61 -30.33 112.7 -31.81C111.79 -33.3 111.3 -34.8 111.23 -36.32L111.23 -39.66L121.46 -39.66L121.46 -46.27L92.04 -46.27L92.04 -39.66L102.55 -39.66L102.55 -36.21C102.48 -34.5 101.96 -32.86 100.99 -31.29C100.03 -29.71 98.8 -28.35 97.32 -27.2C95.84 -26.05 94.4 -25.08 93.01 -24.31C91.62 -23.53 90.22 -22.88 88.81 -22.36Z"></path></g></g></svg>